<?xml version="1.0" encoding="UTF-8" standalone="no"?>
<svg
   viewBox="409.289 277.787 163 123"
   width="163"
   height="123"
   version="1.1"
   id="svg10"
   xml:space="preserve"
   xmlns="http://www.w3.org/2000/svg"
   xmlns:svg="http://www.w3.org/2000/svg"><defs
     id="defs10" /><path
     d="m 547.36552,288.08806 a 134.80742,134.22011 0 0 0 -33.62814,-10.30106 92.384428,91.981943 0 0 0 -4.30768,8.71824 125.23052,124.68494 0 0 0 -37.32044,0 92.781863,92.377647 0 0 0 -4.30769,-8.71824 135.75614,135.1647 0 0 0 -33.65377,10.32658 c -21.28201,31.34995 -27.05123,61.92125 -24.16662,92.05853 v 0 a 135.55101,134.96046 0 0 0 41.24351,20.61489 99.615183,99.181197 0 0 0 8.83331,-14.18151 87.717771,87.335617 0 0 1 -13.91023,-6.61207 c 1.16667,-0.84247 2.30769,-1.71047 3.41025,-2.55293 a 96.884419,96.46233 0 0 0 82.46137,0 c 1.11539,0.90629 2.25641,1.77428 3.41025,2.55293 a 88.051104,87.667498 0 0 1 -13.93587,6.62484 98.717749,98.287673 0 0 0 8.83332,14.16874 134.93562,134.34776 0 0 0 41.26915,-20.60211 v 0 c 3.3846,-34.94957 -5.78204,-65.24004 -24.23072,-92.09683 z m -83.65368,73.54981 c -8.03845,0 -14.67946,-7.26307 -14.67946,-16.19832 0,-8.93524 6.41025,-16.26214 14.65382,-16.26214 8.24357,0 14.8333,7.3269 14.69228,16.26214 -0.14103,8.93525 -6.47435,16.19832 -14.66664,16.19832 z m 54.15374,0 c -8.05127,0 -14.66664,-7.26307 -14.66664,-16.19832 0,-8.93524 6.41024,-16.26214 14.66664,-16.26214 8.25639,0 14.79484,7.3269 14.65381,16.26214 -0.14102,8.93525 -6.46152,16.19832 -14.65381,16.19832 z"
     id="path7"
     style="stroke-width:1.27925" /></svg>
