<?xml version="1.0" encoding="UTF-8" standalone="no"?>
<svg
   id="Layer_2"
   viewBox="0 0 354.28 114.72"
   version="1.1"
   sodipodi:docname="logo_incrivel (1).svg"
   inkscape:version="1.3 (0e150ed, 2023-07-21)"
   xmlns:inkscape="http://www.inkscape.org/namespaces/inkscape"
   xmlns:sodipodi="http://sodipodi.sourceforge.net/DTD/sodipodi-0.dtd"
   xmlns="http://www.w3.org/2000/svg"
   xmlns:svg="http://www.w3.org/2000/svg">
  <sodipodi:namedview
     id="namedview11"
     pagecolor="#ffffff"
     bordercolor="#666666"
     borderopacity="1.0"
     inkscape:showpageshadow="2"
     inkscape:pageopacity="0.0"
     inkscape:pagecheckerboard="0"
     inkscape:deskcolor="#d1d1d1"
     inkscape:zoom="1.6343006"
     inkscape:cx="176.83406"
     inkscape:cy="57.51696"
     inkscape:window-width="1792"
     inkscape:window-height="1067"
     inkscape:window-x="0"
     inkscape:window-y="25"
     inkscape:window-maximized="1"
     inkscape:current-layer="Layer_2" />
  <defs
     id="defs1">
    <style
       id="style1">.cls-1,.cls-2{fill:#fff;}.cls-3{opacity:.8;}.cls-2{font-family:AzoSans-Regular, 'Azo Sans';font-size:43.28px;}</style>
  </defs>
  <text
     class="cls-2"
     id="text2"
     style="fill:#000000"
     x="95.790001"
     y="53.599998"><tspan
       x="95.790001"
       y="53.599998"
       id="tspan1"
       style="fill:#000000">INCRÍVEL</tspan><tspan
       x="95.790001"
       y="96.830002"
       id="tspan2"
       style="fill:#000000">ALMADENSE</tspan></text>
  <g
     id="g10"
     style="fill:#000000">
    <path
       class="cls-1"
       d="M 8.14,27.51 C 7.82,27.45 7.49,27.39 7.16,27.32 6.33,27.14 5.54,26.83 4.81,26.39 4.3,26.08 3.83,25.72 3.39,25.31 2.77,24.73 2.25,24.07 1.78,23.36 1.77,23.34 1.77,23.32 1.76,23.3 c 0,-0.08 0.08,-0.1 0.14,-0.12 0.71,-0.35 1.42,-0.69 2.14,-1.04 0.13,-0.06 0.25,-0.13 0.38,-0.19 0.98,-0.48 1.97,-0.97 2.95,-1.45 0.12,0.04 0.16,0.15 0.22,0.23 0.3,0.39 0.65,0.73 1.08,0.98 0.47,0.27 0.97,0.43 1.51,0.47 0.16,0.01 0.32,0.05 0.48,0.04 0.99,-0.06 1.95,-0.28 2.85,-0.72 0.27,-0.13 0.52,-0.31 0.74,-0.53 0.58,-0.59 0.45,-1.38 0.01,-1.89 -0.23,-0.27 -0.53,-0.41 -0.86,-0.49 -0.25,-0.05 -0.51,-0.09 -0.77,-0.09 -0.42,0.01 -0.85,0 -1.27,0.03 -0.4,0.02 -0.8,0.07 -1.2,0.1 -0.19,0.02 -0.39,0.02 -0.59,0.02 -0.56,0 -1.13,0.06 -1.69,0.05 C 7.43,18.7 6.99,18.65 6.55,18.64 6.03,18.62 5.52,18.54 5,18.45 3.91,18.27 2.96,17.83 2.13,17.09 1.23,16.29 0.63,15.3 0.29,14.15 0.03,13.29 -0.05,12.4 0.03,11.49 0.09,10.79 0.28,10.12 0.56,9.49 0.84,8.87 1.17,8.29 1.61,7.77 2.2,7.07 2.89,6.47 3.67,5.99 4.69,5.36 5.79,4.9 6.94,4.56 7.49,4.39 8.05,4.25 8.61,4.14 9.12,4.05 9.64,3.98 10.16,3.95 10.43,3.93 10.7,3.9 10.97,3.91 c 1.26,0.05 2.48,0.28 3.61,0.86 0.62,0.32 1.18,0.72 1.71,1.18 0.37,0.32 0.69,0.69 1.01,1.05 0.03,0.03 0.05,0.07 0.07,0.1 -0.02,0.11 -0.11,0.14 -0.18,0.19 -0.55,0.36 -1.11,0.72 -1.67,1.08 -0.65,0.42 -1.3,0.83 -1.94,1.25 -0.28,0.18 -0.57,0.36 -0.85,0.54 -0.04,0.03 -0.1,0.05 -0.16,0.08 -0.1,-0.1 -0.2,-0.2 -0.3,-0.3 C 11.58,9.25 10.76,8.9 9.79,8.91 8.92,8.91 8.1,9.13 7.32,9.53 7.04,9.67 6.79,9.86 6.6,10.13 c -0.21,0.3 -0.3,0.63 -0.22,0.99 0.03,0.17 0.09,0.34 0.16,0.49 0.16,0.35 0.46,0.56 0.82,0.64 0.53,0.12 1.07,0.17 1.61,0.09 0.22,-0.03 0.46,-0.01 0.68,-0.04 0.47,-0.05 0.95,-0.04 1.42,-0.1 0.17,-0.02 0.35,-0.01 0.52,-0.02 0.44,-0.02 0.89,-0.04 1.33,-0.05 0.35,-0.01 0.69,-0.02 1.04,-0.02 0.37,0 0.74,0 1.11,0.02 0.66,0.05 1.31,0.14 1.94,0.38 0.65,0.25 1.25,0.61 1.79,1.05 1,0.81 1.64,1.87 2.02,3.09 0.15,0.49 0.27,0.99 0.31,1.49 0.11,1.21 -0.09,2.37 -0.63,3.48 -0.33,0.68 -0.75,1.3 -1.25,1.86 -0.7,0.78 -1.51,1.44 -2.41,1.98 -0.35,0.21 -0.71,0.37 -1.11,0.46 -0.4,0.09 -0.8,0.2 -1.2,0.31 -0.13,0.04 -0.25,0.05 -0.38,0.02 -0.14,-0.03 -0.28,-0.04 -0.42,-0.04 -0.53,0 -1.06,-0.01 -1.59,0.05 -0.66,0.08 -1.3,0.22 -1.94,0.4 -0.61,0.18 -1.19,0.41 -1.75,0.69 -0.11,0.05 -0.21,0.1 -0.33,0.16 z"
       id="path2"
       style="fill:#000000" />
    <path
       class="cls-1"
       d="m 58.88,20.53 c -0.79,1.35 -1.57,2.69 -2.37,4.04 -1.74,-0.42 -3.46,-0.83 -5.21,-1.26 0.03,-0.07 0.05,-0.13 0.08,-0.18 0.53,-0.9 1.06,-1.79 1.6,-2.69 1.06,-1.78 2.12,-3.56 3.18,-5.34 0.76,-1.28 1.52,-2.55 2.28,-3.83 0.9,-1.52 1.8,-3.04 2.71,-4.56 0.71,-1.19 1.42,-2.39 2.13,-3.58 0.03,-0.05 0.06,-0.08 0.1,-0.13 0.09,0.02 0.17,0.03 0.26,0.05 1.28,0.31 2.55,0.61 3.83,0.92 0.92,0.22 1.83,0.44 2.75,0.66 0.05,0.01 0.1,0.04 0.15,0.06 0.01,0.12 0.03,0.24 0.03,0.36 0.02,0.4 0.04,0.8 0.07,1.2 0.03,0.4 0.07,0.8 0.1,1.2 0.01,0.14 0,0.28 0.02,0.42 0.02,0.41 0.05,0.82 0.08,1.23 0.03,0.41 0.07,0.82 0.1,1.23 0,0.1 0,0.2 0,0.29 0.03,0.46 0.05,0.93 0.09,1.39 0.05,0.64 0.1,1.27 0.13,1.91 0.02,0.4 0.07,0.8 0.1,1.2 0.01,0.15 0.01,0.3 0.02,0.46 0.02,0.4 0.04,0.8 0.07,1.2 0.03,0.4 0.07,0.8 0.1,1.2 0,0.12 0,0.24 0,0.36 0.03,0.44 0.04,0.89 0.09,1.33 0.05,0.41 0.02,0.82 0.1,1.23 0.03,0.16 0.02,0.32 0.03,0.49 0.02,0.39 0.04,0.78 0.07,1.17 0.03,0.41 0.07,0.82 0.1,1.23 0,0.11 0,0.22 0,0.33 0.03,0.44 0.05,0.89 0.09,1.33 0.03,0.4 0.07,0.8 0.1,1.2 0.01,0.14 0,0.28 0.02,0.42 0.02,0.33 0.05,0.67 0.07,1 0,0.07 -0.01,0.15 -0.02,0.22 -0.14,0.01 -0.22,-0.07 -0.31,-0.12 -0.28,-0.17 -0.55,-0.36 -0.83,-0.52 -1.1,-0.62 -2.26,-1.05 -3.5,-1.27 -0.56,-0.1 -1.14,-0.18 -1.71,-0.16 -0.08,0 -0.15,0 -0.23,0 -0.08,-0.11 -0.07,-0.23 -0.08,-0.35 0,-0.16 0.02,-0.33 0,-0.49 -0.05,-0.39 -0.02,-0.78 -0.06,-1.17 0,-0.01 0,-0.02 0,-0.03 -0.02,-0.47 -0.03,-0.93 -0.05,-1.4 0,-0.23 -0.02,-0.45 -0.03,-0.68 -0.07,-0.08 -0.17,-0.09 -0.26,-0.12 -0.81,-0.19 -1.62,-0.39 -2.43,-0.58 -1.14,-0.28 -2.28,-0.55 -3.41,-0.83 -0.04,-0.01 -0.09,-0.01 -0.16,-0.02 z m 6.2,-3.42 c 0,0 0,-0.09 0,-0.14 0,-0.1 -0.03,-0.19 -0.03,-0.29 0,-0.62 -0.01,-1.23 -0.06,-1.85 -0.03,-0.37 -0.02,-0.74 -0.03,-1.11 -0.01,-0.53 -0.03,-1.06 -0.04,-1.59 0,-0.02 0,-0.04 0,-0.06 -0.02,-0.48 -0.04,-0.95 -0.06,-1.43 -0.01,-0.31 -0.02,-0.63 -0.03,-0.94 -0.02,0 -0.03,0 -0.04,0 -0.01,0 -0.02,0 -0.03,0.01 -1.14,2.05 -2.29,4.11 -3.43,6.17 -0.06,0.1 -0.11,0.21 -0.17,0.33 0.08,0.03 0.14,0.06 0.2,0.07 1.22,0.29 2.44,0.58 3.67,0.86 0,0 0.02,0 0.05,-0.03 z"
       id="path3"
       style="fill:#000000" />
    <path
       class="cls-1"
       d="m 23.97,1.26 c 0.08,-0.01 0.14,-0.03 0.2,-0.04 0.27,-0.02 0.54,-0.04 0.81,-0.05 0.28,-0.01 0.57,0 0.85,-0.03 C 26.1,1.11 26.37,1.11 26.64,1.09 27.19,1.06 27.74,1.04 28.3,1.01 28.58,1 28.86,0.98 29.14,0.96 29.69,0.93 30.24,0.91 30.8,0.88 31.08,0.87 31.36,0.85 31.64,0.83 32.2,0.8 32.76,0.75 33.33,0.75 c 0.29,0 0.58,-0.04 0.87,-0.05 0.53,-0.03 1.06,-0.05 1.59,-0.08 0.3,-0.02 0.6,-0.04 0.91,-0.05 0.53,-0.03 1.06,-0.05 1.59,-0.08 0.29,-0.01 0.58,-0.04 0.88,-0.05 0.32,-0.02 0.65,-0.03 0.96,-0.05 0.09,0.07 0.08,0.16 0.09,0.24 0.02,0.52 0.03,1.04 0.07,1.56 0.03,0.43 0.03,0.87 0.07,1.3 0.03,0.41 0.03,0.82 0.06,1.23 0.02,0.22 0.04,0.43 0.04,0.65 0,0.04 0,0.08 -0.01,0.15 C 40.4,5.53 40.35,5.55 40.3,5.55 39.81,5.57 39.32,5.58 38.84,5.62 38.42,5.66 38,5.65 37.57,5.69 37.15,5.72 36.72,5.72 36.3,5.76 35.9,5.8 35.5,5.79 35.1,5.82 34.67,5.86 34.23,5.85 33.8,5.89 33.39,5.92 32.98,5.92 32.57,5.95 32.15,5.98 31.73,6 31.3,6.01 c -0.17,0 -0.34,0.04 -0.5,0.06 -0.02,0.03 -0.03,0.05 -0.03,0.07 0.05,0.38 0.04,0.76 0.06,1.14 0.01,0.27 0.03,0.54 0.04,0.81 0.03,0.6 0.08,1.19 0.09,1.79 0,0.04 0,0.08 0.01,0.12 0.03,0.02 0.05,0.04 0.06,0.04 0.29,-0.01 0.58,-0.03 0.87,-0.04 0.27,-0.01 0.54,-0.02 0.81,-0.04 0.36,-0.02 0.71,-0.04 1.07,-0.05 0.54,-0.03 1.08,-0.05 1.62,-0.08 0.29,-0.01 0.58,-0.04 0.87,-0.05 0.54,-0.03 1.08,-0.05 1.62,-0.08 0.16,0 0.32,-0.03 0.47,-0.04 0.03,0.03 0.05,0.04 0.05,0.06 0.02,0.28 0.04,0.56 0.06,0.84 0.03,0.32 0,0.65 0.06,0.97 0.03,0.22 0.02,0.45 0.03,0.68 0.02,0.52 0.04,1.04 0.07,1.56 0,0.17 0.03,0.34 0.04,0.52 0,0.05 0,0.11 0,0.14 -0.08,0.1 -0.16,0.11 -0.25,0.11 -0.29,0 -0.59,0.01 -0.88,0.02 -0.29,0.01 -0.58,0.04 -0.87,0.05 -0.54,0.03 -1.08,0.05 -1.62,0.08 -0.29,0.01 -0.58,0.04 -0.88,0.05 -0.55,0.03 -1.1,0.05 -1.66,0.08 -0.41,0.02 -0.82,0.05 -1.23,0.08 -0.02,0 -0.04,0.02 -0.07,0.04 0,0.08 0.02,0.18 0.03,0.27 0.01,0.23 0.01,0.46 0.02,0.68 0.02,0.36 0.04,0.71 0.06,1.07 0.03,0.53 0.05,1.06 0.07,1.59 0.02,0.3 0.04,0.6 0.05,0.91 0.03,0.54 0.05,1.08 0.08,1.62 0.01,0.29 0.04,0.58 0.05,0.88 0.03,0.47 0.05,0.93 0.07,1.4 0,0.03 -0.02,0.06 -0.03,0.11 -0.14,0 -0.28,0.02 -0.42,0.02 -0.52,0.03 -1.04,0.05 -1.56,0.08 -0.29,0.02 -0.58,0.04 -0.87,0.05 -0.53,0.03 -1.06,0.04 -1.59,0.08 -0.29,0.02 -0.58,0.04 -0.88,0.05 -0.26,0.01 -0.52,0.04 -0.78,0.06 -0.12,0 -0.24,0 -0.37,0 -0.01,-0.08 -0.03,-0.14 -0.03,-0.2 C 25.08,23.1 25.05,22.59 25.03,22.09 25,21.56 24.99,21.03 24.96,20.5 24.95,20.21 24.92,19.92 24.91,19.63 24.88,19.1 24.86,18.57 24.83,18.04 24.81,17.74 24.79,17.43 24.78,17.13 24.75,16.59 24.73,16.05 24.7,15.51 24.69,15.23 24.67,14.95 24.65,14.67 24.62,14.12 24.6,13.57 24.57,13.01 24.55,12.72 24.53,12.43 24.52,12.13 24.49,11.59 24.47,11.05 24.44,10.51 24.42,10.21 24.4,9.91 24.38,9.6 24.35,9.07 24.33,8.54 24.3,8.01 24.28,7.71 24.26,7.41 24.25,7.1 24.22,6.57 24.2,6.04 24.17,5.51 24.15,5.21 24.13,4.9 24.12,4.6 24.09,4.06 24.07,3.52 24.04,2.98 24.02,2.69 24,2.4 23.99,2.11 c 0,-0.14 0,-0.28 -0.01,-0.42 0,-0.13 -0.02,-0.25 -0.04,-0.39 z"
       id="path4"
       style="fill:#000000" />
    <path
       class="cls-1"
       d="M 48.98,23.73 C 48.85,23.72 48.72,23.7 48.59,23.69 48.18,23.66 47.77,23.64 47.36,23.6 46.78,23.54 46.2,23.5 45.61,23.47 c -0.4,-0.02 -0.8,-0.07 -1.2,-0.1 -0.11,0 -0.22,0 -0.33,-0.01 -0.39,-0.03 -0.78,-0.05 -1.17,-0.08 -0.09,0 -0.17,-0.02 -0.24,-0.08 0,-0.17 0,-0.35 0,-0.52 0.01,-0.25 0.04,-0.5 0.06,-0.74 0.03,-0.37 0.07,-0.73 0.1,-1.1 0.01,-0.14 0.02,-0.28 0.03,-0.42 0.02,-0.37 0.03,-0.74 0.07,-1.1 0.05,-0.57 0.09,-1.14 0.13,-1.72 0.04,-0.57 0.1,-1.14 0.13,-1.72 0.02,-0.45 0.08,-0.91 0.11,-1.36 0.03,-0.39 0.05,-0.78 0.08,-1.17 0.04,-0.46 0.08,-0.93 0.12,-1.39 0.03,-0.4 0.05,-0.8 0.08,-1.2 0.04,-0.46 0.08,-0.93 0.12,-1.39 0.03,-0.37 0.05,-0.73 0.08,-1.1 0.04,-0.56 0.09,-1.12 0.14,-1.68 0,0 0.01,-0.02 0.03,-0.04 0.17,0.01 0.35,0.02 0.53,0.04 0.39,0.03 0.78,0.05 1.17,0.08 0.46,0.04 0.93,0.08 1.39,0.12 0.39,0.03 0.78,0.05 1.17,0.08 0.37,0.03 0.73,0.07 1.1,0.1 0.18,0.02 0.37,0.02 0.55,0.03 0.14,0 0.27,0.04 0.42,0.07 0,0.07 0.01,0.14 0,0.2 -0.04,0.58 -0.08,1.17 -0.13,1.75 -0.04,0.45 -0.08,0.91 -0.11,1.36 -0.03,0.39 -0.05,0.78 -0.08,1.17 -0.04,0.47 -0.08,0.95 -0.12,1.42 -0.03,0.39 -0.05,0.78 -0.08,1.17 -0.03,0.45 -0.08,0.91 -0.11,1.36 -0.03,0.39 -0.05,0.78 -0.08,1.17 -0.04,0.47 -0.08,0.95 -0.12,1.42 -0.03,0.38 -0.05,0.76 -0.08,1.13 -0.03,0.37 -0.07,0.73 -0.1,1.1 0,0.06 0,0.13 0,0.2 -0.03,0.43 -0.05,0.86 -0.09,1.3 -0.03,0.45 -0.08,0.91 -0.12,1.36 0,0.1 -0.01,0.2 -0.01,0.29 0,0.1 -0.03,0.19 -0.08,0.29 z"
       id="path5"
       style="fill:#000000" />
    <path
       class="cls-1"
       d="m 44.05,4.96 c 0,-0.09 0,-0.15 0,-0.2 0.02,-0.17 0.04,-0.34 0.05,-0.52 0.03,-0.38 0.05,-0.76 0.08,-1.13 0.04,-0.47 0.08,-0.95 0.12,-1.42 0.03,-0.39 0.05,-0.78 0.08,-1.17 0.01,-0.16 0.04,-0.32 0.06,-0.5 0.07,0 0.14,-0.03 0.21,-0.02 0.27,0.05 0.54,0.04 0.81,0.06 0.37,0.03 0.73,0.07 1.1,0.1 0.09,0 0.17,0 0.26,0 0.41,0.03 0.82,0.05 1.23,0.09 0.57,0.06 1.14,0.09 1.71,0.13 0.3,0.02 0.6,0.05 0.91,0.06 0.04,0 0.08,0.03 0.13,0.05 -0.12,1.62 -0.23,3.24 -0.37,4.85 0,0.03 -0.02,0.06 -0.04,0.1 -0.36,-0.03 -0.71,-0.07 -1.06,-0.1 -0.1,0 -0.2,0 -0.29,0 C 48.64,5.31 48.24,5.29 47.84,5.26 47.38,5.22 46.91,5.18 46.45,5.14 46.06,5.11 45.67,5.09 45.28,5.06 44.88,5.03 44.48,4.99 44.05,4.95 Z"
       id="path6"
       style="fill:#000000" />
    <g
       class="cls-3"
       id="g7"
       style="fill:#000000">
      <path
         class="cls-1"
         d="m 63.65,110.59 c -16.2,0 -32.39,0 -48.59,0 -0.1,0 -0.2,0 -0.29,0 -0.06,0 -0.12,0.01 -0.2,0.02 0,0.07 -0.01,0.12 -0.01,0.17 0,1.24 0,2.48 0,3.72 0,0.06 -0.01,0.13 0.07,0.19 0.09,0 0.19,0 0.3,0 2.33,0 4.65,0 6.98,0 h 27.95 c 2.33,0 4.65,0 6.98,0 2.32,-0.01 4.65,0.05 6.97,-0.04 0.11,0 0.21,-0.01 0.32,-0.02 0.03,-0.09 0.03,-0.17 0.03,-0.24 0.03,-1.85 0.01,-3.47 -0.04,-3.82 -0.17,0 -0.32,0 -0.47,0 z m -43.27,-4.43 c -0.06,0 -0.12,0.01 -0.18,0.02 -0.04,0.27 -0.05,3.74 0,4.07 0.31,0.04 37.28,0.06 38.2,0.03 0.04,0 0.08,-0.01 0.14,-0.02 0,-0.07 0.02,-0.13 0.02,-0.2 0,-0.22 0,-0.43 0,-0.65 0,-0.98 0,-1.96 0,-2.93 0,-0.09 0.03,-0.2 -0.06,-0.28 -0.3,0 -0.62,-0.03 -0.93,-0.03 -12.3,0 -24.61,0 -36.91,0 -0.09,0 -0.17,0 -0.26,0 z M 48.79,39.83 c 0.3,0.04 1.43,0.03 1.73,-0.01 v -0.37 c 0,-1.88 0,-3.76 0,-5.64 0,-0.23 0,-0.46 0,-0.68 0,-0.06 -0.02,-0.12 -0.03,-0.18 -0.8,0.11 -0.66,0.14 -1.69,0 -0.07,0.08 -0.04,0.19 -0.04,0.28 0,0.72 0,1.43 0,2.15 0,1.37 0,2.74 0,4.11 0,0.12 -0.03,0.24 0.04,0.34 z M 37.71,31.58 c 0.51,0.29 1.08,0.42 1.65,0.41 0.62,0 1.22,-0.16 1.76,-0.49 0.51,-0.31 0.93,-0.71 1.23,-1.23 0.32,-0.55 0.49,-1.13 0.47,-1.75 0.05,-1.76 -1.39,-3.49 -3.47,-3.49 -2.02,0 -3.5,1.67 -3.48,3.47 0,0.62 0.15,1.2 0.46,1.74 0.33,0.58 0.8,1.02 1.38,1.35 z m 9.68,0.31 c 1,0.82 2.12,1.04 3.35,0.65 1.59,-0.5 2.67,-2.2 2.31,-3.95 -0.23,-1.13 -0.86,-1.95 -1.88,-2.47 -0.62,-0.32 -1.29,-0.42 -1.99,-0.33 -1.02,0.14 -1.81,0.63 -2.4,1.46 -0.42,0.59 -0.64,1.25 -0.62,1.98 0.01,0.19 0,0.39 0.04,0.58 0.15,0.83 0.53,1.53 1.18,2.07 z m 6.48,73.91 c -0.05,-0.08 -0.1,-0.17 -0.16,-0.24 -0.48,-0.7 -0.92,-1.42 -1.29,-2.19 -0.28,-0.58 -0.53,-1.16 -0.74,-1.77 -0.05,-0.15 -0.13,-0.23 -0.28,-0.29 -0.62,-0.24 -1.23,-0.48 -1.85,-0.72 -0.07,-0.03 -0.14,-0.04 -0.21,-0.06 -0.04,0.93 1.36,4.38 2.13,5.3 0.77,0 1.54,0 2.31,0 0.02,0 0.04,-0.01 0.07,-0.03 z M 28.92,32.73 c 2.04,0.1 3.65,-1.53 3.66,-3.46 0,-1.91 -1.48,-3.45 -3.39,-3.51 -0.92,-0.03 -1.74,0.28 -2.43,0.91 -0.75,0.69 -1.15,1.55 -1.14,2.57 0,1.99 1.57,3.4 3.3,3.48 z m 48.92,45.82 c -0.05,-0.6 -0.12,-1.21 -0.22,-1.81 -0.18,-1.12 -0.48,-2.2 -0.85,-3.27 -0.54,-1.54 -1.21,-3.02 -1.93,-4.48 -0.3,-0.6 -0.62,-1.19 -0.93,-1.79 -0.03,-0.06 -0.05,-0.14 -0.08,-0.21 0.32,-0.39 0.63,-0.78 0.95,-1.17 0.31,-0.38 0.64,-0.74 0.94,-1.12 0.31,-0.39 0.65,-0.75 0.96,-1.18 -1.8,-0.39 -3.57,-0.73 -5.33,-1.13 -0.03,-0.05 -0.06,-0.08 -0.08,-0.12 -0.33,-0.65 -0.67,-1.29 -1,-1.94 -0.5,-0.98 -0.99,-1.96 -1.43,-2.96 -0.38,-0.86 -0.76,-1.73 -1.12,-2.6 -0.43,-1.08 -0.84,-2.16 -1.16,-3.28 -0.22,-0.76 -0.45,-1.52 -0.65,-2.28 -0.23,-0.88 -0.42,-1.77 -0.57,-2.67 -0.14,-0.82 -0.28,-1.64 -0.35,-2.48 -0.02,-0.24 -0.05,-0.47 -0.07,-0.71 -0.04,-0.4 -0.07,-0.8 -0.1,-1.2 -0.02,-0.27 0,-0.55 -0.03,-0.81 -0.04,-0.27 -0.03,-0.54 -0.03,-0.81 0,-0.05 0.02,-0.1 0.03,-0.16 0.1,0.03 0.19,0.06 0.27,0.08 0.94,0.28 1.88,0.38 2.86,0.25 0.69,-0.09 1.36,-0.26 2.01,-0.53 0.85,-0.35 1.62,-0.84 2.29,-1.46 0.61,-0.57 1.08,-1.25 1.44,-2 0.4,-0.82 0.64,-1.68 0.73,-2.59 0.05,-0.53 0.04,-1.06 -0.05,-1.59 -0.11,-0.7 -0.34,-1.37 -0.7,-1.98 -0.38,-0.65 -0.9,-1.19 -1.48,-1.67 -0.99,-0.82 -2.1,-1.41 -3.32,-1.83 -0.66,-0.23 -1.33,-0.38 -2.02,-0.48 -0.43,-0.06 -0.86,-0.07 -1.29,-0.1 -0.16,-0.01 -0.32,0.04 -0.48,0.04 -0.7,0 -1.38,0.15 -2.04,0.37 -1.25,0.43 -2.4,1.07 -3.45,1.88 -0.66,0.51 -1.28,1.07 -1.84,1.7 -0.42,0.47 -0.81,0.96 -1.17,1.48 -0.47,0.68 -0.87,1.4 -1.21,2.15 -0.34,0.77 -0.61,1.55 -0.77,2.38 -0.13,0.69 -0.22,1.39 -0.27,2.09 -0.02,0.3 -0.05,0.61 -0.04,0.91 0.01,0.97 -0.03,1.93 0.03,2.9 0.04,0.56 0.06,1.13 0.09,1.69 0,0.13 0,0.26 0.01,0.39 0.03,0.36 0.07,0.71 0.1,1.07 0.04,0.43 0.08,0.86 0.13,1.29 0.09,0.87 0.2,1.74 0.34,2.61 0.12,0.72 0.23,1.43 0.37,2.15 0.13,0.69 0.28,1.38 0.42,2.07 0.22,1.03 0.48,2.05 0.76,3.06 0.24,0.87 0.5,1.73 0.79,2.58 0.02,0.05 0.07,0.11 0.02,0.17 -0.03,0 -0.05,0 -0.07,0 -0.54,-0.11 -1.08,-0.21 -1.63,-0.32 -0.95,-0.19 -1.89,-0.39 -2.83,-0.59 -0.09,-0.02 -0.18,-0.05 -0.27,-0.08 -0.5,-0.87 -1,-1.72 -1.49,-2.58 -0.31,-0.54 -0.6,-1.08 -0.91,-1.62 -0.2,-0.35 -0.4,-0.7 -0.6,-1.04 -0.02,-0.04 -0.05,-0.08 0,-0.12 0.1,0 0.15,0.07 0.19,0.15 0.22,0.4 0.45,0.79 0.68,1.19 0.03,0.04 0.04,0.1 0.13,0.07 0,-0.17 0.02,-0.34 0.02,-0.52 0,-4.01 0,-8.02 0,-12.03 0,-0.09 0,-0.17 0,-0.26 0,-0.05 -0.02,-0.1 -0.03,-0.14 -0.04,-0.01 -0.06,-0.02 -0.08,-0.02 -0.51,0 -1.02,0 -1.53,0 -0.04,0 -0.08,0.02 -0.13,0.04 v 0.27 c 0,2.93 0,5.87 0,8.8 0,0.11 0.01,0.22 0.03,0.32 0.02,0.18 0.02,0.7 -0.02,0.93 -0.03,-0.04 -0.06,-0.07 -0.08,-0.11 -0.16,-0.27 -0.33,-0.54 -0.48,-0.81 -0.49,-0.84 -0.98,-1.69 -1.47,-2.54 -1.02,-1.77 -2.04,-3.54 -3.05,-5.3 -0.31,-0.54 -0.62,-1.07 -0.92,-1.61 -0.05,-0.09 -0.13,-0.17 -0.11,-0.31 0.19,0 0.39,-0.02 0.58,0 0.17,0.02 0.35,0.03 0.52,0.03 3.12,0 6.24,0 9.36,0 0.09,0 0.17,0 0.26,0 0.06,0 0.12,-0.03 0.2,-0.04 0,-0.19 0,-0.36 0,-0.53 0,-0.17 0.03,-0.34 -0.04,-0.54 -0.96,0 -1.91,0 -2.86,0 H 42 c -0.14,-0.23 -0.29,-0.47 -0.43,-0.71 -0.63,-1.11 -1.27,-2.23 -1.9,-3.34 -0.06,-0.11 -0.13,-0.22 -0.19,-0.34 -0.03,-0.06 -0.09,-0.09 -0.15,-0.1 -0.02,-0.07 0,-0.12 0.09,-0.12 0.1,0.08 0.19,0.17 0.25,0.29 0.12,0.23 0.26,0.45 0.39,0.68 0.02,0.04 0.03,0.1 0.13,0.08 v -0.22 c 0,-1.28 0,-2.56 0,-3.85 0,-0.05 0,-0.11 0,-0.16 0,-0.05 -0.03,-0.09 -0.05,-0.14 -0.51,0.11 -1.01,0.08 -1.5,0 -0.07,0.13 -0.04,0.25 -0.04,0.36 0,1.3 0,2.61 0,3.91 0,0.11 0,0.22 0.01,0.33 0.01,0.11 -0.01,0.21 -0.07,0.31 -0.5,0.88 -1,1.75 -1.5,2.63 -0.08,0.14 -0.17,0.27 -0.27,0.42 -0.1,0 -0.2,0 -0.3,0 -0.42,0 -0.85,-0.02 -1.27,-0.02 -3.17,0 -6.34,0 -9.52,0 -0.09,0 -0.17,0 -0.26,0 -0.06,0 -0.12,0.02 -0.2,0.04 0.01,0.36 -0.02,0.7 0.02,1.04 0.11,0.07 0.23,0.04 0.33,0.04 3.17,0 6.34,0 9.52,0 0.12,0 0.24,-0.02 0.35,-0.03 0.22,-0.02 0.45,-0.02 0.7,0 -0.09,0.2 -0.18,0.37 -0.27,0.54 -0.91,1.58 -1.82,3.16 -2.73,4.74 -0.98,1.7 -1.96,3.4 -2.95,5.1 -0.35,0.6 -0.7,1.2 -1.05,1.8 -0.05,0.09 -0.08,0.19 -0.18,0.24 0,-0.03 0,-0.06 0,-0.08 0.08,-0.25 0.15,-0.5 0.29,-0.72 0.23,-0.37 0.44,-0.75 0.66,-1.12 0.05,-0.08 0.09,-0.17 0.09,-0.27 0,-0.23 0.02,-0.46 0.02,-0.68 0,-2.93 0,-5.87 0,-8.8 0,-0.08 0,-0.15 0,-0.23 0,-0.06 -0.02,-0.12 -0.03,-0.17 -0.48,-0.04 -1.47,-0.03 -1.72,0.02 0,0.1 -0.01,0.21 -0.01,0.31 0,3.93 0,7.87 0,11.8 0,0.08 -0.01,0.16 0,0.23 0.06,0.27 0.03,0.54 0.04,0.81 0,0.11 -0.02,0.21 -0.08,0.31 -0.19,0.33 -0.37,0.66 -0.56,0.99 -0.43,0.75 -0.87,1.5 -1.3,2.25 -0.04,0.06 -0.08,0.13 -0.11,0.18 -0.09,0.02 -0.16,0.05 -0.23,0.06 -0.83,0.17 -1.66,0.34 -2.48,0.52 -0.52,0.11 -1.04,0.22 -1.56,0.32 -0.07,0.02 -0.15,0.03 -0.23,0.03 -0.08,0 -0.16,0.08 -0.26,0 0.03,-0.09 0.06,-0.18 0.09,-0.27 0.44,-1.26 0.79,-2.55 1.11,-3.84 0.29,-1.16 0.55,-2.32 0.77,-3.49 0.16,-0.87 0.32,-1.75 0.45,-2.63 0.07,-0.48 0.14,-0.97 0.2,-1.45 0.08,-0.68 0.17,-1.35 0.23,-2.03 0.06,-0.55 0.1,-1.1 0.13,-1.65 0.03,-0.5 0.05,-1 0.07,-1.49 0,-0.04 0,-0.09 0,-0.13 0.05,-0.42 0.02,-0.84 0.05,-1.27 0.06,-0.75 -0.03,-1.5 -0.04,-2.24 0,-0.01 0,-0.02 0,-0.03 -0.04,-0.46 -0.08,-0.93 -0.13,-1.39 -0.06,-0.56 -0.16,-1.11 -0.31,-1.66 -0.36,-1.32 -0.94,-2.54 -1.69,-3.68 -0.68,-1.03 -1.48,-1.95 -2.41,-2.77 -1.23,-1.09 -2.62,-1.93 -4.17,-2.48 -0.66,-0.23 -1.34,-0.36 -2.04,-0.38 -0.08,0 -0.15,-0.02 -0.23,-0.02 -0.19,0 -0.39,0 -0.58,0 -0.06,0 -0.13,0.02 -0.19,0.02 -0.5,0 -0.99,0.08 -1.48,0.18 -1.12,0.23 -2.19,0.63 -3.19,1.19 -0.86,0.49 -1.65,1.07 -2.32,1.82 -0.79,0.88 -1.23,1.91 -1.35,3.07 -0.03,0.32 -0.02,0.65 -0.03,0.98 -0.01,0.38 0.05,0.76 0.12,1.13 0.15,0.74 0.4,1.44 0.76,2.11 0.41,0.77 0.93,1.44 1.6,1.99 0.98,0.8 2.09,1.34 3.34,1.62 0.72,0.16 1.44,0.21 2.17,0.14 0.47,-0.04 0.94,-0.15 1.4,-0.3 0.07,-0.02 0.13,-0.08 0.23,-0.02 0,0.05 0,0.12 0,0.18 0,0.55 -0.01,1.1 -0.06,1.66 -0.04,0.54 -0.09,1.08 -0.13,1.62 -0.07,0.73 -0.17,1.46 -0.29,2.19 -0.21,1.26 -0.48,2.51 -0.81,3.75 -0.42,1.57 -0.94,3.12 -1.52,4.63 -0.68,1.76 -1.48,3.47 -2.31,5.17 C 8.7,60.12 8.46,60.58 8.22,61.04 8.01,61.45 7.81,61.85 7.6,62.26 7.57,62.32 7.53,62.37 7.5,62.42 7.13,62.5 6.77,62.58 6.41,62.66 6.06,62.74 5.71,62.81 5.36,62.89 5,62.97 4.64,63.04 4.28,63.11 c -0.35,0.07 -0.7,0.14 -1.05,0.22 -0.36,0.08 -0.72,0.13 -1.1,0.25 0.96,1.19 1.95,2.33 2.88,3.5 C 4.85,67.4 4.69,67.69 4.53,67.99 3.99,68.98 3.51,70 3.05,71.03 2.7,71.8 2.39,72.59 2.1,73.38 c -0.38,1.06 -0.68,2.15 -0.87,3.26 -0.16,0.93 -0.26,1.87 -0.28,2.81 -0.02,1 0,1.99 0.12,2.99 0.11,0.92 0.27,1.82 0.48,2.72 0.22,0.92 0.51,1.82 0.87,2.69 0.41,1.01 0.9,1.97 1.49,2.89 0.49,0.77 1.04,1.5 1.67,2.16 0.53,0.56 1.08,1.1 1.69,1.57 0.92,0.72 1.92,1.3 3.01,1.72 1.43,0.55 2.92,0.8 4.45,0.82 0.83,0.01 1.65,-0.03 2.46,-0.16 0.22,-0.03 0.45,-0.03 0.68,-0.15 0.03,-0.21 0.07,-0.42 0.1,-0.64 0.05,-0.39 0.09,-0.77 0.12,-1.16 0,-0.07 0,-0.14 -0.01,-0.22 -0.32,0.04 -0.62,0.07 -0.92,0.12 -0.52,0.08 -1.05,0.13 -1.58,0.15 -0.63,0.03 -1.26,0.02 -1.89,-0.06 -0.38,-0.05 -0.75,-0.11 -1.12,-0.18 -0.92,-0.18 -1.8,-0.5 -2.62,-0.94 C 8.71,93.1 7.66,92.2 6.76,91.13 5.92,90.14 5.24,89.05 4.68,87.87 4.27,86.99 3.93,86.09 3.67,85.16 3.45,84.34 3.28,83.52 3.16,82.68 3.08,82.11 3.03,81.54 3,80.97 2.97,80.4 3,79.82 3,79.24 3,79.2 3,79.15 3,79.11 c 0.03,-0.34 0.07,-0.69 0.1,-1.03 0.04,-0.51 0.13,-1.01 0.23,-1.51 0.2,-1 0.5,-1.98 0.86,-2.93 0.47,-1.24 1.01,-2.44 1.6,-3.63 0.14,-0.29 0.28,-0.59 0.43,-0.88 0.06,-0.12 0.12,-0.23 0.18,-0.36 0.05,0.05 0.1,0.08 0.13,0.12 0.36,0.43 0.73,0.86 1.09,1.29 0.97,1.16 1.93,2.32 2.89,3.48 0.55,0.66 1.09,1.32 1.63,1.98 0.06,0.07 0.11,0.16 0.15,0.22 -0.17,0.69 -0.27,1.36 -0.31,2.05 -0.02,0.43 -0.02,0.87 -0.02,1.3 0,0.36 0.02,0.71 0.06,1.07 0.09,0.69 0.23,1.36 0.46,2.03 0.53,1.55 1.4,2.88 2.62,3.98 0.96,0.86 2.07,1.42 3.33,1.68 0.12,0.02 0.23,0.05 0.36,0.02 0.07,-0.22 0.07,-0.46 0.13,-0.69 0.02,0.06 0.04,0.12 0.03,0.19 -0.03,0.27 -0.07,0.54 -0.07,0.81 0,0.12 0,0.24 -0.01,0.36 -0.06,0.56 -0.11,1.12 -0.17,1.68 -0.06,0.57 -0.13,1.14 -0.19,1.71 -0.05,0.52 -0.1,1.03 -0.15,1.55 -0.02,0.2 -0.03,0.41 -0.07,0.61 -0.12,0.72 -0.16,1.44 -0.24,2.16 -0.06,0.56 -0.1,1.12 -0.15,1.68 -0.06,0.64 -0.13,1.27 -0.19,1.91 -0.07,0.65 -0.13,1.29 -0.2,1.94 -0.06,0.55 -0.12,1.1 -0.18,1.65 -0.05,0.45 -0.09,0.9 -0.13,1.36 0,0.07 0,0.15 0,0.24 0.09,-0.03 0.16,-0.05 0.23,-0.08 0.27,-0.11 0.54,-0.22 0.82,-0.32 1.68,-0.66 3.35,-1.31 5.03,-1.96 1.28,-0.5 2.57,-1 3.85,-1.5 0.04,-0.01 0.08,-0.05 0.12,0.01 -0.21,0.63 -0.46,1.26 -0.75,1.86 -0.43,0.9 -0.92,1.77 -1.51,2.58 -0.02,0.03 -0.03,0.07 -0.04,0.12 0.06,0 0.1,0.02 0.14,0.02 0.71,0 1.41,0 2.12,0 0.05,0 0.1,-0.02 0.16,-0.03 1.05,-1.72 1.81,-3.54 2.19,-5.52 0.25,-0.1 0.5,-0.21 0.75,-0.31 1.64,-0.64 3.27,-1.28 4.91,-1.92 1.14,-0.45 2.28,-0.9 3.42,-1.35 0.2,-0.08 0.41,-0.15 0.61,-0.24 0.12,-0.05 0.23,-0.06 0.35,0 0.04,0.02 0.08,0.03 0.12,0.05 1.04,0.41 2.08,0.81 3.12,1.22 1.37,0.54 2.75,1.07 4.12,1.62 0.86,0.34 1.71,0.7 2.56,1.03 1.02,0.4 2.05,0.78 3.07,1.18 1.6,0.62 3.2,1.24 4.79,1.86 1.33,0.52 2.67,1.05 4,1.57 0.09,0.03 0.18,0.06 0.27,0.08 0.05,-0.22 -0.02,-0.41 -0.03,-0.6 -0.03,-0.36 -0.06,-0.71 -0.09,-1.07 -0.05,-0.52 -0.11,-1.03 -0.17,-1.55 -0.03,-0.33 -0.06,-0.67 -0.09,-1 -0.06,-0.57 -0.13,-1.14 -0.19,-1.71 -0.03,-0.28 -0.04,-0.56 -0.07,-0.84 -0.05,-0.56 -0.12,-1.12 -0.17,-1.68 -0.03,-0.37 -0.06,-0.73 -0.09,-1.1 -0.02,-0.24 -0.04,-0.47 -0.07,-0.71 -0.05,-0.43 -0.11,-0.86 -0.16,-1.29 -0.07,-0.6 -0.13,-1.21 -0.19,-1.81 -0.07,-0.65 -0.13,-1.29 -0.2,-1.94 -0.05,-0.54 -0.1,-1.08 -0.14,-1.62 -0.01,-0.12 0,-0.24 -0.02,-0.36 -0.05,-0.49 -0.11,-0.99 -0.17,-1.48 -0.06,-0.55 -0.13,-1.1 -0.19,-1.64 -0.02,-0.16 -0.02,-0.32 -0.03,-0.5 1.75,-2.09 3.48,-4.21 5.25,-6.29 0.07,0.12 0.09,0.23 0.09,0.35 0.01,0.68 0,1.37 -0.11,2.04 -0.15,0.98 -0.46,1.9 -0.96,2.75 -0.37,0.63 -0.83,1.19 -1.4,1.66 -0.64,0.54 -1.38,0.9 -2.18,1.13 -0.13,0.04 -0.26,0.08 -0.36,0.11 -0.13,0.19 0,0.32 0,0.47 0.05,0.43 0.09,0.86 0.13,1.29 0,0.1 0.01,0.19 0.1,0.28 0.06,0 0.12,0 0.18,-0.01 0.77,-0.14 1.51,-0.4 2.19,-0.79 0.93,-0.53 1.7,-1.23 2.36,-2.06 0.8,-1.01 1.37,-2.13 1.71,-3.37 0.25,-0.91 0.36,-1.85 0.37,-2.8 0,-0.41 -0.02,-0.82 -0.06,-1.23 -0.05,-0.56 -0.13,-1.12 -0.25,-1.67 -0.02,-0.09 -0.03,-0.19 -0.04,-0.28 0.06,-0.08 0.12,-0.15 0.17,-0.22 0.27,-0.34 0.55,-0.67 0.82,-1.01 0.81,-0.98 1.62,-1.95 2.43,-2.93 0.77,-0.92 1.55,-1.85 2.32,-2.77 0.03,-0.04 0.05,-0.09 0.14,-0.08 0.04,0.07 0.08,0.14 0.12,0.22 0.22,0.46 0.44,0.92 0.67,1.38 0.48,0.95 0.9,1.93 1.29,2.92 0.31,0.78 0.58,1.57 0.79,2.38 0.23,0.88 0.39,1.78 0.46,2.69 0.06,0.67 0.11,1.34 0.1,2.01 0,0.17 -0.04,0.34 -0.04,0.52 0,0.34 -0.03,0.67 -0.06,1.01 -0.04,0.43 -0.09,0.86 -0.16,1.29 -0.16,0.99 -0.4,1.95 -0.72,2.9 -0.39,1.15 -0.9,2.26 -1.53,3.3 -0.84,1.38 -1.88,2.57 -3.16,3.56 -0.8,0.61 -1.67,1.09 -2.63,1.41 -0.58,0.2 -1.16,0.35 -1.76,0.45 -0.47,0.08 -0.95,0.13 -1.42,0.15 -0.6,0.03 -1.19,0.02 -1.79,-0.05 -0.46,-0.05 -0.92,-0.12 -1.39,-0.17 -0.15,-0.02 -0.3,-0.05 -0.46,-0.04 0,0.07 -0.02,0.12 -0.01,0.17 0.05,0.56 0.1,1.12 0.16,1.68 0,0.06 0.04,0.12 0.06,0.18 0.41,0.1 0.82,0.15 1.23,0.19 0.37,0.04 0.73,0.08 1.1,0.08 0.54,0 1.09,0.01 1.63,-0.02 0.45,-0.03 0.9,-0.1 1.35,-0.17 0.73,-0.11 1.44,-0.31 2.14,-0.56 1.62,-0.6 3.03,-1.55 4.27,-2.74 0.46,-0.44 0.89,-0.93 1.28,-1.43 0.9,-1.13 1.64,-2.37 2.23,-3.7 0.62,-1.4 1.06,-2.86 1.35,-4.37 0.19,-0.99 0.3,-1.99 0.35,-3 0.04,-0.81 0.02,-1.63 -0.04,-2.44 z M 57.02,49.43 C 56.89,48.59 56.76,47.74 56.66,46.89 56.59,46.32 56.55,45.75 56.5,45.18 56.46,44.79 56.43,44.4 56.4,44.02 56.39,43.89 56.39,43.76 56.38,43.63 56.36,43.02 56.35,42.42 56.3,41.81 c -0.03,-0.43 -0.04,-0.87 -0.04,-1.3 0,-0.74 0.04,-1.47 0.1,-2.21 0.04,-0.52 0.12,-1.03 0.22,-1.54 0.13,-0.62 0.35,-1.21 0.6,-1.79 0.5,-1.13 1.17,-2.15 1.99,-3.07 0.83,-0.94 1.8,-1.73 2.9,-2.34 0.61,-0.34 1.23,-0.64 1.91,-0.81 0.42,-0.11 0.85,-0.17 1.28,-0.18 0.78,-0.02 1.54,0.07 2.29,0.27 1.23,0.33 2.36,0.88 3.33,1.71 0.35,0.3 0.7,0.62 0.93,1.04 0.25,0.44 0.4,0.9 0.47,1.41 0.12,0.89 -0.05,1.73 -0.37,2.55 -0.23,0.58 -0.56,1.11 -0.99,1.56 -0.36,0.38 -0.78,0.69 -1.25,0.93 -0.58,0.31 -1.19,0.54 -1.84,0.64 -1.29,0.2 -2.48,-0.04 -3.52,-0.87 -0.46,-0.36 -0.92,-0.73 -1.38,-1.09 -0.05,-0.04 -0.11,-0.06 -0.18,-0.1 -0.01,0.09 -0.03,0.15 -0.03,0.21 -0.02,0.63 -0.03,1.26 -0.04,1.89 -0.01,0.55 -0.02,1.11 -0.02,1.66 0,0.42 0,0.85 0.02,1.27 0.03,0.65 0.08,1.3 0.13,1.94 0.05,0.57 0.11,1.14 0.2,1.71 0.1,0.71 0.22,1.41 0.35,2.12 0.23,1.28 0.54,2.54 0.9,3.8 0.3,1.04 0.64,2.07 1.02,3.09 0.34,0.91 0.69,1.82 1.09,2.72 0.33,0.73 0.66,1.46 1,2.19 0.24,0.51 0.49,1.02 0.74,1.52 0.16,0.31 0.32,0.61 0.49,0.92 0.03,0.06 0.05,0.11 0.08,0.19 -0.08,0 -0.15,0.01 -0.21,0 C 67.92,61.74 67.36,61.63 66.81,61.52 65.8,61.31 64.79,61.1 63.79,60.89 62.6,60.64 61.41,60.4 60.22,60.15 60.02,60.11 59.82,60.05 59.61,60 59.58,59.92 59.55,59.84 59.52,59.75 59.04,58.32 58.6,56.88 58.22,55.42 57.92,54.27 57.65,53.1 57.42,51.93 57.26,51.11 57.12,50.29 56.99,49.47 Z M 39.28,35.68 c 0,0 0,0.09 -0.06,0.11 0,-0.05 -0.01,-0.1 0.06,-0.11 z M 10.1,61.66 c 0.14,-0.28 0.29,-0.56 0.43,-0.84 0.31,-0.63 0.63,-1.26 0.94,-1.9 0.3,-0.64 0.6,-1.28 0.88,-1.92 0.49,-1.11 0.93,-2.24 1.33,-3.39 0.51,-1.44 0.94,-2.91 1.29,-4.4 0.24,-0.99 0.44,-1.99 0.59,-3 0.1,-0.67 0.2,-1.35 0.27,-2.03 0.05,-0.48 0.09,-0.97 0.13,-1.46 0.04,-0.45 0.03,-0.91 0.07,-1.36 0.07,-0.89 0.01,-1.78 0.04,-2.67 -0.08,-0.45 -0.02,-0.91 -0.06,-1.36 -0.02,-0.19 0,-0.39 0,-0.59 0,-0.05 -0.01,-0.1 -0.02,-0.18 -0.1,0.07 -0.17,0.11 -0.23,0.16 -0.43,0.34 -0.85,0.67 -1.27,1.01 -0.57,0.45 -1.21,0.77 -1.93,0.89 -0.42,0.07 -0.83,0.14 -1.26,0.05 C 10.54,38.63 9.83,38.4 9.16,38.05 7.98,37.44 7.17,36.5 6.73,35.24 6.49,34.53 6.37,33.81 6.45,33.06 6.54,32.22 6.86,31.5 7.46,30.9 c 0.57,-0.56 1.22,-1.01 1.92,-1.38 0.72,-0.37 1.47,-0.64 2.26,-0.81 0.75,-0.17 1.5,-0.21 2.26,-0.14 0.65,0.06 1.27,0.25 1.87,0.52 1.08,0.48 2.05,1.12 2.93,1.91 0.95,0.86 1.74,1.85 2.37,2.96 0.45,0.8 0.82,1.63 1.04,2.52 0.11,0.44 0.18,0.89 0.24,1.34 0.11,0.84 0.14,1.69 0.13,2.53 0,0.67 0.01,1.35 -0.03,2.02 -0.03,0.5 -0.01,1 -0.09,1.49 -0.02,0.14 0,0.28 -0.02,0.42 -0.04,0.57 -0.08,1.15 -0.14,1.72 -0.07,0.63 -0.15,1.27 -0.23,1.9 -0.06,0.46 -0.12,0.92 -0.2,1.38 -0.15,0.9 -0.3,1.8 -0.47,2.69 -0.22,1.13 -0.48,2.25 -0.77,3.36 -0.3,1.14 -0.63,2.28 -1,3.4 -0.13,0.39 -0.25,0.78 -0.39,1.21 -2.86,0.62 -5.71,1.19 -8.55,1.79 -0.17,0.04 -0.34,0.05 -0.54,0.08 0.03,-0.08 0.05,-0.13 0.07,-0.17 z m 7.43,23.79 c -0.88,-0.42 -1.6,-1.04 -2.17,-1.83 -0.71,-0.98 -1.14,-2.08 -1.33,-3.28 -0.1,-0.64 -0.13,-1.27 -0.12,-1.91 0,-0.15 0.02,-0.3 0.03,-0.52 0.19,0.21 0.34,0.37 0.47,0.53 1.6,1.93 3.21,3.84 4.79,5.77 -0.02,0.59 -0.1,1.16 -0.18,1.75 -0.06,0 -0.11,0 -0.16,-0.02 -0.46,-0.13 -0.91,-0.28 -1.34,-0.48 z m 1.44,0.94 c 0,0 0.01,0.04 0.01,0.06 0,0.02 -0.01,0.04 -0.02,0.06 0,-0.02 -0.01,-0.04 -0.01,-0.06 0,-0.02 0.01,-0.04 0.02,-0.06 z m 0,-0.21 v -0.12 h 0.02 v 0.12 z m -0.07,0.63 v -0.15 c 0,0 0.01,0 0.02,0 v 0.15 z m 0.02,0.16 v 0.12 H 18.9 v -0.12 z m 52.72,-17.9 c -1.19,1.43 -2.37,2.85 -3.56,4.28 -1.62,1.94 -3.23,3.89 -4.85,5.83 -1.32,1.58 -2.63,3.17 -3.95,4.75 -0.05,0.06 -0.09,0.12 -0.14,0.18 0.03,0.35 0.07,0.69 0.1,1.04 0.06,0.64 0.13,1.27 0.19,1.91 0.06,0.58 0.13,1.16 0.18,1.74 0.03,0.33 0.06,0.67 0.09,1 0.05,0.49 0.11,0.99 0.17,1.48 0.02,0.23 0.05,0.45 0.07,0.68 0.03,0.33 0.06,0.67 0.09,1 0.05,0.51 0.11,1.01 0.17,1.52 0.03,0.24 0.05,0.47 0.07,0.71 0.05,0.48 0.09,0.97 0.14,1.45 0.06,0.64 0.13,1.27 0.19,1.91 0.07,0.65 0.13,1.29 0.2,1.94 0.07,0.65 0.13,1.29 0.2,1.94 0.07,0.65 0.13,1.29 0.2,1.94 0,0.06 0,0.13 0,0.18 -0.08,0.06 -0.14,0 -0.19,-0.02 -1.1,-0.43 -2.2,-0.86 -3.3,-1.29 -1.6,-0.62 -3.19,-1.24 -4.79,-1.87 -0.89,-0.35 -1.78,-0.7 -2.66,-1.05 -1.61,-0.63 -3.21,-1.25 -4.82,-1.88 -0.89,-0.35 -1.78,-0.7 -2.66,-1.05 -1.05,-0.41 -2.1,-0.82 -3.15,-1.23 -0.09,-0.04 -0.18,-0.06 -0.28,-0.1 -7.27,2.84 -14.54,5.69 -21.82,8.54 0,-0.15 0,-0.28 0,-0.41 0.03,-0.36 0.07,-0.71 0.11,-1.07 0.06,-0.56 0.12,-1.12 0.18,-1.68 0.03,-0.27 0.04,-0.54 0.07,-0.81 0.06,-0.57 0.13,-1.14 0.19,-1.71 0.03,-0.24 0.05,-0.47 0.07,-0.71 0.07,-0.75 0.14,-1.51 0.22,-2.26 0.06,-0.66 0.13,-1.31 0.2,-1.97 0.06,-0.64 0.13,-1.27 0.19,-1.91 0.07,-0.65 0.13,-1.29 0.2,-1.94 0.06,-0.64 0.13,-1.27 0.19,-1.91 0.07,-0.65 0.13,-1.29 0.2,-1.94 0.06,-0.64 0.13,-1.27 0.19,-1.91 0,-0.09 0.03,-0.17 0.04,-0.28 C 13.95,77.32 8.3,70.53 2.64,63.72 3.39,63.54 4.11,63.41 4.83,63.25 5.54,63.1 6.25,62.95 6.96,62.81 7.68,62.66 8.4,62.52 9.13,62.37 c 0.72,-0.15 1.44,-0.3 2.16,-0.45 0.72,-0.15 1.44,-0.3 2.16,-0.45 0.71,-0.15 1.42,-0.3 2.13,-0.44 0.72,-0.15 1.44,-0.3 2.16,-0.45 0.72,-0.15 1.44,-0.3 2.16,-0.45 0.72,-0.15 1.44,-0.3 2.17,-0.45 0.71,-0.15 1.42,-0.29 2.13,-0.44 0.72,-0.15 1.44,-0.3 2.2,-0.46 0.17,-0.29 0.33,-0.57 0.5,-0.85 1.05,-1.82 2.1,-3.65 3.15,-5.47 0.74,-1.28 1.47,-2.56 2.21,-3.84 1.03,-1.79 2.06,-3.57 3.09,-5.36 1.19,-2.06 2.37,-4.12 3.55,-6.18 0.13,-0.23 0.28,-0.46 0.41,-0.68 0.08,-0.02 0.09,0.03 0.11,0.07 0.02,0.04 0.05,0.07 0.07,0.11 0.44,0.77 0.89,1.54 1.33,2.31 1.27,2.2 2.54,4.4 3.8,6.6 1.03,1.79 2.06,3.57 3.08,5.36 1.18,2.05 2.36,4.1 3.54,6.15 0.29,0.51 0.58,1.02 0.88,1.52 0.05,0.08 0.1,0.16 0.16,0.26 7.9,1.64 15.81,3.29 23.73,4.94 -0.03,0.12 -0.11,0.19 -0.17,0.27 -0.45,0.53 -0.89,1.07 -1.34,1.6 -0.96,1.16 -1.93,2.32 -2.89,3.48 z M 28.24,39.83 c 0.31,0.04 1.44,0.03 1.73,-0.01 v -6.14 c 0,-0.18 0,-0.37 0,-0.55 0,-0.06 -0.02,-0.12 -0.04,-0.2 -0.57,0.16 -1.13,0.12 -1.69,0 -0.06,0.11 -0.04,0.22 -0.04,0.33 0,0.81 0,1.63 0,2.44 0,1.27 0,2.54 0,3.81 0,0.1 -0.03,0.22 0.04,0.31 z"
         id="path7"
         style="fill:#000000" />
    </g>
    <path
       class="cls-1"
       d="m 39.48,75.45 c 0.03,0.07 0.06,0.14 0.1,0.2 0.73,0.98 1.47,1.97 2.2,2.95 1.21,1.62 2.41,3.24 3.62,4.85 0.89,1.19 1.78,2.38 2.67,3.58 0.95,1.28 1.91,2.56 2.86,3.84 1.36,1.82 2.71,3.64 4.06,5.46 0.88,1.17 1.75,2.35 2.63,3.52 0.31,0.42 0.62,0.84 0.93,1.25 0.03,0.04 0.06,0.09 0.09,0.14 -0.06,0.05 -0.11,0 -0.15,0 -1.05,-0.41 -2.1,-0.82 -3.15,-1.23 C 53.97,99.47 52.59,98.94 51.22,98.4 50.09,97.96 48.96,97.51 47.83,97.07 46.46,96.53 45.08,96 43.71,95.46 42.58,95.02 41.45,94.57 40.32,94.13 40.01,94.01 39.7,93.89 39.38,93.76 c 0,-0.09 -0.02,-0.16 -0.02,-0.23 0,-0.09 0,-0.17 0,-0.26 0,-5.81 0,-11.63 0,-17.44 0,-0.1 0,-0.2 0,-0.29 0,-0.05 -0.05,-0.09 -0.07,-0.13 v 0 c 0,0 0,-0.04 0,-0.06 0,0 0,0 0,0 0.03,-0.04 0.07,-0.09 0.07,-0.13 0.01,-0.11 0,-0.22 0,-0.33 0,-11.23 0,-22.46 0,-33.68 0,-0.13 0,-0.25 0,-0.38 0.03,0 0.04,0 0.05,0.01 0,0 0.02,0.01 0.02,0.02 0.03,0.05 0.06,0.09 0.09,0.14 3.75,6.51 7.5,13.01 11.25,19.52 0.04,0.07 0.08,0.13 0.12,0.21 -0.04,0.07 -0.09,0.14 -0.14,0.21 -0.95,1.21 -1.91,2.42 -2.86,3.63 -1.01,1.29 -2.03,2.57 -3.04,3.86 -1.22,1.54 -2.43,3.08 -3.65,4.63 -0.54,0.69 -1.09,1.38 -1.63,2.07 -0.05,0.06 -0.09,0.12 -0.15,0.22 0.08,-0.02 0.12,-0.02 0.16,-0.03 0.75,-0.23 1.49,-0.46 2.24,-0.7 0.74,-0.23 1.49,-0.47 2.23,-0.7 0.81,-0.25 1.61,-0.51 2.42,-0.76 0.72,-0.23 1.45,-0.45 2.17,-0.68 0.79,-0.24 1.57,-0.49 2.36,-0.73 0.76,-0.24 1.51,-0.47 2.27,-0.71 0.8,-0.25 1.59,-0.5 2.39,-0.75 0.8,-0.25 1.6,-0.49 2.39,-0.74 0.58,-0.18 1.16,-0.36 1.74,-0.55 0.94,-0.3 1.88,-0.59 2.82,-0.88 0.79,-0.25 1.57,-0.49 2.36,-0.73 1.14,-0.35 2.28,-0.71 3.42,-1.07 1.11,-0.35 2.21,-0.69 3.32,-1.04 0.09,-0.03 0.19,-0.05 0.28,-0.08 0.04,0.09 -0.02,0.13 -0.06,0.17 -0.67,0.8 -1.34,1.6 -2,2.4 -1.04,1.25 -2.08,2.51 -3.12,3.76 -0.83,1 -1.67,2 -2.5,3 -1.53,1.84 -3.06,3.69 -4.6,5.53 -0.91,1.09 -1.82,2.18 -2.73,3.28 -0.03,0.03 -0.06,0.06 -0.1,0.11 -0.08,-0.03 -0.16,-0.05 -0.24,-0.08 -1.3,-0.6 -2.6,-1.2 -3.9,-1.8 C 51.37,80.94 50,80.31 48.63,79.68 47.26,79.05 45.89,78.42 44.52,77.79 43.35,77.25 42.17,76.71 41,76.17 c -0.46,-0.21 -0.92,-0.43 -1.39,-0.64 -0.04,-0.02 -0.1,-0.01 -0.15,-0.02 0,0 0,-0.02 0,-0.03 0,0 -0.01,0 -0.02,-0.01 0,0.01 0.02,0.02 0.03,0.03 z"
       id="path8"
       style="fill:#000000" />
    <path
       class="cls-1"
       d="m 39.29,75.32 c -0.34,-0.1 -0.68,-0.2 -1.03,-0.31 -1.17,-0.36 -2.34,-0.72 -3.51,-1.09 -0.95,-0.3 -1.9,-0.6 -2.86,-0.89 -1.13,-0.35 -2.26,-0.7 -3.38,-1.05 C 27.58,71.69 26.65,71.39 25.72,71.1 24.78,70.81 23.83,70.52 22.89,70.23 22.09,69.98 21.3,69.72 20.5,69.47 19.57,69.18 18.64,68.89 17.7,68.6 17.11,68.42 16.52,68.23 15.93,68.05 14.76,67.69 13.59,67.32 12.42,66.96 11.66,66.72 10.91,66.49 10.15,66.25 9.04,65.9 7.94,65.56 6.83,65.21 6.78,65.19 6.72,65.18 6.7,65.11 c 7.02,-1.46 14.04,-2.92 21.07,-4.38 0.1,0.06 0.16,0.17 0.24,0.26 1.1,1.39 2.19,2.77 3.29,4.16 1.19,1.51 2.37,3.02 3.56,4.53 0.71,0.9 1.43,1.8 2.14,2.7 0.73,0.92 1.45,1.84 2.17,2.76 0.05,0.06 0.11,0.11 0.09,0.2 v 0 z"
       id="path9"
       style="fill:#000000" />
    <path
       class="cls-1"
       d="m 39.28,75.38 c 0.01,0.14 -0.1,0.21 -0.17,0.3 -0.53,0.72 -1.06,1.43 -1.59,2.14 -0.92,1.24 -1.85,2.47 -2.77,3.71 -1.48,1.98 -2.96,3.97 -4.44,5.95 -0.86,1.16 -1.73,2.32 -2.59,3.47 -1.37,1.84 -2.74,3.67 -4.11,5.51 -0.87,1.17 -1.74,2.33 -2.61,3.5 -0.26,0.35 -0.52,0.7 -0.78,1.05 -0.04,0.06 -0.09,0.12 -0.14,0.18 -0.08,-0.03 -0.06,-0.09 -0.06,-0.14 0.03,-0.32 0.06,-0.65 0.09,-0.97 0.03,-0.32 0.07,-0.65 0.11,-0.97 0.05,-0.44 0.09,-0.88 0.14,-1.32 0.06,-0.64 0.13,-1.27 0.19,-1.91 0.07,-0.65 0.13,-1.29 0.2,-1.94 0.06,-0.64 0.13,-1.27 0.19,-1.91 0.09,-0.85 0.18,-1.7 0.26,-2.55 0.07,-0.65 0.13,-1.29 0.2,-1.94 0.07,-0.66 0.14,-1.31 0.2,-1.97 0.07,-0.71 0.14,-1.42 0.21,-2.15 0.22,-0.11 0.44,-0.22 0.67,-0.32 0.76,-0.35 1.52,-0.7 2.28,-1.04 0.89,-0.41 1.77,-0.81 2.66,-1.22 0.62,-0.29 1.24,-0.58 1.86,-0.86 0.78,-0.36 1.56,-0.71 2.34,-1.07 0.73,-0.34 1.46,-0.67 2.19,-1.01 0.79,-0.36 1.58,-0.73 2.37,-1.09 0.63,-0.29 1.26,-0.59 1.89,-0.87 0.4,-0.18 0.81,-0.36 1.22,-0.54 v 0 z"
       id="path10"
       style="fill:#000000" />
  </g>
</svg>
