<?xml version="1.0" encoding="UTF-8"?><svg id="Layer_2" xmlns="http://www.w3.org/2000/svg" viewBox="0 0 311.72 107.42"><defs><style>.cls-1{fill:#fff;}.cls-2{opacity:.6;}</style></defs><g id="Layer_2-2"><g><g><path class="cls-1" d="M78.62,101.53c.39-.95,.63-1.55,.92-2.24-.27-.28-.55-.73-.95-.97-3.58-2.1-7.16-4.19-10.78-6.22-4.9-2.74-9.87-2.56-14.75,.01-3.08,1.63-6.04,3.47-9.05,5.23-.57,.33-1.47,.62-1.61,1.1-1.35,4.73-6.23,4.9-9.16,7.6-1.08-.49-1.94-.88-2.9-1.31-3.59,1.94-7.33,2.91-11.41,1.4-3.29-1.22-5.6-3.44-7.31-6.44-2.72-4.76-5.28-9.62-8.28-14.2-5.15-7.84-4.81-14.65,4.34-21.05-.21-.65-.44-1.39-.75-2.35,2.94-1.73,5.93-3.49,9.08-5.35,.92,.74,1.78,1.42,2.88,2.3,4.09-2.38,8.34-4.63,12.35-7.25,4.33-2.83,6.34-7.18,6.52-12.28,.15-4.32,.03-8.64,.03-13.01-.96-.5-1.78-.93-2.68-1.4V15.37c.73-.45,1.53-.95,2.5-1.55,.03-6.34,2.56-12.17,9.07-12.97,9.14-1.13,18.57-1.06,27.76-.23,5.77,.52,8.34,5.3,9.52,13.13,.74,.5,1.54,1.02,2.41,1.6v9.7c-.89,.48-1.85,1-2.84,1.54,0,4.64-.05,9.13,.01,13.63,.08,5.43,2.5,9.54,7.2,12.28,3.72,2.17,7.46,4.32,11.16,6.47,.97-.47,1.83-.88,2.72-1.31,2.95,1.7,5.82,3.35,8.84,5.09-.17,.86-.32,1.6-.47,2.38,1.14,.9,2.35,1.74,3.42,2.73,4.3,4.02,5.57,9.33,2.85,14.5-3.47,6.61-7.19,13.11-11.2,19.41-3.94,6.19-9.88,7.17-17.97,3.55-.78,.51-1.58,1.03-2.45,1.6-3.06-1.83-6.02-3.59-9.02-5.39Zm-.97-11.84l-.14-.16c.84,3.86,5.4,3.43,7.33,6.46-.65,1.31-1.36,2.76-2.17,4.42,1.55,.91,2.94,1.73,4.2,2.47,.91-.78,1.59-1.36,2.16-1.85,1.64,.92,2.9,1.75,4.25,2.36,4.6,2.07,9.55,1.12,12-2.82,3.95-6.33,7.74-12.79,11.18-19.4,2.47-4.75,.72-9.52-3.87-12.45-1.24-.79-2.51-1.55-3.74-2.31,.22-.91,.39-1.65,.59-2.46-1.36-.79-2.63-1.52-3.81-2.21-1,.59-1.8,1.07-2.51,1.49-4.68-2.74-9.14-5.29-13.55-7.94-5.3-3.18-8.77-7.73-9.08-14.02-.29-5.95-.06-11.93-.06-17.87,.9-.37,1.66-.67,2.4-1,.13-.06,.2-.25,.76-1.01-.71-1.56-1.58-3.47-2.92-6.39,0,.37,.04-.47,0-1.3-.43-7.33-4.06-10.83-11.39-10.88-6.16-.04-12.32-.14-18.48,.03-6.1,.17-9.83,4.05-10.04,10.1-.04,1.32,0,2.64,0,4.08-2.92,.81-3.05,2.79-2.37,5.16,.74,.46,1.53,.95,2.34,1.45,0,5.65,.16,11.14-.04,16.63-.21,5.59-2.44,10.45-7.15,13.59-5.09,3.39-10.5,6.3-15.75,9.4-1.06-.95-1.88-1.68-2.73-2.44-1.44,.84-2.73,1.59-3.97,2.31,.21,.97,.39,1.86,.58,2.74-.97,.6-1.67,1.04-2.37,1.47-6.76,4.16-7.92,8.55-4,15.39,2.39,4.18,4.83,8.32,7.24,12.49,5.68,9.81,8.94,10.76,18.93,5.38,.73,.38,1.56,.81,2.57,1.33,1.19-.75,2.43-1.52,3.9-2.44-6.52-11.36-12.92-22.5-19.6-34.13h7.25c-1.62,1.3-2.7,2.16-3.85,3.09,1.28,2.11,2.38,3.93,3.62,5.98,2.37-1.28,4.54-2.44,6.97-3.75,1.89,3.25,3.69,6.33,5.54,9.49-2.46,1.53-4.54,2.82-6.82,4.23,.8,1.24,1.5,2.32,2.21,3.42,2.4-1.28,4.56-2.43,6.9-3.68,1.01,1.85,1.85,3.37,2.57,4.69-1.87,2.41-5.52,2.17-6.29,6.19,2.77-1.46,4.91-2.59,7.18-3.79,.68,.49,1.42,1.02,2.16,1.55,4.75-2.62,9.16-5.76,14.75-5.83,5.73-.07,10.15,3.49,15.04,5.96,.84-1.31,1.46-2.27,2.07-3.23Z"/><path class="cls-1" d="M39.7,60.93c.09-11.51,9.61-21.19,21.01-20.73,12.84,.52,20.8,10.12,20.85,21.09,.05,11.33-9.31,20.86-20.97,20.88-12.44,.02-21.61-10.53-20.89-21.24Zm38.39,.22c.21-10.59-8.93-17.58-17.7-17.58-9.57,0-17.76,8.57-17.67,17.81,.1,9.95,8.96,17.85,17.91,17.56,10.03-.32,17.5-7.69,17.46-17.79Z"/><path class="cls-1" d="M77.65,89.69c3.39-5.59,6.77-11.17,10.16-16.76l-.15-.14c.47,.78,.77,1.8,1.45,2.29,1.74,1.25,3.64,2.27,5.83,3.59-2.83,4.94-5.6,9.8-8.44,14.77-3.09-1.35-6.04-2.63-8.99-3.92l.14,.16Z"/><path class="cls-1" d="M48.83,4.13h5.24c-.2,4.23-.38,8.27-.59,12.64h-7.19c-.96-4.41-.79-8.65,2.54-12.64Z"/><path class="cls-1" d="M19.46,77.98c-3.19,2.08-5.79,3.76-8.78,5.71-1.17-1.87-2.33-3.74-3.85-6.18,2.76-2.05,5.33-3.95,8.43-6.25,1.47,2.35,2.71,4.33,4.21,6.72Z"/><path class="cls-1" d="M51.05,32.32v-7.46h7.37v7.46h-7.37Z"/><path class="cls-1" d="M90.85,67.84c.58-.87,1.09-2.43,1.75-2.5,3.01-.32,6.19-1.03,9.15,1.5-.86,1.54-1.72,3.06-2.66,4.73-2.88-1.32-5.63-2.59-8.38-3.85l.14,.13Z"/><path class="cls-1" d="M103.48,83.42c-1.39-.78-2.37-1.32-3.55-1.98,1.33-2.3,2.53-4.4,3.92-6.81,1.23,.75,2.13,1.3,3.37,2.05-1.23,2.22-2.34,4.21-3.74,6.73Z"/><path class="cls-1" d="M78.02,33.21c-2.63-3.25-2.65-5.66-.39-8.72,1.67,2.87,1.12,5.46,.39,8.72Z"/><path class="cls-1" d="M43.32,24.93c2.12,3.26,2.12,4.33,0,8.62v-8.62Z"/><path class="cls-1" d="M88.49,70.54c-.28,.75-.55,1.5-.83,2.25l.15,.14c.27-.75,.53-1.5,.8-2.25,0,0-.12-.13-.12-.13Z"/><path class="cls-1" d="M90.71,67.71c-.27,.75-.54,1.49-.81,2.24l.14,.16,.8-2.27-.14-.13Z"/><path class="cls-1" d="M89.9,69.95c-.47,.2-.95,.4-1.42,.6,0,0,.12,.13,.12,.13,.48-.19,.96-.38,1.44-.57,0,0-.14-.16-.14-.16Z"/><path class="cls-1" d="M52.62,73.01c7.9-2.66,15.6-5.31,21.36-11.74,.7,4.78-1.55,9.49-5.67,12.19-4.71,3.09-10.8,3.42-15.68-.45Z"/><path class="cls-1" d="M57.53,47.09c.19,2.37,.27,3.49,.38,4.79-1.2,.63-2.33,1.22-3.59,1.89-.94-1.08-1.78-2.06-3.08-3.56,2.14-1.06,3.91-1.93,6.3-3.11Z"/></g><g><path class="cls-1" d="M203.46,46.84h-3.68c-.79-4.9-1.58-9.78-2.37-14.65-.06-.02-.12-.03-.19-.05-2.62,5.07-5.25,10.14-7.94,15.33-2.68-5.18-5.31-10.26-7.95-15.34-.06,.02-.12,.04-.18,.05-.78,4.84-1.56,9.67-2.33,14.5-.69,.25-2.42,.29-3.7,.09,1.41-8.51,2.82-17.02,4.23-25.52,3.44,6.18,6.62,12.47,9.94,18.84,3.29-6.38,6.52-12.64,9.75-18.9,.06,0,.12,0,.17,.01,1.41,8.51,2.82,17.02,4.24,25.65Z"/><path class="cls-1" d="M209.42,21.53c.3,0,.53,0,.75,0,2.62,0,5.23-.02,7.85,.02,1.52,.02,3.01,.31,4.41,.94,2.54,1.14,3.93,3.09,4.3,5.85,.25,1.89,.01,3.7-.83,5.4-1.34,2.69-3.61,4.07-6.55,4.3-1.71,.13-3.44,.05-5.16,.06-.36,0-.72,0-1.2,0-.11,2.92,.01,5.78-.07,8.73-1.18,.1-2.31,.06-3.5,.03V21.53Zm3.56,12.94c1.99,0,3.87,.04,5.75-.01,1.72-.04,3.2-.66,3.97-2.31,.8-1.72,.78-3.48-.31-5.1-.9-1.34-2.3-1.84-3.85-1.91-1.59-.07-3.18-.03-4.76-.02-.25,0-.51,.04-.79,.06v9.28Z"/><path class="cls-1" d="M157.78,20.92c4.06,8.73,8.02,17.25,12.04,25.9-1.35,.1-2.56,.04-3.88,.05-.81-1.78-1.63-3.57-2.47-5.4h-11.39c-.8,1.76-1.62,3.55-2.43,5.34h-3.91c4.01-8.62,7.97-17.13,12.04-25.89Zm-4.03,16.88h8.05c-1.34-2.95-2.63-5.81-4.02-8.88-1.39,3.05-2.69,5.92-4.03,8.88Z"/><path class="cls-1" d="M268.01,21.57h14.34v3.54h-10.68v7.3h8.87v3.56h-8.93c-.01,3.66,0,7.22,0,10.84h-3.58V21.57Z"/><path class="cls-1" d="M302.72,46.84h-3.6v-1.1c0-2.75-.01-5.5,.01-8.25,0-.59-.15-1.08-.45-1.58-2.73-4.53-5.45-9.07-8.17-13.61-.12-.19-.22-.39-.42-.74,.75-.01,1.39-.03,2.02-.04,.66,0,1.32,0,2,0,2.25,3.85,4.47,7.66,6.78,11.6,2.31-3.95,4.54-7.76,6.77-11.57h4.03c-.23,.41-.42,.74-.62,1.07-2.63,4.4-5.26,8.79-7.91,13.18-.34,.56-.48,1.12-.48,1.77,.03,2.72,.01,5.43,.01,8.15v1.1Z"/><path class="cls-1" d="M246.14,43.22v3.6h-13.78V21.58h3.47v21.64h10.31Z"/><path class="cls-1" d="M255.64,46.86V21.59h3.51v25.27c-1.14,.04-2.28,.03-3.51,0Z"/></g><g class="cls-2"><path class="cls-1" d="M259.74,76.37c-4.86-.12-8.64-3.78-8.62-8.69,.02-4.79,3.65-8.59,8.62-8.6,4.98-.01,8.66,3.83,8.66,8.64,0,4.9-3.81,8.56-8.66,8.65Zm.02-2.43c3.31,.02,6.23-2.58,6.23-6.21,0-3.41-2.54-6.23-6.19-6.25-3.6-.02-6.27,2.71-6.27,6.25,0,3.73,3,6.23,6.23,6.21Z"/><path class="cls-1" d="M175.02,70.15c1.46,2.04,2.87,4.01,4.33,6.05h-2.8c-1.37-1.9-2.76-3.83-4.16-5.78h-2.64v5.76h-2.41v-16.8c.15-.02,.31-.06,.48-.06,1.78,0,3.56-.03,5.33,.01,1.12,.03,2.21,.26,3.21,.79,1.59,.84,2.41,2.19,2.53,3.97,.07,.99,.02,1.98-.36,2.91-.56,1.35-1.48,2.34-2.85,2.89-.18,.07-.37,.15-.65,.27Zm-5.25-8.4c-.14,1.79-.08,5.66,.09,6.23,1.18,0,2.38,.09,3.56-.02,1.78-.16,2.94-.77,3.11-2.85,.13-1.64-.57-3.12-2.54-3.33-1.37-.15-2.77-.03-4.21-.03Z"/><path class="cls-1" d="M277.08,64.86v11.3c-.8,.11-1.55,.04-2.29,.04-.14-.57-.2-15.87-.06-17.22,3.84,3.94,7.64,7.84,11.54,11.84v-11.49c.81-.05,1.58-.04,2.4,0v17.19c-1.35-1.31-2.56-2.64-3.83-3.92-1.27-1.28-2.52-2.58-3.78-3.87-1.27-1.3-2.55-2.61-3.83-3.91l-.16,.04Z"/><path class="cls-1" d="M295.78,73.59c.39-.71,.77-1.39,1.12-2.02,.74,.53,1.42,1.11,2.18,1.53,1.7,.93,3.51,1.11,5.36,.5,.83-.27,1.45-.8,1.69-1.7,.19-.73,.03-1.35-.51-1.87-.69-.65-1.55-.93-2.44-1.14-1.05-.25-2.12-.47-3.16-.75-.78-.21-1.51-.57-2.17-1.06-1.26-.95-1.67-2.23-1.46-3.75,.31-2.25,1.77-3.47,3.83-4,2.13-.55,4.22-.32,6.18,.73,.51,.27,.96,.64,1.47,.98-.4,.75-.76,1.44-1.15,2.17-.19-.14-.31-.21-.43-.31-1.02-.87-2.22-1.31-3.53-1.43-1.02-.09-2.01,.08-2.94,.57-.97,.51-1.3,1.74-.98,2.46,.2,.45,.5,.78,.93,.95,.72,.28,1.47,.52,2.22,.73,1.14,.32,2.3,.56,3.42,.93,.92,.3,1.76,.79,2.38,1.57,1.2,1.53,1.04,3.88-.17,5.44-.92,1.18-2.19,1.8-3.6,2.08-2.02,.39-3.98,.14-5.84-.76-.93-.45-1.73-1.05-2.41-1.85Z"/><path class="cls-1" d="M197.14,59.39v2.32h-7.13v4.78c.65,0,1.3,0,1.94,0,.66,0,1.32,0,1.98,0s1.31,0,2.05,0c.09,.8,.03,1.55,.04,2.34-.68,.15-1.33,.06-1.98,.07-.69,.02-1.37,0-2.06,0h-1.99v4.87c2.37,.02,4.74,0,7.15,.01v2.38h-9.56v-16.75c.49-.15,8.6-.2,9.55-.04Z"/><path class="cls-1" d="M215.82,72.59h-7.58c-.54,1.18-1.09,2.37-1.64,3.59h-2.59c2.65-5.74,5.31-11.43,8.03-17.27,2.71,5.84,5.36,11.53,8.04,17.28h-2.6c-.54-1.18-1.08-2.37-1.65-3.6Zm-3.79-8.36c-.93,2.05-1.78,3.93-2.66,5.88h5.32c-.88-1.95-1.73-3.83-2.66-5.88Z"/><path class="cls-1" d="M157.88,72.18c.35,.76,.66,1.45,.98,2.13-2.56,2.63-7.66,2.82-11.01-.08-3.8-3.29-3.99-8.83-.72-12.34,3.29-3.53,8.73-3.64,11.73-.83-.28,.63-.56,1.27-.86,1.91-.04,.09-.11,.16-.17,.23-3.01-2.76-6.95-1.91-8.94,.29-2.17,2.39-2.18,5.77-.22,8.2,1.86,2.31,6.04,3.42,9.22,.49Z"/><path class="cls-1" d="M227.52,61.74h-4.29c-.21-.41-.09-.82-.11-1.21-.02-.38,0-.75,0-1.18h11.14c.14,.53,.16,1.53,.02,2.36h-4.32c-.03,1.02-.01,1.97-.01,2.92,0,.97,0,1.93,0,2.9v5.71c0,.96,0,1.92,0,2.93h-2.39c-.06-.78-.02-1.59-.03-2.39,0-.79,0-1.57,0-2.36v-7.24c0-.78,0-1.57,0-2.44Z"/><path class="cls-1" d="M241.93,59.33h2.25c.15,.52,.19,15.84,.04,16.87-.14,0-.28,.02-.43,.02-.61,0-1.21,0-1.86,0v-16.9Z"/></g></g></g></svg>