<?xml version="1.0" encoding="UTF-8"?><svg id="Layer_2" xmlns="http://www.w3.org/2000/svg" viewBox="0 0 354.28 114.72"><defs><style>.cls-1,.cls-2{fill:#fff;}.cls-3{opacity:.8;}.cls-2{font-family:AzoSans-Regular, 'Azo Sans';font-size:43.28px;}</style></defs><g id="Layer_2-2"><g><text class="cls-2" transform="translate(95.79 53.6)"><tspan x="0" y="0">INCRÍVEL </tspan><tspan x="0" y="43.23">ALMADENSE</tspan></text><g><path class="cls-1" d="M8.14,27.51c-.32-.06-.65-.12-.98-.19-.83-.18-1.62-.49-2.35-.93-.51-.31-.98-.67-1.42-1.08-.62-.58-1.14-1.24-1.61-1.95-.01-.02-.01-.04-.02-.06,0-.08,.08-.1,.14-.12,.71-.35,1.42-.69,2.14-1.04,.13-.06,.25-.13,.38-.19,.98-.48,1.97-.97,2.95-1.45,.12,.04,.16,.15,.22,.23,.3,.39,.65,.73,1.08,.98,.47,.27,.97,.43,1.51,.47,.16,.01,.32,.05,.48,.04,.99-.06,1.95-.28,2.85-.72,.27-.13,.52-.31,.74-.53,.58-.59,.45-1.38,.01-1.89-.23-.27-.53-.41-.86-.49-.25-.05-.51-.09-.77-.09-.42,.01-.85,0-1.27,.03-.4,.02-.8,.07-1.2,.1-.19,.02-.39,.02-.59,.02-.56,0-1.13,.06-1.69,.05-.45,0-.89-.05-1.33-.06-.52-.02-1.03-.1-1.55-.19-1.09-.18-2.04-.62-2.87-1.36-.9-.8-1.5-1.79-1.84-2.94C.03,13.29-.05,12.4,.03,11.49c.06-.7,.25-1.37,.53-2,.28-.62,.61-1.2,1.05-1.72,.59-.7,1.28-1.3,2.06-1.78,1.02-.63,2.12-1.09,3.27-1.43,.55-.17,1.11-.31,1.67-.42,.51-.09,1.03-.16,1.55-.19,.27-.02,.54-.05,.81-.04,1.26,.05,2.48,.28,3.61,.86,.62,.32,1.18,.72,1.71,1.18,.37,.32,.69,.69,1.01,1.05,.03,.03,.05,.07,.07,.1-.02,.11-.11,.14-.18,.19-.55,.36-1.11,.72-1.67,1.08-.65,.42-1.3,.83-1.94,1.25-.28,.18-.57,.36-.85,.54-.04,.03-.1,.05-.16,.08-.1-.1-.2-.2-.3-.3-.69-.69-1.51-1.04-2.48-1.03-.87,0-1.69,.22-2.47,.62-.28,.14-.53,.33-.72,.6-.21,.3-.3,.63-.22,.99,.03,.17,.09,.34,.16,.49,.16,.35,.46,.56,.82,.64,.53,.12,1.07,.17,1.61,.09,.22-.03,.46-.01,.68-.04,.47-.05,.95-.04,1.42-.1,.17-.02,.35-.01,.52-.02,.44-.02,.89-.04,1.33-.05,.35-.01,.69-.02,1.04-.02,.37,0,.74,0,1.11,.02,.66,.05,1.31,.14,1.94,.38,.65,.25,1.25,.61,1.79,1.05,1,.81,1.64,1.87,2.02,3.09,.15,.49,.27,.99,.31,1.49,.11,1.21-.09,2.37-.63,3.48-.33,.68-.75,1.3-1.25,1.86-.7,.78-1.51,1.44-2.41,1.98-.35,.21-.71,.37-1.11,.46-.4,.09-.8,.2-1.2,.31-.13,.04-.25,.05-.38,.02-.14-.03-.28-.04-.42-.04-.53,0-1.06-.01-1.59,.05-.66,.08-1.3,.22-1.94,.4-.61,.18-1.19,.41-1.75,.69-.11,.05-.21,.1-.33,.16Z"/><path class="cls-1" d="M58.88,20.53c-.79,1.35-1.57,2.69-2.37,4.04-1.74-.42-3.46-.83-5.21-1.26,.03-.07,.05-.13,.08-.18,.53-.9,1.06-1.79,1.6-2.69,1.06-1.78,2.12-3.56,3.18-5.34,.76-1.28,1.52-2.55,2.28-3.83,.9-1.52,1.8-3.04,2.71-4.56,.71-1.19,1.42-2.39,2.13-3.58,.03-.05,.06-.08,.1-.13,.09,.02,.17,.03,.26,.05,1.28,.31,2.55,.61,3.83,.92,.92,.22,1.83,.44,2.75,.66,.05,.01,.1,.04,.15,.06,.01,.12,.03,.24,.03,.36,.02,.4,.04,.8,.07,1.2,.03,.4,.07,.8,.1,1.2,.01,.14,0,.28,.02,.42,.02,.41,.05,.82,.08,1.23,.03,.41,.07,.82,.1,1.23,0,.1,0,.2,0,.29,.03,.46,.05,.93,.09,1.39,.05,.64,.1,1.27,.13,1.91,.02,.4,.07,.8,.1,1.2,.01,.15,.01,.3,.02,.46,.02,.4,.04,.8,.07,1.2,.03,.4,.07,.8,.1,1.2,0,.12,0,.24,0,.36,.03,.44,.04,.89,.09,1.33,.05,.41,.02,.82,.1,1.23,.03,.16,.02,.32,.03,.49,.02,.39,.04,.78,.07,1.17,.03,.41,.07,.82,.1,1.23,0,.11,0,.22,0,.33,.03,.44,.05,.89,.09,1.33,.03,.4,.07,.8,.1,1.2,.01,.14,0,.28,.02,.42,.02,.33,.05,.67,.07,1,0,.07-.01,.15-.02,.22-.14,.01-.22-.07-.31-.12-.28-.17-.55-.36-.83-.52-1.1-.62-2.26-1.05-3.5-1.27-.56-.1-1.14-.18-1.71-.16-.08,0-.15,0-.23,0-.08-.11-.07-.23-.08-.35,0-.16,.02-.33,0-.49-.05-.39-.02-.78-.06-1.17,0-.01,0-.02,0-.03-.02-.47-.03-.93-.05-1.4,0-.23-.02-.45-.03-.68-.07-.08-.17-.09-.26-.12-.81-.19-1.62-.39-2.43-.58-1.14-.28-2.28-.55-3.41-.83-.04-.01-.09-.01-.16-.02Zm6.2-3.42s0-.09,0-.14c0-.1-.03-.19-.03-.29,0-.62-.01-1.23-.06-1.85-.03-.37-.02-.74-.03-1.11-.01-.53-.03-1.06-.04-1.59,0-.02,0-.04,0-.06-.02-.48-.04-.95-.06-1.43-.01-.31-.02-.63-.03-.94-.02,0-.03,0-.04,0-.01,0-.02,0-.03,.01-1.14,2.05-2.29,4.11-3.43,6.17-.06,.1-.11,.21-.17,.33,.08,.03,.14,.06,.2,.07,1.22,.29,2.44,.58,3.67,.86,0,0,.02,0,.05-.03Z"/><path class="cls-1" d="M23.97,1.26c.08-.01,.14-.03,.2-.04,.27-.02,.54-.04,.81-.05,.28-.01,.57,0,.85-.03,.27-.03,.54-.03,.81-.05,.55-.03,1.1-.05,1.66-.08,.28-.01,.56-.03,.84-.05,.55-.03,1.1-.05,1.66-.08,.28-.01,.56-.03,.84-.05,.56-.03,1.12-.08,1.69-.08,.29,0,.58-.04,.87-.05,.53-.03,1.06-.05,1.59-.08,.3-.02,.6-.04,.91-.05,.53-.03,1.06-.05,1.59-.08,.29-.01,.58-.04,.88-.05,.32-.02,.65-.03,.96-.05,.09,.07,.08,.16,.09,.24,.02,.52,.03,1.04,.07,1.56,.03,.43,.03,.87,.07,1.3,.03,.41,.03,.82,.06,1.23,.02,.22,.04,.43,.04,.65,0,.04,0,.08-.01,.15-.05,.01-.1,.03-.15,.03-.49,.02-.98,.03-1.46,.07-.42,.04-.84,.03-1.27,.07-.42,.03-.85,.03-1.27,.07-.4,.04-.8,.03-1.2,.06-.43,.04-.87,.03-1.3,.07-.41,.03-.82,.03-1.23,.06-.42,.03-.84,.05-1.27,.06-.17,0-.34,.04-.5,.06-.02,.03-.03,.05-.03,.07,.05,.38,.04,.76,.06,1.14,.01,.27,.03,.54,.04,.81,.03,.6,.08,1.19,.09,1.79,0,.04,0,.08,.01,.12,.03,.02,.05,.04,.06,.04,.29-.01,.58-.03,.87-.04,.27-.01,.54-.02,.81-.04,.36-.02,.71-.04,1.07-.05,.54-.03,1.08-.05,1.62-.08,.29-.01,.58-.04,.87-.05,.54-.03,1.08-.05,1.62-.08,.16,0,.32-.03,.47-.04,.03,.03,.05,.04,.05,.06,.02,.28,.04,.56,.06,.84,.03,.32,0,.65,.06,.97,.03,.22,.02,.45,.03,.68,.02,.52,.04,1.04,.07,1.56,0,.17,.03,.34,.04,.52,0,.05,0,.11,0,.14-.08,.1-.16,.11-.25,.11-.29,0-.59,.01-.88,.02-.29,.01-.58,.04-.87,.05-.54,.03-1.08,.05-1.62,.08-.29,.01-.58,.04-.88,.05-.55,.03-1.1,.05-1.66,.08-.41,.02-.82,.05-1.23,.08-.02,0-.04,.02-.07,.04,0,.08,.02,.18,.03,.27,.01,.23,.01,.46,.02,.68,.02,.36,.04,.71,.06,1.07,.03,.53,.05,1.06,.07,1.59,.02,.3,.04,.6,.05,.91,.03,.54,.05,1.08,.08,1.62,.01,.29,.04,.58,.05,.88,.03,.47,.05,.93,.07,1.4,0,.03-.02,.06-.03,.11-.14,0-.28,.02-.42,.02-.52,.03-1.04,.05-1.56,.08-.29,.02-.58,.04-.87,.05-.53,.03-1.06,.04-1.59,.08-.29,.02-.58,.04-.88,.05-.26,.01-.52,.04-.78,.06-.12,0-.24,0-.37,0-.01-.08-.03-.14-.03-.2-.03-.51-.06-1.02-.08-1.52-.03-.53-.04-1.06-.07-1.59-.01-.29-.04-.58-.05-.87-.03-.53-.05-1.06-.08-1.59-.02-.3-.04-.61-.05-.91-.03-.54-.05-1.08-.08-1.62-.01-.28-.03-.56-.05-.84-.03-.55-.05-1.1-.08-1.66-.02-.29-.04-.58-.05-.88-.03-.54-.05-1.08-.08-1.62-.02-.3-.04-.6-.06-.91-.03-.53-.05-1.06-.08-1.59-.02-.3-.04-.6-.05-.91-.03-.53-.05-1.06-.08-1.59-.02-.3-.04-.61-.05-.91-.03-.54-.05-1.08-.08-1.62-.02-.29-.04-.58-.05-.87,0-.14,0-.28-.01-.42,0-.13-.02-.25-.04-.39Z"/><path class="cls-1" d="M48.98,23.73c-.13-.01-.26-.03-.39-.04-.41-.03-.82-.05-1.23-.09-.58-.06-1.16-.1-1.75-.13-.4-.02-.8-.07-1.2-.1-.11,0-.22,0-.33-.01-.39-.03-.78-.05-1.17-.08-.09,0-.17-.02-.24-.08,0-.17,0-.35,0-.52,.01-.25,.04-.5,.06-.74,.03-.37,.07-.73,.1-1.1,.01-.14,.02-.28,.03-.42,.02-.37,.03-.74,.07-1.1,.05-.57,.09-1.14,.13-1.72,.04-.57,.1-1.14,.13-1.72,.02-.45,.08-.91,.11-1.36,.03-.39,.05-.78,.08-1.17,.04-.46,.08-.93,.12-1.39,.03-.4,.05-.8,.08-1.2,.04-.46,.08-.93,.12-1.39,.03-.37,.05-.73,.08-1.1,.04-.56,.09-1.12,.14-1.68,0,0,.01-.02,.03-.04,.17,.01,.35,.02,.53,.04,.39,.03,.78,.05,1.17,.08,.46,.04,.93,.08,1.39,.12,.39,.03,.78,.05,1.17,.08,.37,.03,.73,.07,1.1,.1,.18,.02,.37,.02,.55,.03,.14,0,.27,.04,.42,.07,0,.07,.01,.14,0,.2-.04,.58-.08,1.17-.13,1.75-.04,.45-.08,.91-.11,1.36-.03,.39-.05,.78-.08,1.17-.04,.47-.08,.95-.12,1.42-.03,.39-.05,.78-.08,1.17-.03,.45-.08,.91-.11,1.36-.03,.39-.05,.78-.08,1.17-.04,.47-.08,.95-.12,1.42-.03,.38-.05,.76-.08,1.13-.03,.37-.07,.73-.1,1.1,0,.06,0,.13,0,.2-.03,.43-.05,.86-.09,1.3-.03,.45-.08,.91-.12,1.36,0,.1-.01,.2-.01,.29,0,.1-.03,.19-.08,.29Z"/><path class="cls-1" d="M44.05,4.96c0-.09,0-.15,0-.2,.02-.17,.04-.34,.05-.52,.03-.38,.05-.76,.08-1.13,.04-.47,.08-.95,.12-1.42,.03-.39,.05-.78,.08-1.17,.01-.16,.04-.32,.06-.5,.07,0,.14-.03,.21-.02,.27,.05,.54,.04,.81,.06,.37,.03,.73,.07,1.1,.1,.09,0,.17,0,.26,0,.41,.03,.82,.05,1.23,.09,.57,.06,1.14,.09,1.71,.13,.3,.02,.6,.05,.91,.06,.04,0,.08,.03,.13,.05-.12,1.62-.23,3.24-.37,4.85,0,.03-.02,.06-.04,.1-.36-.03-.71-.07-1.06-.1-.1,0-.2,0-.29,0-.4-.03-.8-.05-1.2-.08-.46-.04-.93-.08-1.39-.12-.39-.03-.78-.05-1.17-.08-.4-.03-.8-.07-1.23-.11Z"/><g class="cls-3"><path class="cls-1" d="M63.65,110.59c-16.2,0-32.39,0-48.59,0-.1,0-.2,0-.29,0-.06,0-.12,.01-.2,.02,0,.07-.01,.12-.01,.17,0,1.24,0,2.48,0,3.72,0,.06-.01,.13,.07,.19,.09,0,.19,0,.3,0,2.33,0,4.65,0,6.98,0h27.95c2.33,0,4.65,0,6.98,0,2.32-.01,4.65,.05,6.97-.04,.11,0,.21-.01,.32-.02,.03-.09,.03-.17,.03-.24,.03-1.85,.01-3.47-.04-3.82-.17,0-.32,0-.47,0Zm-43.27-4.43c-.06,0-.12,.01-.18,.02-.04,.27-.05,3.74,0,4.07,.31,.04,37.28,.06,38.2,.03,.04,0,.08-.01,.14-.02,0-.07,.02-.13,.02-.2,0-.22,0-.43,0-.65,0-.98,0-1.96,0-2.93,0-.09,.03-.2-.06-.28-.3,0-.62-.03-.93-.03-12.3,0-24.61,0-36.91,0-.09,0-.17,0-.26,0ZM48.79,39.83c.3,.04,1.43,.03,1.73-.01v-.37c0-1.88,0-3.76,0-5.64,0-.23,0-.46,0-.68,0-.06-.02-.12-.03-.18-.8,.11-.66,.14-1.69,0-.07,.08-.04,.19-.04,.28,0,.72,0,1.43,0,2.15,0,1.37,0,2.74,0,4.11,0,.12-.03,.24,.04,.34Zm-11.08-8.25c.51,.29,1.08,.42,1.65,.41,.62,0,1.22-.16,1.76-.49,.51-.31,.93-.71,1.23-1.23,.32-.55,.49-1.13,.47-1.75,.05-1.76-1.39-3.49-3.47-3.49-2.02,0-3.5,1.67-3.48,3.47,0,.62,.15,1.2,.46,1.74,.33,.58,.8,1.02,1.38,1.35Zm9.68,.31c1,.82,2.12,1.04,3.35,.65,1.59-.5,2.67-2.2,2.31-3.95-.23-1.13-.86-1.95-1.88-2.47-.62-.32-1.29-.42-1.99-.33-1.02,.14-1.81,.63-2.4,1.46-.42,.59-.64,1.25-.62,1.98,.01,.19,0,.39,.04,.58,.15,.83,.53,1.53,1.18,2.07Zm6.48,73.91c-.05-.08-.1-.17-.16-.24-.48-.7-.92-1.42-1.29-2.19-.28-.58-.53-1.16-.74-1.77-.05-.15-.13-.23-.28-.29-.62-.24-1.23-.48-1.85-.72-.07-.03-.14-.04-.21-.06-.04,.93,1.36,4.38,2.13,5.3,.77,0,1.54,0,2.31,0,.02,0,.04-.01,.07-.03ZM28.92,32.73c2.04,.1,3.65-1.53,3.66-3.46,0-1.91-1.48-3.45-3.39-3.51-.92-.03-1.74,.28-2.43,.91-.75,.69-1.15,1.55-1.14,2.57,0,1.99,1.57,3.4,3.3,3.48Zm48.92,45.82c-.05-.6-.12-1.21-.22-1.81-.18-1.12-.48-2.2-.85-3.27-.54-1.54-1.21-3.02-1.93-4.48-.3-.6-.62-1.19-.93-1.79-.03-.06-.05-.14-.08-.21,.32-.39,.63-.78,.95-1.17,.31-.38,.64-.74,.94-1.12,.31-.39,.65-.75,.96-1.18-1.8-.39-3.57-.73-5.33-1.13-.03-.05-.06-.08-.08-.12-.33-.65-.67-1.29-1-1.94-.5-.98-.99-1.96-1.43-2.96-.38-.86-.76-1.73-1.12-2.6-.43-1.08-.84-2.16-1.16-3.28-.22-.76-.45-1.52-.65-2.28-.23-.88-.42-1.77-.57-2.67-.14-.82-.28-1.64-.35-2.48-.02-.24-.05-.47-.07-.71-.04-.4-.07-.8-.1-1.2-.02-.27,0-.55-.03-.81-.04-.27-.03-.54-.03-.81,0-.05,.02-.1,.03-.16,.1,.03,.19,.06,.27,.08,.94,.28,1.88,.38,2.86,.25,.69-.09,1.36-.26,2.01-.53,.85-.35,1.62-.84,2.29-1.46,.61-.57,1.08-1.25,1.44-2,.4-.82,.64-1.68,.73-2.59,.05-.53,.04-1.06-.05-1.59-.11-.7-.34-1.37-.7-1.98-.38-.65-.9-1.19-1.48-1.67-.99-.82-2.1-1.41-3.32-1.83-.66-.23-1.33-.38-2.02-.48-.43-.06-.86-.07-1.29-.1-.16-.01-.32,.04-.48,.04-.7,0-1.38,.15-2.04,.37-1.25,.43-2.4,1.07-3.45,1.88-.66,.51-1.28,1.07-1.84,1.7-.42,.47-.81,.96-1.17,1.48-.47,.68-.87,1.4-1.21,2.15-.34,.77-.61,1.55-.77,2.38-.13,.69-.22,1.39-.27,2.09-.02,.3-.05,.61-.04,.91,.01,.97-.03,1.93,.03,2.9,.04,.56,.06,1.13,.09,1.69,0,.13,0,.26,.01,.39,.03,.36,.07,.71,.1,1.07,.04,.43,.08,.86,.13,1.29,.09,.87,.2,1.74,.34,2.61,.12,.72,.23,1.43,.37,2.15,.13,.69,.28,1.38,.42,2.07,.22,1.03,.48,2.05,.76,3.06,.24,.87,.5,1.73,.79,2.58,.02,.05,.07,.11,.02,.17-.03,0-.05,0-.07,0-.54-.11-1.08-.21-1.63-.32-.95-.19-1.89-.39-2.83-.59-.09-.02-.18-.05-.27-.08-.5-.87-1-1.72-1.49-2.58-.31-.54-.6-1.08-.91-1.62-.2-.35-.4-.7-.6-1.04-.02-.04-.05-.08,0-.12,.1,0,.15,.07,.19,.15,.22,.4,.45,.79,.68,1.19,.03,.04,.04,.1,.13,.07,0-.17,.02-.34,.02-.52,0-4.01,0-8.02,0-12.03,0-.09,0-.17,0-.26,0-.05-.02-.1-.03-.14-.04-.01-.06-.02-.08-.02-.51,0-1.02,0-1.53,0-.04,0-.08,.02-.13,.04v.27c0,2.93,0,5.87,0,8.8,0,.11,.01,.22,.03,.32,.02,.18,.02,.7-.02,.93-.03-.04-.06-.07-.08-.11-.16-.27-.33-.54-.48-.81-.49-.84-.98-1.69-1.47-2.54-1.02-1.77-2.04-3.54-3.05-5.3-.31-.54-.62-1.07-.92-1.61-.05-.09-.13-.17-.11-.31,.19,0,.39-.02,.58,0,.17,.02,.35,.03,.52,.03,3.12,0,6.24,0,9.36,0,.09,0,.17,0,.26,0,.06,0,.12-.03,.2-.04,0-.19,0-.36,0-.53,0-.17,.03-.34-.04-.54-.96,0-1.91,0-2.86,0h-8.69c-.14-.23-.29-.47-.43-.71-.63-1.11-1.27-2.23-1.9-3.34-.06-.11-.13-.22-.19-.34-.03-.06-.09-.09-.15-.1-.02-.07,0-.12,.09-.12,.1,.08,.19,.17,.25,.29,.12,.23,.26,.45,.39,.68,.02,.04,.03,.1,.13,.08v-.22c0-1.28,0-2.56,0-3.85,0-.05,0-.11,0-.16,0-.05-.03-.09-.05-.14-.51,.11-1.01,.08-1.5,0-.07,.13-.04,.25-.04,.36,0,1.3,0,2.61,0,3.91,0,.11,0,.22,.01,.33,.01,.11-.01,.21-.07,.31-.5,.88-1,1.75-1.5,2.63-.08,.14-.17,.27-.27,.42-.1,0-.2,0-.3,0-.42,0-.85-.02-1.27-.02-3.17,0-6.34,0-9.52,0-.09,0-.17,0-.26,0-.06,0-.12,.02-.2,.04,.01,.36-.02,.7,.02,1.04,.11,.07,.23,.04,.33,.04,3.17,0,6.34,0,9.52,0,.12,0,.24-.02,.35-.03,.22-.02,.45-.02,.7,0-.09,.2-.18,.37-.27,.54-.91,1.58-1.82,3.16-2.73,4.74-.98,1.7-1.96,3.4-2.95,5.1-.35,.6-.7,1.2-1.05,1.8-.05,.09-.08,.19-.18,.24,0-.03,0-.06,0-.08,.08-.25,.15-.5,.29-.72,.23-.37,.44-.75,.66-1.12,.05-.08,.09-.17,.09-.27,0-.23,.02-.46,.02-.68,0-2.93,0-5.87,0-8.8,0-.08,0-.15,0-.23,0-.06-.02-.12-.03-.17-.48-.04-1.47-.03-1.72,.02,0,.1-.01,.21-.01,.31,0,3.93,0,7.87,0,11.8,0,.08-.01,.16,0,.23,.06,.27,.03,.54,.04,.81,0,.11-.02,.21-.08,.31-.19,.33-.37,.66-.56,.99-.43,.75-.87,1.5-1.3,2.25-.04,.06-.08,.13-.11,.18-.09,.02-.16,.05-.23,.06-.83,.17-1.66,.34-2.48,.52-.52,.11-1.04,.22-1.56,.32-.07,.02-.15,.03-.23,.03-.08,0-.16,.08-.26,0,.03-.09,.06-.18,.09-.27,.44-1.26,.79-2.55,1.11-3.84,.29-1.16,.55-2.32,.77-3.49,.16-.87,.32-1.75,.45-2.63,.07-.48,.14-.97,.2-1.45,.08-.68,.17-1.35,.23-2.03,.06-.55,.1-1.1,.13-1.65,.03-.5,.05-1,.07-1.49,0-.04,0-.09,0-.13,.05-.42,.02-.84,.05-1.27,.06-.75-.03-1.5-.04-2.24,0-.01,0-.02,0-.03-.04-.46-.08-.93-.13-1.39-.06-.56-.16-1.11-.31-1.66-.36-1.32-.94-2.54-1.69-3.68-.68-1.03-1.48-1.95-2.41-2.77-1.23-1.09-2.62-1.93-4.17-2.48-.66-.23-1.34-.36-2.04-.38-.08,0-.15-.02-.23-.02-.19,0-.39,0-.58,0-.06,0-.13,.02-.19,.02-.5,0-.99,.08-1.48,.18-1.12,.23-2.19,.63-3.19,1.19-.86,.49-1.65,1.07-2.32,1.82-.79,.88-1.23,1.91-1.35,3.07-.03,.32-.02,.65-.03,.98-.01,.38,.05,.76,.12,1.13,.15,.74,.4,1.44,.76,2.11,.41,.77,.93,1.44,1.6,1.99,.98,.8,2.09,1.34,3.34,1.62,.72,.16,1.44,.21,2.17,.14,.47-.04,.94-.15,1.4-.3,.07-.02,.13-.08,.23-.02,0,.05,0,.12,0,.18,0,.55-.01,1.1-.06,1.66-.04,.54-.09,1.08-.13,1.62-.07,.73-.17,1.46-.29,2.19-.21,1.26-.48,2.51-.81,3.75-.42,1.57-.94,3.12-1.52,4.63-.68,1.76-1.48,3.47-2.31,5.17-.23,.47-.47,.93-.71,1.39-.21,.41-.41,.81-.62,1.22-.03,.06-.07,.11-.1,.16-.37,.08-.73,.16-1.09,.24-.35,.08-.7,.15-1.05,.23-.36,.08-.72,.15-1.08,.22-.35,.07-.7,.14-1.05,.22-.36,.08-.72,.13-1.1,.25,.96,1.19,1.95,2.33,2.88,3.5-.16,.32-.32,.61-.48,.91-.54,.99-1.02,2.01-1.48,3.04-.35,.77-.66,1.56-.95,2.35-.38,1.06-.68,2.15-.87,3.26-.16,.93-.26,1.87-.28,2.81-.02,1,0,1.99,.12,2.99,.11,.92,.27,1.82,.48,2.72,.22,.92,.51,1.82,.87,2.69,.41,1.01,.9,1.97,1.49,2.89,.49,.77,1.04,1.5,1.67,2.16,.53,.56,1.08,1.1,1.69,1.57,.92,.72,1.92,1.3,3.01,1.72,1.43,.55,2.92,.8,4.45,.82,.83,.01,1.65-.03,2.46-.16,.22-.03,.45-.03,.68-.15,.03-.21,.07-.42,.1-.64,.05-.39,.09-.77,.12-1.16,0-.07,0-.14-.01-.22-.32,.04-.62,.07-.92,.12-.52,.08-1.05,.13-1.58,.15-.63,.03-1.26,.02-1.89-.06-.38-.05-.75-.11-1.12-.18-.92-.18-1.8-.5-2.62-.94-1.24-.67-2.29-1.57-3.19-2.64-.84-.99-1.52-2.08-2.08-3.26-.41-.88-.75-1.78-1.01-2.71-.22-.82-.39-1.64-.51-2.48-.08-.57-.13-1.14-.16-1.71-.03-.57,0-1.15,0-1.73,0-.04,0-.09,0-.13,.03-.34,.07-.69,.1-1.03,.04-.51,.13-1.01,.23-1.51,.2-1,.5-1.98,.86-2.93,.47-1.24,1.01-2.44,1.6-3.63,.14-.29,.28-.59,.43-.88,.06-.12,.12-.23,.18-.36,.05,.05,.1,.08,.13,.12,.36,.43,.73,.86,1.09,1.29,.97,1.16,1.93,2.32,2.89,3.48,.55,.66,1.09,1.32,1.63,1.98,.06,.07,.11,.16,.15,.22-.17,.69-.27,1.36-.31,2.05-.02,.43-.02,.87-.02,1.3,0,.36,.02,.71,.06,1.07,.09,.69,.23,1.36,.46,2.03,.53,1.55,1.4,2.88,2.62,3.98,.96,.86,2.07,1.42,3.33,1.68,.12,.02,.23,.05,.36,.02,.07-.22,.07-.46,.13-.69,.02,.06,.04,.12,.03,.19-.03,.27-.07,.54-.07,.81,0,.12,0,.24-.01,.36-.06,.56-.11,1.12-.17,1.68-.06,.57-.13,1.14-.19,1.71-.05,.52-.1,1.03-.15,1.55-.02,.2-.03,.41-.07,.61-.12,.72-.16,1.44-.24,2.16-.06,.56-.1,1.12-.15,1.68-.06,.64-.13,1.27-.19,1.91-.07,.65-.13,1.29-.2,1.94-.06,.55-.12,1.1-.18,1.65-.05,.45-.09,.9-.13,1.36,0,.07,0,.15,0,.24,.09-.03,.16-.05,.23-.08,.27-.11,.54-.22,.82-.32,1.68-.66,3.35-1.31,5.03-1.96,1.28-.5,2.57-1,3.85-1.5,.04-.01,.08-.05,.12,.01-.21,.63-.46,1.26-.75,1.86-.43,.9-.92,1.77-1.51,2.58-.02,.03-.03,.07-.04,.12,.06,0,.1,.02,.14,.02,.71,0,1.41,0,2.12,0,.05,0,.1-.02,.16-.03,1.05-1.72,1.81-3.54,2.19-5.52,.25-.1,.5-.21,.75-.31,1.64-.64,3.27-1.28,4.91-1.92,1.14-.45,2.28-.9,3.42-1.35,.2-.08,.41-.15,.61-.24,.12-.05,.23-.06,.35,0,.04,.02,.08,.03,.12,.05,1.04,.41,2.08,.81,3.12,1.22,1.37,.54,2.75,1.07,4.12,1.62,.86,.34,1.71,.7,2.56,1.03,1.02,.4,2.05,.78,3.07,1.18,1.6,.62,3.2,1.24,4.79,1.86,1.33,.52,2.67,1.05,4,1.57,.09,.03,.18,.06,.27,.08,.05-.22-.02-.41-.03-.6-.03-.36-.06-.71-.09-1.07-.05-.52-.11-1.03-.17-1.55-.03-.33-.06-.67-.09-1-.06-.57-.13-1.14-.19-1.71-.03-.28-.04-.56-.07-.84-.05-.56-.12-1.12-.17-1.68-.03-.37-.06-.73-.09-1.1-.02-.24-.04-.47-.07-.71-.05-.43-.11-.86-.16-1.29-.07-.6-.13-1.21-.19-1.81-.07-.65-.13-1.29-.2-1.94-.05-.54-.1-1.08-.14-1.62-.01-.12,0-.24-.02-.36-.05-.49-.11-.99-.17-1.48-.06-.55-.13-1.1-.19-1.64-.02-.16-.02-.32-.03-.5,1.75-2.09,3.48-4.21,5.25-6.29,.07,.12,.09,.23,.09,.35,.01,.68,0,1.37-.11,2.04-.15,.98-.46,1.9-.96,2.75-.37,.63-.83,1.19-1.4,1.66-.64,.54-1.38,.9-2.18,1.13-.13,.04-.26,.08-.36,.11-.13,.19,0,.32,0,.47,.05,.43,.09,.86,.13,1.29,0,.1,.01,.19,.1,.28,.06,0,.12,0,.18-.01,.77-.14,1.51-.4,2.19-.79,.93-.53,1.7-1.23,2.36-2.06,.8-1.01,1.37-2.13,1.71-3.37,.25-.91,.36-1.85,.37-2.8,0-.41-.02-.82-.06-1.23-.05-.56-.13-1.12-.25-1.67-.02-.09-.03-.19-.04-.28,.06-.08,.12-.15,.17-.22,.27-.34,.55-.67,.82-1.01,.81-.98,1.62-1.95,2.43-2.93,.77-.92,1.55-1.85,2.32-2.77,.03-.04,.05-.09,.14-.08,.04,.07,.08,.14,.12,.22,.22,.46,.44,.92,.67,1.38,.48,.95,.9,1.93,1.29,2.92,.31,.78,.58,1.57,.79,2.38,.23,.88,.39,1.78,.46,2.69,.06,.67,.11,1.34,.1,2.01,0,.17-.04,.34-.04,.52,0,.34-.03,.67-.06,1.01-.04,.43-.09,.86-.16,1.29-.16,.99-.4,1.95-.72,2.9-.39,1.15-.9,2.26-1.53,3.3-.84,1.38-1.88,2.57-3.16,3.56-.8,.61-1.67,1.09-2.63,1.41-.58,.2-1.16,.35-1.76,.45-.47,.08-.95,.13-1.42,.15-.6,.03-1.19,.02-1.79-.05-.46-.05-.92-.12-1.39-.17-.15-.02-.3-.05-.46-.04,0,.07-.02,.12-.01,.17,.05,.56,.1,1.12,.16,1.68,0,.06,.04,.12,.06,.18,.41,.1,.82,.15,1.23,.19,.37,.04,.73,.08,1.1,.08,.54,0,1.09,.01,1.63-.02,.45-.03,.9-.1,1.35-.17,.73-.11,1.44-.31,2.14-.56,1.62-.6,3.03-1.55,4.27-2.74,.46-.44,.89-.93,1.28-1.43,.9-1.13,1.64-2.37,2.23-3.7,.62-1.4,1.06-2.86,1.35-4.37,.19-.99,.3-1.99,.35-3,.04-.81,.02-1.63-.04-2.44Zm-20.82-29.12c-.13-.84-.26-1.69-.36-2.54-.07-.57-.11-1.14-.16-1.71-.04-.39-.07-.78-.1-1.16-.01-.13-.01-.26-.02-.39-.02-.61-.03-1.21-.08-1.82-.03-.43-.04-.87-.04-1.3,0-.74,.04-1.47,.1-2.21,.04-.52,.12-1.03,.22-1.54,.13-.62,.35-1.21,.6-1.79,.5-1.13,1.17-2.15,1.99-3.07,.83-.94,1.8-1.73,2.9-2.34,.61-.34,1.23-.64,1.91-.81,.42-.11,.85-.17,1.28-.18,.78-.02,1.54,.07,2.29,.27,1.23,.33,2.36,.88,3.33,1.71,.35,.3,.7,.62,.93,1.04,.25,.44,.4,.9,.47,1.41,.12,.89-.05,1.73-.37,2.55-.23,.58-.56,1.11-.99,1.56-.36,.38-.78,.69-1.25,.93-.58,.31-1.19,.54-1.84,.64-1.29,.2-2.48-.04-3.52-.87-.46-.36-.92-.73-1.38-1.09-.05-.04-.11-.06-.18-.1-.01,.09-.03,.15-.03,.21-.02,.63-.03,1.26-.04,1.89-.01,.55-.02,1.11-.02,1.66,0,.42,0,.85,.02,1.27,.03,.65,.08,1.3,.13,1.94,.05,.57,.11,1.14,.2,1.71,.1,.71,.22,1.41,.35,2.12,.23,1.28,.54,2.54,.9,3.8,.3,1.04,.64,2.07,1.02,3.09,.34,.91,.69,1.82,1.09,2.72,.33,.73,.66,1.46,1,2.19,.24,.51,.49,1.02,.74,1.52,.16,.31,.32,.61,.49,.92,.03,.06,.05,.11,.08,.19-.08,0-.15,.01-.21,0-.55-.11-1.11-.22-1.66-.33-1.01-.21-2.02-.42-3.02-.63-1.19-.25-2.38-.49-3.57-.74-.2-.04-.4-.1-.61-.15-.03-.08-.06-.16-.09-.25-.48-1.43-.92-2.87-1.3-4.33-.3-1.15-.57-2.32-.8-3.49-.16-.82-.3-1.64-.43-2.46Zm-17.74-13.75s0,.09-.06,.11c0-.05-.01-.1,.06-.11ZM10.1,61.66c.14-.28,.29-.56,.43-.84,.31-.63,.63-1.26,.94-1.9,.3-.64,.6-1.28,.88-1.92,.49-1.11,.93-2.24,1.33-3.39,.51-1.44,.94-2.91,1.29-4.4,.24-.99,.44-1.99,.59-3,.1-.67,.2-1.35,.27-2.03,.05-.48,.09-.97,.13-1.46,.04-.45,.03-.91,.07-1.36,.07-.89,.01-1.78,.04-2.67-.08-.45-.02-.91-.06-1.36-.02-.19,0-.39,0-.59,0-.05-.01-.1-.02-.18-.1,.07-.17,.11-.23,.16-.43,.34-.85,.67-1.27,1.01-.57,.45-1.21,.77-1.93,.89-.42,.07-.83,.14-1.26,.05-.76-.04-1.47-.27-2.14-.62-1.18-.61-1.99-1.55-2.43-2.81-.24-.71-.36-1.43-.28-2.18,.09-.84,.41-1.56,1.01-2.16,.57-.56,1.22-1.01,1.92-1.38,.72-.37,1.47-.64,2.26-.81,.75-.17,1.5-.21,2.26-.14,.65,.06,1.27,.25,1.87,.52,1.08,.48,2.05,1.12,2.93,1.91,.95,.86,1.74,1.85,2.37,2.96,.45,.8,.82,1.63,1.04,2.52,.11,.44,.18,.89,.24,1.34,.11,.84,.14,1.69,.13,2.53,0,.67,.01,1.35-.03,2.02-.03,.5-.01,1-.09,1.49-.02,.14,0,.28-.02,.42-.04,.57-.08,1.15-.14,1.72-.07,.63-.15,1.27-.23,1.9-.06,.46-.12,.92-.2,1.38-.15,.9-.3,1.8-.47,2.69-.22,1.13-.48,2.25-.77,3.36-.3,1.14-.63,2.28-1,3.4-.13,.39-.25,.78-.39,1.21-2.86,.62-5.71,1.19-8.55,1.79-.17,.04-.34,.05-.54,.08,.03-.08,.05-.13,.07-.17Zm7.43,23.79c-.88-.42-1.6-1.04-2.17-1.83-.71-.98-1.14-2.08-1.33-3.28-.1-.64-.13-1.27-.12-1.91,0-.15,.02-.3,.03-.52,.19,.21,.34,.37,.47,.53,1.6,1.93,3.21,3.84,4.79,5.77-.02,.59-.1,1.16-.18,1.75-.06,0-.11,0-.16-.02-.46-.13-.91-.28-1.34-.48Zm1.44,.94s.01,.04,.01,.06c0,.02-.01,.04-.02,.06,0-.02-.01-.04-.01-.06,0-.02,.01-.04,.02-.06Zm0-.21v-.12h.02v.12h-.02Zm-.07,.63v-.15s.01,0,.02,0v.15h-.02Zm.02,.16v.12h-.02v-.12h.02Zm52.72-17.9c-1.19,1.43-2.37,2.85-3.56,4.28-1.62,1.94-3.23,3.89-4.85,5.83-1.32,1.58-2.63,3.17-3.95,4.75-.05,.06-.09,.12-.14,.18,.03,.35,.07,.69,.1,1.04,.06,.64,.13,1.27,.19,1.91,.06,.58,.13,1.16,.18,1.74,.03,.33,.06,.67,.09,1,.05,.49,.11,.99,.17,1.48,.02,.23,.05,.45,.07,.68,.03,.33,.06,.67,.09,1,.05,.51,.11,1.01,.17,1.52,.03,.24,.05,.47,.07,.71,.05,.48,.09,.97,.14,1.45,.06,.64,.13,1.27,.19,1.91,.07,.65,.13,1.29,.2,1.94,.07,.65,.13,1.29,.2,1.94,.07,.65,.13,1.29,.2,1.94,0,.06,0,.13,0,.18-.08,.06-.14,0-.19-.02-1.1-.43-2.2-.86-3.3-1.29-1.6-.62-3.19-1.24-4.79-1.87-.89-.35-1.78-.7-2.66-1.05-1.61-.63-3.21-1.25-4.82-1.88-.89-.35-1.78-.7-2.66-1.05-1.05-.41-2.1-.82-3.15-1.23-.09-.04-.18-.06-.28-.1-7.27,2.84-14.54,5.69-21.82,8.54,0-.15,0-.28,0-.41,.03-.36,.07-.71,.11-1.07,.06-.56,.12-1.12,.18-1.68,.03-.27,.04-.54,.07-.81,.06-.57,.13-1.14,.19-1.71,.03-.24,.05-.47,.07-.71,.07-.75,.14-1.51,.22-2.26,.06-.66,.13-1.31,.2-1.97,.06-.64,.13-1.27,.19-1.91,.07-.65,.13-1.29,.2-1.94,.06-.64,.13-1.27,.19-1.91,.07-.65,.13-1.29,.2-1.94,.06-.64,.13-1.27,.19-1.91,0-.09,.03-.17,.04-.28-5.63-6.77-11.28-13.56-16.94-20.37,.75-.18,1.47-.31,2.19-.47,.71-.15,1.42-.3,2.13-.44,.72-.15,1.44-.29,2.17-.44,.72-.15,1.44-.3,2.16-.45,.72-.15,1.44-.3,2.16-.45,.71-.15,1.42-.3,2.13-.44,.72-.15,1.44-.3,2.16-.45,.72-.15,1.44-.3,2.16-.45,.72-.15,1.44-.3,2.17-.45,.71-.15,1.42-.29,2.13-.44,.72-.15,1.44-.3,2.2-.46,.17-.29,.33-.57,.5-.85,1.05-1.82,2.1-3.65,3.15-5.47,.74-1.28,1.47-2.56,2.21-3.84,1.03-1.79,2.06-3.57,3.09-5.36,1.19-2.06,2.37-4.12,3.55-6.18,.13-.23,.28-.46,.41-.68,.08-.02,.09,.03,.11,.07,.02,.04,.05,.07,.07,.11,.44,.77,.89,1.54,1.33,2.31,1.27,2.2,2.54,4.4,3.8,6.6,1.03,1.79,2.06,3.57,3.08,5.36,1.18,2.05,2.36,4.1,3.54,6.15,.29,.51,.58,1.02,.88,1.52,.05,.08,.1,.16,.16,.26,7.9,1.64,15.81,3.29,23.73,4.94-.03,.12-.11,.19-.17,.27-.45,.53-.89,1.07-1.34,1.6-.96,1.16-1.93,2.32-2.89,3.48ZM28.24,39.83c.31,.04,1.44,.03,1.73-.01v-6.14c0-.18,0-.37,0-.55,0-.06-.02-.12-.04-.2-.57,.16-1.13,.12-1.69,0-.06,.11-.04,.22-.04,.33,0,.81,0,1.63,0,2.44,0,1.27,0,2.54,0,3.81,0,.1-.03,.22,.04,.31Z"/></g><path class="cls-1" d="M39.48,75.45c.03,.07,.06,.14,.1,.2,.73,.98,1.47,1.97,2.2,2.95,1.21,1.62,2.41,3.24,3.62,4.85,.89,1.19,1.78,2.38,2.67,3.58,.95,1.28,1.91,2.56,2.86,3.84,1.36,1.82,2.71,3.64,4.06,5.46,.88,1.17,1.75,2.35,2.63,3.52,.31,.42,.62,.84,.93,1.25,.03,.04,.06,.09,.09,.14-.06,.05-.11,0-.15,0-1.05-.41-2.1-.82-3.15-1.23-1.37-.54-2.75-1.07-4.12-1.61-1.13-.44-2.26-.89-3.39-1.33-1.37-.54-2.75-1.07-4.12-1.61-1.13-.44-2.26-.89-3.39-1.33-.31-.12-.62-.24-.94-.37,0-.09-.02-.16-.02-.23,0-.09,0-.17,0-.26,0-5.81,0-11.63,0-17.44,0-.1,0-.2,0-.29,0-.05-.05-.09-.07-.13h0s0-.04,0-.06c0,0,0,0,0,0,.03-.04,.07-.09,.07-.13,.01-.11,0-.22,0-.33,0-11.23,0-22.46,0-33.68,0-.13,0-.25,0-.38,.03,0,.04,0,.05,.01,0,0,.02,.01,.02,.02,.03,.05,.06,.09,.09,.14,3.75,6.51,7.5,13.01,11.25,19.52,.04,.07,.08,.13,.12,.21-.04,.07-.09,.14-.14,.21-.95,1.21-1.91,2.42-2.86,3.63-1.01,1.29-2.03,2.57-3.04,3.86-1.22,1.54-2.43,3.08-3.65,4.63-.54,.69-1.09,1.38-1.63,2.07-.05,.06-.09,.12-.15,.22,.08-.02,.12-.02,.16-.03,.75-.23,1.49-.46,2.24-.7,.74-.23,1.49-.47,2.23-.7,.81-.25,1.61-.51,2.42-.76,.72-.23,1.45-.45,2.17-.68,.79-.24,1.57-.49,2.36-.73,.76-.24,1.51-.47,2.27-.71,.8-.25,1.59-.5,2.39-.75,.8-.25,1.6-.49,2.39-.74,.58-.18,1.16-.36,1.74-.55,.94-.3,1.88-.59,2.82-.88,.79-.25,1.57-.49,2.36-.73,1.14-.35,2.28-.71,3.42-1.07,1.11-.35,2.21-.69,3.32-1.04,.09-.03,.19-.05,.28-.08,.04,.09-.02,.13-.06,.17-.67,.8-1.34,1.6-2,2.4-1.04,1.25-2.08,2.51-3.12,3.76-.83,1-1.67,2-2.5,3-1.53,1.84-3.06,3.69-4.6,5.53-.91,1.09-1.82,2.18-2.73,3.28-.03,.03-.06,.06-.1,.11-.08-.03-.16-.05-.24-.08-1.3-.6-2.6-1.2-3.9-1.8-1.37-.63-2.74-1.26-4.11-1.89-1.37-.63-2.74-1.26-4.11-1.89-1.17-.54-2.35-1.08-3.52-1.62-.46-.21-.92-.43-1.39-.64-.04-.02-.1-.01-.15-.02,0,0,0-.02,0-.03,0,0-.01,0-.02-.01,0,.01,.02,.02,.03,.03Z"/><path class="cls-1" d="M39.29,75.32c-.34-.1-.68-.2-1.03-.31-1.17-.36-2.34-.72-3.51-1.09-.95-.3-1.9-.6-2.86-.89-1.13-.35-2.26-.7-3.38-1.05-.93-.29-1.86-.59-2.79-.88-.94-.29-1.89-.58-2.83-.87-.8-.25-1.59-.51-2.39-.76-.93-.29-1.86-.58-2.8-.87-.59-.18-1.18-.37-1.77-.55-1.17-.36-2.34-.73-3.51-1.09-.76-.24-1.51-.47-2.27-.71-1.11-.35-2.21-.69-3.32-1.04-.05-.02-.11-.03-.13-.1,7.02-1.46,14.04-2.92,21.07-4.38,.1,.06,.16,.17,.24,.26,1.1,1.39,2.19,2.77,3.29,4.16,1.19,1.51,2.37,3.02,3.56,4.53,.71,.9,1.43,1.8,2.14,2.7,.73,.92,1.45,1.84,2.17,2.76,.05,.06,.11,.11,.09,.2h0Z"/><path class="cls-1" d="M39.28,75.38c.01,.14-.1,.21-.17,.3-.53,.72-1.06,1.43-1.59,2.14-.92,1.24-1.85,2.47-2.77,3.71-1.48,1.98-2.96,3.97-4.44,5.95-.86,1.16-1.73,2.32-2.59,3.47-1.37,1.84-2.74,3.67-4.11,5.51-.87,1.17-1.74,2.33-2.61,3.5-.26,.35-.52,.7-.78,1.05-.04,.06-.09,.12-.14,.18-.08-.03-.06-.09-.06-.14,.03-.32,.06-.65,.09-.97,.03-.32,.07-.65,.11-.97,.05-.44,.09-.88,.14-1.32,.06-.64,.13-1.27,.19-1.91,.07-.65,.13-1.29,.2-1.94,.06-.64,.13-1.27,.19-1.91,.09-.85,.18-1.7,.26-2.55,.07-.65,.13-1.29,.2-1.94,.07-.66,.14-1.31,.2-1.97,.07-.71,.14-1.42,.21-2.15,.22-.11,.44-.22,.67-.32,.76-.35,1.52-.7,2.28-1.04,.89-.41,1.77-.81,2.66-1.22,.62-.29,1.24-.58,1.86-.86,.78-.36,1.56-.71,2.34-1.07,.73-.34,1.46-.67,2.19-1.01,.79-.36,1.58-.73,2.37-1.09,.63-.29,1.26-.59,1.89-.87,.4-.18,.81-.36,1.22-.54h0Z"/></g></g></g></svg>