<?xml version="1.0" encoding="UTF-8" standalone="no"?>
<svg
   viewBox="409.289 277.787 163 114"
   width="163"
   height="114"
   version="1.1"
   id="svg10"
   xmlns="http://www.w3.org/2000/svg"
   xmlns:svg="http://www.w3.org/2000/svg">
  <defs
     id="defs10" />
  <path
     id="path1"
     style="fill:#ff0000;fill-opacity:1;stroke-width:5.70263"
     class="style-scope yt-icon"
     d="m 490.78802,277.787 c 0,0 -50.97326,1e-4 -63.67994,3.40508 -7.01747,1.87676 -12.53236,7.38651 -14.41086,14.39756 -3.40812,12.6949 -3.40822,39.19736 -3.40822,39.19736 0,0 1e-4,26.50234 3.40822,39.19736 1.8785,7.01099 7.39339,12.52112 14.41086,14.39756 12.70668,3.40518 63.67994,3.40508 63.67994,3.40508 0,0 50.97572,1e-4 63.6819,-3.40508 7.01747,-1.87644 12.53269,-7.38657 14.41085,-14.39756 3.40833,-12.69502 3.40823,-39.19736 3.40823,-39.19736 0,0 -0.0136,-26.50246 -3.40823,-39.19736 -1.87816,-7.01105 -7.39338,-12.5208 -14.41085,-14.39756 -12.70618,-3.40498 -63.6819,-3.40508 -63.6819,-3.40508 z m -16.31579,32.57811 42.34736,24.42383 -42.34736,24.4258 z" />
</svg>
