<?xml version="1.0" encoding="UTF-8" standalone="no"?>
<svg
   width="46"
   height="14"
   viewBox="0 0 46 14"
   version="1.1"
   xml:space="preserve"
   style="clip-rule:evenodd;fill-rule:evenodd;stroke-linejoin:round;stroke-miterlimit:2"
   id="svg18"
   xmlns="http://www.w3.org/2000/svg"
   xmlns:svg="http://www.w3.org/2000/svg"><defs
     id="defs18" /><path
     style="stroke-width:0.99906"
     d="M 8.2965712,11.873304 7.1785156,8.3058134 8.2346788,3.2405371 9.434592,6.9730038 Z"
     id="path1" /><path
     style="fill-rule:nonzero;stroke-width:0.99906"
     d="m 12.43138,6.6690473 c 0.01697,-0.052993 1.057162,-2.9445794 1.057162,-2.9445794 0.06788,0.251964 0.171701,0.4049422 0.24158,0.5479217 -0.631901,0.6429082 -1.163976,2.1056992 -1.298742,2.3966577 z"
     id="path2" /><path
     style="stroke-width:0.99906"
     d="m 20.716971,6.1241251 c 0.01797,1.8807313 -2.310981,4.4493639 -5.838846,2.4226539 -0.07886,-0.580917 0.18967,-1.3428082 0.465191,-1.8277389 2.253082,2.2586773 4.809635,0.5069276 4.608984,-1.5207827 0.334419,0.2189687 0.653863,0.4849307 0.764671,0.9258677 z"
     id="path3" /><path
     style="fill-rule:nonzero;stroke-width:0.99906"
     d="M 3.1305556,11.958292 H 1.8957031 L 2.9249132,9.6126267 h 0.575 z"
     id="path4" /><path
     style="stroke-width:0.99906"
     d="M 5.2987847,0 4.4572483,3.0705613 3.2593316,3.9564348 c 0,0 -0.3633681,-0.6449079 -0.5390625,-0.993858 0.07487,0.4029424 0.181684,0.7988858 0.3124566,1.1868304 L 2.8949653,4.2433938 2.8490451,4.0914155 2.7112847,3.6794743 2.4167969,2.7986002 2.9458767,1.1738323 Z"
     id="path5" /><path
     style="stroke-width:0.99906"
     d="m 42.433203,7.1549778 -4.671875,4.1024142 0.59796,-2.8455937 5.408594,-4.8103128 z"
     id="path6" /><path
     style="stroke-width:0.99906"
     d="M 28.079167,5.4692187 C 27.810634,4.4713612 26.081641,4.6283388 23.852517,5.0832738 24.014236,4.3703756 24.24783,3.0695615 24.24783,3.0695615 c 2.281033,0.058992 3.424045,0.3549493 4.009028,0.8198829 0,0 9.98e-4,0 9.98e-4,9.998e-4 0.50612,0.4809313 0.194661,1.1188402 -0.178689,1.5787745 z"
     id="path7" /><path
     style="stroke-width:0.99906"
     d="m 32.250911,12.138266 c -5.688107,0.183974 -8.804687,-1.547779 -9.496484,-2.4896444 -0.08186,-0.1269819 -0.159722,-0.2649622 -0.04492,-0.3589487 0.191667,-0.1729753 1.948611,-0.034995 2.581511,-0.1649765 0.627908,0.4629339 1.019227,0.7458935 2.916927,1.0218536 0.682812,0.794887 2.766189,1.82374 4.042968,1.991716 z"
     id="path8" /><path
     style="fill-rule:nonzero;stroke-width:0.99906"
     d="M 39.269705,4.5273532 38.916319,5.691187 37.650521,6.5060705 C 37.54171,6.1581202 37.412934,5.8151692 37.268186,5.4792172 c 0.0579,0.377946 0.135764,0.7518926 0.233594,1.1208399 v 9.999e-4 l -0.13277,0.084988 -0.453211,-1.6907584 0.04193,-0.1809742 c 0.397309,-0.286959 2.311979,-0.286959 2.311979,-0.286959 z"
     id="path9" /><path
     style="fill-rule:nonzero;stroke-width:0.99906"
     d="m 8.1498264,3.0705613 c 0,0 -2.0424479,6.7150407 -2.266059,7.4389377 l 0.00699,0.002 -2.591493,1.446794 2.1971788,-7.4449368 z"
     id="path10" /><path
     style="fill-rule:nonzero;stroke-width:0.99906"
     d="m 13.315842,3.0705613 -2.258073,7.4409367 -2.5914929,1.446794 0.2485677,-0.84288 v -10e-4 C 9.1361111,9.9155835 10.422873,5.5112127 10.662457,4.5133552 Z"
     id="path11" /><path
     style="stroke-width:0.99906"
     d="M 3.521875,6.0401371 1.7259983,11.958292 0,10.511498 1.5832465,5.1432652 2.6623698,4.4303671 c 0,0 0.3483941,0.664905 0.5061198,1.028853 C 3.1026042,5.0492787 3.0117622,4.6423368 2.8949653,4.2433938 l 0.1377604,-0.093987 z"
     id="path12" /><path
     style="fill-rule:nonzero;stroke-width:0.99906"
     d="m 19.176649,11.986288 c -2.573524,0.985859 -7.470008,-0.483931 -6.813151,-4.2823886 0.06389,-0.321954 0.140755,-0.6209113 0.230599,-0.8998714 0.31046,-0.9718612 0.794618,-1.6667619 1.305729,-2.2146836 2.137283,-2.2866734 4.80165,-1.3038138 5.091146,-1.2248251 0.365365,0.098986 1.749957,0.9298672 1.746962,2.2596772 -0.01497,-0.030996 -0.389323,-0.636909 -1.145009,-0.9468647 v 9.999e-4 c -1.254817,-0.4659335 -4.865538,0.1739751 -4.978342,3.7624624 -0.07487,2.3976579 3.446007,2.3236679 4.730773,1.9547209 -0.02496,0.313955 -0.168707,1.590773 -0.168707,1.590773 z"
     id="path13" /><path
     style="fill-rule:nonzero;stroke-width:0.99906"
     d="m 24.100087,3.0705613 -2.255078,7.4319387 -0.003,0.009 -2.393837,1.336809 -0.198654,0.109985 0.134765,-0.455935 v -10e-4 C 19.506071,11.2164 21.446696,4.5133572 21.446696,4.5133572 Z"
     id="path14" /><path
     style="stroke-width:0.99906"
     d="m 28.645182,4.7753178 c 0,0.3049564 -0.06089,2.2796743 -0.06289,2.3546636 -0.01,0.2819597 -0.137761,0.517926 -0.350391,0.7168976 -0.376345,0.3559491 -1.020226,0.594915 -1.752951,0.7668904 -9.99e-4,9.999e-4 -0.002,9.999e-4 -0.003,9.999e-4 -1.848785,0.3819454 -3.672613,0.086988 -3.788412,0.4219397 0.09084,-0.2619626 0.271528,-0.9978574 0.452214,-1.4637909 0.180686,-0.4569347 4.93941,0.094987 5.505425,-2.7976003 z"
     id="path15" /><path
     style="stroke-width:0.99906"
     d="M 39.217795,4.4173689 C 33.109418,3.8254535 25.175217,10.154549 34.658724,10.35652 c -0.93138,0.878875 -1.370616,1.26282 -1.990538,1.781746 -9.793967,-2.8685903 -0.246571,-9.3756607 4.761719,-9.2006857 0.236588,0.1909728 1.533333,1.2758178 1.78789,1.4797886 z"
     id="path16" /><path
     style="stroke-width:0.99906"
     d="M 46,4.4913584 43.093056,14 41.357075,12.616198 44.152214,3.2425368 Z"
     id="path17" /><path
     style="stroke-width:0.99906"
     d="m 38.067795,8.4887873 -0.443229,1.4607913 c -9.98e-4,0.002 -0.633898,1.9897154 -0.633898,1.9897154 l -1.702039,-1.427796 0.903428,-3.0605624 1.026216,-0.6669048 c 0.113802,0.3329525 0.241579,0.6609056 0.383333,0.9818598 C 37.537717,7.4049421 37.465842,7.0399943 37.36901,6.6860448 l 0.13277,-0.084988 c 0.06688,0.2509641 0.14375,0.4999286 0.2296,0.7448936 0,0.003 9.99e-4,0.005 0.002,0.007 z"
     id="path18" /></svg>
