<?xml version="1.0" encoding="UTF-8"?><svg id="Layer_2" xmlns="http://www.w3.org/2000/svg" viewBox="0 0 361.79 84.62"><defs><style>.cls-1{fill:#fff;fill-rule:evenodd;}.cls-2{opacity:.6;}</style></defs><g id="Layer_2-2"><g><path class="cls-1" d="M126.52,61.97L118.83,1.54h-12.48l-31.79,83.08h13.1l21.62-56.51,7.18,56.51,12.27-.02,26.65-54.86v54.88h12.92V1.54h-12.42l-29.35,60.43Zm129.02-17.74l-21.71,3.77L216.5,2.37l-.35-.83h-11.98l-20.99,55.27-10.63,1.85,2.23,12.44,3.19-.55-5.34,14.07h12.99l6.26-16.49,34.33-5.97,8.53,22.46h13l-9.33-24.58,19.36-3.37-2.22-12.44Zm-58.44,10.16l13.08-34.45,11.46,30.18-24.54,4.27Zm-127.89-1.8c-4.37,11.12-15.17,18.53-27.16,18.53-16.11,0-29.22-13.09-29.22-29.17S25.94,12.78,42.05,12.78c12.08,0,22.92,7.5,27.24,18.73h13.49v-.05C77.97,12.93,61.23,0,42.05,0,18.86,0,0,18.83,0,41.97s18.86,41.97,42.05,41.97c19.15,0,35.87-12.89,40.69-31.36h-13.53ZM273.63,14.51l-.83,3.87,30.84,6.54,.82-3.87-30.83-6.54Z"/><g class="cls-2"><path class="cls-1" d="M277.05,72.52h-4.25v11.43h4.25c3.89,0,5.32-2.44,5.32-5.71s-1.39-5.72-5.32-5.72Zm-.39,9.49h-1.48v-7.54h1.48c2.58,0,3.2,1.59,3.2,3.77s-.59,3.77-3.2,3.77Zm7.73,1.94h6.97v-1.94h-4.59v-2.9h4.54v-1.94h-4.54v-2.7h4.59v-1.94h-6.97v11.43Zm14.55-11.43l-3.63,11.43h2.47l.73-2.4h4.46l.73,2.4h2.45l-3.63-11.43h-3.57Zm.11,7.2l1.66-5.46h.03l1.67,5.46h-3.36Zm10.87-7.2h-2.38v11.43h6.21v-2.07h-3.83v-9.36Zm11.38,7.59l-3.11-7.59h-2.81v11.43h2.24v-7.67l3.13,7.67h1.07l3.13-7.67v7.67h2.24v-11.43h-2.76l-3.13,7.59Zm10.91-7.59l-3.63,11.43h2.47l.73-2.4h4.46l.73,2.4h2.45l-3.63-11.43h-3.57Zm.11,7.2l1.66-5.46h.03l1.67,5.46h-3.36Zm12.73-7.2h-4.25v11.43h4.25c3.89,0,5.32-2.44,5.32-5.71s-1.39-5.72-5.32-5.72Zm-.39,9.49h-1.48v-7.54h1.48c2.58,0,3.19,1.59,3.19,3.77s-.58,3.77-3.19,3.77Zm13.49-9.49h-3.57l-3.63,11.43h2.47l.73-2.4h4.46l.73,2.4h2.45l-3.63-11.43Zm-3.45,7.2l1.65-5.46h.03l1.67,5.46h-3.36Zm-70.09-11.45v-11.43h-2.76l-3.13,7.59-3.12-7.59h-2.81v11.43h2.24v-7.67l3.13,7.67h1.07l3.13-7.67v7.67h2.24Zm11.24-11.43h-2.38v7.38c0,1.49-.49,2.28-2.08,2.28s-2.06-.79-2.06-2.28v-7.38h-2.38v7.54c0,2.75,1.38,4.16,4.44,4.16s4.46-1.41,4.46-4.16v-7.54Zm9.47,7.74l-4.77-7.74h-2.37v11.43h2.3v-7.75l4.75,7.75h2.39v-11.43h-2.3v7.74Zm4.89,3.69h2.38v-11.43h-2.38v11.43Zm9.75,.28c2.77,0,4.87-1.7,4.91-4.4h-2.5c-.08,1.49-.88,2.36-2.53,2.36-2.24,0-2.72-1.77-2.72-3.97s.49-3.95,2.71-3.95c1.52,0,2.45,.89,2.5,2.44h2.5c-.08-2.7-2.04-4.47-4.88-4.47-3.84,0-5.34,2.75-5.34,5.99s1.51,5.99,5.35,5.99Zm6.84-.28h2.38v-11.43h-2.38v11.43Zm9.41-11.43h-4.43v11.43h2.38v-4.63h2.04c2.59,0,3.7-1.34,3.7-3.46s-1.01-3.34-3.7-3.34Zm-.68,5h-1.36v-3.21h1.36c1.35,0,1.93,.49,1.93,1.59s-.58,1.62-1.93,1.62Zm6.26,6.43l.73-2.39h4.46l.73,2.39h2.45l-3.63-11.43h-3.57l-3.63,11.43h2.46Zm2.93-9.68h.03l1.67,5.46h-3.36l1.65-5.46Zm13.04,7.61h-3.83v-9.36h-2.39v11.43h6.21v-2.07Zm-79.6-13.36c2.77,0,4.87-1.7,4.91-4.4h-2.5c-.08,1.49-.88,2.36-2.53,2.36-2.24,0-2.72-1.76-2.72-3.97s.49-3.95,2.71-3.95c1.52,0,2.45,.89,2.5,2.44h2.5c-.08-2.7-2.04-4.47-4.88-4.47-3.84,0-5.34,2.75-5.34,5.99s1.51,5.99,5.35,5.99Zm8.67-2.67h4.46l.73,2.4h2.45l-3.63-11.43h-3.57l-3.63,11.43h2.46l.73-2.4Zm2.21-7.29h.03l1.67,5.46h-3.36l1.65-5.46Zm0-4.06l.99,1.21h2.04l-1.73-2.22h-2.56l-1.75,2.22h2.04l.97-1.21Zm9.06,6.07l3.13,7.67h1.07l3.13-7.67v7.67h2.24v-11.43h-2.76l-3.13,7.59-3.12-7.59h-2.81v11.43h2.24v-7.67Zm14.16,5.28h4.46l.73,2.4h2.45l-3.63-11.43h-3.57l-3.63,11.43h2.47l.73-2.4Zm2.21-7.29h.03l1.67,5.46h-3.36l1.65-5.46Zm9.21,5.03h.88l3.15,4.65h2.64l-3.27-4.78c1.86-.4,2.48-1.73,2.48-3.37,0-1.93-.99-3.29-3.73-3.29h-4.52v11.43h2.38v-4.65Zm0-4.99h1.46c1.36,0,1.96,.44,1.96,1.55s-.53,1.72-1.96,1.72h-1.46v-3.27Zm10.17,7.24h4.46l.73,2.4h2.45l-3.63-11.43h-3.57l-3.63,11.43h2.46l.73-2.4Zm2.21-7.29h.03l1.67,5.46h-3.36l1.65-5.46Z"/></g></g></g></svg>