<?xml version="1.0" encoding="UTF-8" standalone="no"?>
<svg
   id="Layer_2"
   viewBox="0 0 305.19 80.26"
   version="1.1"
   xmlns="http://www.w3.org/2000/svg"
   xmlns:svg="http://www.w3.org/2000/svg">
  <defs
     id="defs1">
    <style
       id="style1">.cls-1,.cls-2{fill:#fff;}.cls-3{opacity:.8;}.cls-2{opacity:.6;}.cls-4{opacity:.3;}</style>
  </defs>
  <path
     class="cls-2"
     d="M 58.94,10.03 H 5.02 V 65.21 H 60.19 V 10.03 Z M 55.18,16.3 V 45.14 H 10.03 V 15.05 h 45.15 z m -30.1,42.64 v -3.76 h -5.02 v -5.02 h 5.02 v 5.02 h 15.05 v -5.02 h 5.02 v 5.02 H 40.13 V 60.2 H 25.08 v -1.25 z"
     id="path1"
     style="fill:#000000" />
  <g
     id="g6"
     style="opacity:0.3">
    <polygon
       class="cls-1"
       points="48.91,5.02 47.65,5.02 46.4,5.02 45.14,5.02 43.89,5.02 42.64,5.02 41.38,5.02 40.13,5.02 38.87,5.02 37.62,5.02 36.37,5.02 35.11,5.02 33.86,5.02 32.6,5.02 31.35,5.02 30.1,5.02 28.84,5.02 27.59,5.02 26.33,5.02 25.08,5.02 23.83,5.02 22.57,5.02 21.32,5.02 20.06,5.02 18.81,5.02 17.56,5.02 16.3,5.02 15.05,5.02 13.79,5.02 12.54,5.02 11.29,5.02 10.03,5.02 10.03,6.27 10.03,7.52 10.03,8.78 10.03,10.03 11.29,10.03 12.54,10.03 13.79,10.03 15.05,10.03 16.3,10.03 17.56,10.03 18.81,10.03 20.06,10.03 21.32,10.03 22.57,10.03 23.83,10.03 25.08,10.03 26.33,10.03 27.59,10.03 28.84,10.03 30.1,10.03 31.35,10.03 32.6,10.03 33.86,10.03 35.11,10.03 36.37,10.03 37.62,10.03 38.87,10.03 40.13,10.03 41.38,10.03 42.64,10.03 43.89,10.03 45.14,10.03 46.4,10.03 47.65,10.03 48.91,10.03 50.16,10.03 51.41,10.03 52.67,10.03 53.92,10.03 55.18,10.03 56.43,10.03 57.68,10.03 58.94,10.03 60.19,10.03 60.19,8.78 60.19,7.52 60.19,6.27 60.19,5.02 58.94,5.02 57.68,5.02 56.43,5.02 55.18,5.02 53.92,5.02 52.67,5.02 51.41,5.02 50.16,5.02 "
       id="polygon1"
       style="opacity:1;fill:#000000" />
    <polygon
       class="cls-1"
       points="22.57,20.06 23.83,20.06 25.08,20.06 26.33,20.06 27.59,20.06 28.84,20.06 30.1,20.06 31.35,20.06 32.6,20.06 33.86,20.06 35.11,20.06 36.37,20.06 37.62,20.06 38.87,20.06 40.13,20.06 41.38,20.06 42.64,20.06 43.89,20.06 45.14,20.06 46.4,20.06 47.65,20.06 48.91,20.06 50.16,20.06 51.41,20.06 52.67,20.06 53.92,20.06 55.18,20.06 55.18,18.81 55.18,17.56 55.18,16.3 55.18,15.05 53.92,15.05 52.67,15.05 51.41,15.05 50.16,15.05 48.91,15.05 47.65,15.05 46.4,15.05 45.14,15.05 43.89,15.05 42.64,15.05 41.38,15.05 40.13,15.05 38.87,15.05 37.62,15.05 36.37,15.05 35.11,15.05 33.86,15.05 32.6,15.05 31.35,15.05 30.1,15.05 28.84,15.05 27.59,15.05 26.33,15.05 25.08,15.05 23.83,15.05 22.57,15.05 21.32,15.05 20.06,15.05 18.81,15.05 17.56,15.05 16.3,15.05 15.05,15.05 13.79,15.05 12.54,15.05 11.29,15.05 10.03,15.05 10.03,16.3 10.03,17.56 10.03,18.81 10.03,20.06 11.29,20.06 12.54,20.06 13.79,20.06 15.05,20.06 16.3,20.06 17.56,20.06 18.81,20.06 20.06,20.06 21.32,20.06 "
       id="polygon2"
       style="opacity:1;fill:#000000" />
    <polygon
       class="cls-1"
       points="47.65,65.21 46.4,65.21 45.14,65.21 43.89,65.21 42.64,65.21 41.38,65.21 40.13,65.21 38.87,65.21 37.62,65.21 36.37,65.21 35.11,65.21 33.86,65.21 32.6,65.21 31.35,65.21 30.1,65.21 28.84,65.21 27.59,65.21 26.33,65.21 25.08,65.21 23.83,65.21 22.57,65.21 21.32,65.21 20.06,65.21 18.81,65.21 17.56,65.21 16.3,65.21 15.05,65.21 13.79,65.21 12.54,65.21 11.29,65.21 10.03,65.21 8.78,65.21 7.52,65.21 6.27,65.21 5.02,65.21 5.02,66.46 5.02,67.72 5.02,68.97 5.02,70.22 6.27,70.22 7.52,70.22 8.78,70.22 10.03,70.22 11.29,70.22 12.54,70.22 13.79,70.22 15.05,70.22 16.3,70.22 17.56,70.22 18.81,70.22 20.06,70.22 21.32,70.22 22.57,70.22 23.83,70.22 25.08,70.22 26.33,70.22 27.59,70.22 28.84,70.22 30.1,70.22 31.35,70.22 32.6,70.22 33.86,70.22 35.11,70.22 36.37,70.22 37.62,70.22 38.87,70.22 40.13,70.22 41.38,70.22 42.64,70.22 43.89,70.22 45.14,70.22 46.4,70.22 47.65,70.22 48.91,70.22 50.16,70.22 51.41,70.22 52.67,70.22 53.92,70.22 55.18,70.22 56.43,70.22 57.68,70.22 58.94,70.22 60.19,70.22 60.19,68.97 60.19,67.72 60.19,66.46 60.19,65.21 58.94,65.21 57.68,65.21 56.43,65.21 55.18,65.21 53.92,65.21 52.67,65.21 51.41,65.21 50.16,65.21 48.91,65.21 "
       id="polygon3"
       style="opacity:1;fill:#000000" />
  </g>
  <path
     class="cls-1"
     d="M 52.67,20.06 H 10.03 V 45.14 H 55.18 V 20.06 Z M 25.08,26.33 V 40.12 H 20.06 V 25.07 h 5.02 v 1.25 z m 20.06,0 V 40.12 H 40.12 V 25.07 h 5.02 v 1.25 z M 79,20.06 H 70.22 V 5.02 H 65.2 V 0 H 5.02 V 5.02 H 0 v 70.22 h 5.02 v 5.02 H 30.1 v -5.02 h 5.02 v 5.02 H 60.2 v -5.02 h 5.02 v -5.02 h 5.02 V 50.16 h 5.02 v -5.02 h 5.02 V 20.06 h -1.25 z m -3.76,6.27 v 13.79 h -5.02 v 5.02 H 65.2 V 65.2 h -5.02 v 5.02 h -5.02 v 5.02 H 40.11 V 70.22 H 25.06 v 5.02 H 10.03 V 70.22 H 5.02 V 10.03 h 5.02 V 5.02 h 50.15 v 5.02 h 5.02 v 30.1 h 5.02 V 25.09 h 5.02 v 1.25 z m -32.6,23.83 h -2.51 v 5.02 h 5.02 v -5.02 z m -17.56,2.51 v -2.51 h -5.02 v 5.02 h 5.02 z m 12.54,2.51 H 25.08 v 5.02 h 15.05 v -5.02 z"
     id="path3"
     style="fill:#000000" />
  <path
     class="cls-1"
     d="m 121.26,20.77 h -21.11 v 6.03 h 6.03 v 24.12 h 12.06 V 26.8 h 6.03 v -6.03 h -3.02 z m 36.18,0 h -21.11 v 6.03 h 6.03 v 18.09 h -6.03 v 6.03 h 24.12 v -6.03 h -6.03 V 26.8 h 6.03 v -6.03 h -3.02 z m 33.17,3.02 v -3.02 h -18.09 v 6.03 h -6.03 v 18.09 h 6.03 v 6.03 h 18.09 V 44.89 H 178.55 V 26.8 h 12.06 v -3.02 z m 3.02,3.02 h -3.02 v 6.03 h 6.03 v -6.03 h -3.02 z m 72.37,0 h -3.02 v 6.03 h 6.03 v -6.03 h -3.02 z m 37.69,0 h -4.52 v -6.03 h -18.09 v 6.03 h -6.03 V 44.9 h 6.03 v 6.03 h 18.09 V 44.9 h -12.06 v -6.03 h 6.03 v -6.03 h -6.03 v -6.03 h 6.03 v 6.03 h 6.03 V 44.9 h 6.03 V 26.8 h -1.51 z m -79.91,6.03 H 208.7 v 6.03 h 18.09 v -6.03 h -3.02 z m 36.18,0 h -9.05 v -6.03 h 12.06 v -6.03 h -18.09 v 6.03 h -6.03 v 6.03 h 6.03 v 6.03 h -6.03 v 6.03 h 6.03 v 6.03 h 18.09 V 44.9 h -12.06 v -6.03 h 12.06 v -6.03 h -3.02 z m 3.02,9.05 v 3.02 h 6.03 v -6.03 h -6.03 v 3.02 z m -69.35,3.02 h 3.02 v -6.03 h -6.03 v 6.03 h 3.02 z"
     id="path4"
     style="fill:#000000" />
  <path
     class="cls-1"
     d="m 125.45,63.57 h -3.99 v 2.66 h 5.33 v -2.66 h -1.33 z m -13.31,2.66 h -3.99 v -2.66 h -5.33 v 2.66 h -2.66 v 2.66 h 2.66 v 5.33 h 2.66 v 2.66 h 7.99 v -2.66 h -5.33 v -5.33 h 5.33 v -2.66 z m 47.93,0 h -3.99 v 5.33 h -5.33 v 2.66 h 5.33 v 2.66 h -5.33 v 2.66 h 7.99 v -2.66 h 2.66 V 66.23 Z m 31.95,0 h -9.32 v 2.66 h -2.66 v 5.33 h 2.66 v 2.66 h 10.65 v -2.66 h -5.33 v -5.33 h 5.33 v -2.66 z m 63.91,0 h -1.33 v 7.99 h 2.66 v -7.99 z m 15.98,0 h -3.99 v -2.66 h -5.33 v 2.66 h -2.66 v 2.66 h 2.66 v 5.33 h 2.66 v 2.66 h 7.99 v -2.66 h -5.33 v -5.33 h 5.33 v -2.66 z m -129.15,1.33 v -1.33 h -10.65 v 10.65 h 5.33 v -7.99 h 5.33 v -1.33 z m 159.77,0 v -1.33 h -10.65 v 10.65 h 5.33 v -7.99 h 5.33 v -1.33 z m -177.08,1.33 h -3.99 v 7.99 h 5.33 v -7.99 h -1.33 z m 18.64,0 h -1.33 v 7.99 h 2.66 v -7.99 z m 63.91,0 h -1.33 v 5.33 h 2.66 v -5.33 z m 15.98,0 h -1.33 v -2.66 h -2.66 v 2.66 h -2.66 V 66.23 H 212 v 10.65 h 2.66 v -5.33 h 2.66 v 5.33 h 2.66 v -5.33 h 2.66 v 5.33 h 2.66 v -7.99 h -1.33 z m 15.98,0 h -1.33 v 5.33 h 2.66 v -5.33 z m 47.93,0 h -1.33 v -2.66 h -7.99 v 2.66 h -2.66 v 5.33 h 2.66 v 2.66 h 7.99 v -2.66 h -2.66 v -2.66 h -2.66 V 68.9 h 2.66 v 2.66 h 5.33 V 68.9 h -1.33 z m 16.64,0 h -2 v 2.66 h 2.66 v -2.66 h -0.67 z m -153.78,1.33 v -3.99 h -2.66 v 5.33 h 2.66 v -1.33 z m 54.59,3.99 h -3.99 v -5.33 h 5.33 v -2.66 h -7.99 v 2.66 h -2.66 v 5.33 h 2.66 v 2.66 h 7.99 v -2.66 h -1.33 z m 31.95,0 h -3.99 v -5.33 h 5.33 v -2.66 h -10.65 v 13.31 h 5.33 v -2.66 h 5.33 v -2.66 h -1.33 z m 15.98,0 h -3.99 v -7.99 h -5.33 v 7.99 h 2.66 v 2.66 h 7.99 v -2.66 z"
     id="path5"
     style="opacity:0.8;fill:#000000" />
</svg>
