<?xml version="1.0" encoding="UTF-8" standalone="no"?>
<svg
   id="Layer_2"
   viewBox="0 0 327.44 113.78"
   version="1.1"
   xmlns="http://www.w3.org/2000/svg"
   xmlns:svg="http://www.w3.org/2000/svg">
  <defs
     id="defs1">
    <style
       id="style1">.cls-1,.cls-2,.cls-3,.cls-4{fill:#fff;}.cls-2{opacity:.5;}.cls-3{opacity:.8;}.cls-4{opacity:.6;}.cls-5{fill:#979697;}</style>
  </defs>
  <g
     id="g39">
    <path
       class="cls-1"
       d="m 151.83,29.5 v 30.36 h 30.27 v 5.82 H 140.06 V 29.5 Z"
       id="path5"
       style="fill:#1a1a1a" />
    <path
       class="cls-1"
       d="m 243.13,29.87 c 9.19,0.01 18.38,0.02 27.57,0.04 0.81,0 1.62,0.04 2.43,0.06 v 5.81 h 5.93 V 65.85 H 267.17 V 53.93 H 248.88 V 65.84 H 236.99 V 35.76 h 5.85 c 0.1,-2.14 0.19,-4 0.28,-5.87 z m 23.89,17.87 V 35.71 h -18.08 v 12.03 z"
       id="path7"
       style="fill:#1a1a1a" />
    <path
       class="cls-1"
       d="m 194.55,29.93 c 9.97,0 19.93,0 29.9,0 v 5.68 h 6.06 v 24.28 h -5.95 v 5.94 h -30.07 v -5.97 h -5.96 V 35.73 h 6.03 v -5.79 z m 24.12,5.73 h -18.15 v 24.2 h 18.15 z"
       id="path8"
       style="fill:#1a1a1a" />
    <path
       class="cls-1"
       d="m 285.44,29.95 c 9.98,0 19.96,0 29.94,0 v 5.8 h 6.06 v 6.08 h 5.99 v 11.96 h -5.87 v 6.14 h -6.07 v 5.93 h -29.94 c -0.05,-0.16 -0.18,-0.4 -0.18,-0.64 0,-11.76 0.03,-23.51 0.05,-35.27 z m 24.18,5.78 h -12.24 v 24.08 h 12.38 v -5.9 h 5.87 V 41.65 h -6 v -5.93 z"
       id="path9"
       style="fill:#1a1a1a" />
  </g>
  <g
     id="g40"
     style="opacity:0.6">
    <path
       class="cls-4"
       d="m 307.86,81.48 c 0.12,0.51 0.24,1 0.36,1.53 3.78,-2.86 6.58,-2.72 8.85,0.19 1.41,-0.67 2.71,-1.56 4.15,-1.93 3.38,-0.87 6.15,1.31 6.2,4.75 0.05,3.85 0.01,7.7 0.01,11.69 h -4.26 c 0,-2.19 0,-4.29 0,-6.4 0,-1.34 0.05,-2.68 -0.02,-4.02 -0.07,-1.42 -1.06,-2.54 -2.22,-2.65 -1.36,-0.13 -2.73,0.99 -2.93,2.51 -0.11,0.85 -0.04,1.73 -0.04,2.6 0,2.44 -0.01,4.89 -0.03,7.33 0,0.15 -0.08,0.29 -0.17,0.61 h -4.1 c 0,-2.75 0.02,-5.48 0,-8.21 0,-0.86 -0.04,-1.74 -0.22,-2.57 -0.35,-1.58 -1.28,-2.33 -2.55,-2.22 -1.58,0.13 -2.34,0.9 -2.4,2.64 -0.07,1.97 -0.03,3.94 -0.03,5.91 0,1.41 0,2.82 0,4.43 h -4.44 V 81.49 h 3.85 z"
       id="path13"
       style="fill:#1a1a1a;opacity:1" />
    <path
       class="cls-4"
       d="m 201.78,82.12 c -1.44,-2.95 -3.3,-3.88 -6.32,-3.15 -0.52,0.13 -1.04,0.39 -1.47,0.72 -1.49,1.13 -1.31,3.09 0.46,3.72 2.05,0.72 4.23,1.08 6.32,1.7 1.94,0.57 3.98,0.98 5.14,2.96 2.01,3.45 0.66,7.75 -3.23,9.38 -3.71,1.55 -7.55,1.46 -11.09,-0.58 -2.13,-1.23 -3.32,-3.19 -3.19,-6.04 1.03,0 1.88,0.03 2.73,0 1.05,-0.05 1.69,0.21 2.07,1.4 0.24,0.76 1.12,1.53 1.9,1.88 1.77,0.78 3.67,0.71 5.48,0 1.05,-0.41 1.55,-1.2 1.57,-2.38 0.02,-1.29 -0.7,-1.82 -1.79,-2.12 -2.56,-0.69 -5.11,-1.41 -7.67,-2.09 -1.91,-0.51 -3.13,-1.75 -3.72,-3.58 -0.95,-2.94 0.41,-6.58 3.24,-7.83 3.68,-1.63 7.48,-1.72 11,0.57 1.87,1.22 2.93,2.97 2.57,5.46 h -3.98 z"
       id="path15"
       style="fill:#1a1a1a;opacity:1" />
    <path
       class="cls-4"
       d="m 178.08,97.73 h -5.6 c -1.31,-2.28 -2.67,-4.63 -4.21,-7.3 -1.23,2.03 -2.36,3.71 -3.29,5.49 -0.74,1.41 -1.64,2.21 -3.33,1.95 -0.92,-0.14 -1.88,-0.02 -3.21,-0.02 2.46,-3.94 4.76,-7.64 7.07,-11.35 -2.19,-3.54 -4.36,-7.04 -6.67,-10.78 h 5.53 c 1.24,2.24 2.49,4.5 3.88,7.02 1.13,-1.99 2.23,-3.76 3.17,-5.61 0.57,-1.11 1.24,-1.7 2.56,-1.55 1.08,0.12 2.18,0.02 3.66,0.02 -1.36,2.2 -2.55,4.1 -3.71,6.02 -0.93,1.54 -2.51,3.1 -2.53,4.66 -0.02,1.55 1.49,3.16 2.42,4.69 1.33,2.19 2.73,4.34 4.25,6.74 z"
       id="path19"
       style="fill:#1a1a1a;opacity:1" />
    <path
       class="cls-4"
       d="m 145.93,94.01 h 10.99 v 3.69 h -16.8 c -0.21,-2.14 -0.37,-3.99 1.32,-5.88 2.98,-3.32 5.58,-6.98 8.33,-10.51 0.32,-0.41 0.55,-0.88 1,-1.62 -3.65,-0.58 -7.07,0 -10.55,-0.36 V 75.8 h 16.67 c 0.56,2.02 0.08,3.71 -1.28,5.37 -3.05,3.69 -5.96,7.49 -8.9,11.27 -0.26,0.34 -0.38,0.78 -0.76,1.58 z"
       id="path20"
       style="fill:#1a1a1a;opacity:1" />
    <path
       class="cls-4"
       d="m 209.8,81.44 c 4.06,-0.18 3.34,-0.5 4.33,1.63 1.72,-1.81 3.79,-2.39 6.19,-1.78 2.58,0.65 4.52,2.77 4.91,5.42 0.26,1.78 0.29,3.51 0.07,5.34 -0.61,5.13 -6.6,8.36 -10.66,4.87 -0.16,-0.14 -0.4,-0.19 -0.8,-0.36 v 7.74 H 209.8 V 81.45 Z m 11.33,8.35 c -0.06,-0.01 -0.12,-0.02 -0.19,-0.03 0,-0.55 0.08,-1.12 -0.01,-1.65 -0.34,-1.94 -2.03,-3.47 -3.67,-3.39 -1.99,0.1 -3.26,1.5 -3.39,3.81 -0.05,0.94 -0.06,1.89 0,2.83 0.14,1.82 1.06,2.89 2.6,3.18 1.93,0.35 3.27,-0.26 4.02,-2.04 0.36,-0.84 0.43,-1.8 0.63,-2.71 z"
       id="path21"
       style="fill:#1a1a1a;opacity:1" />
    <path
       class="cls-4"
       d="M 243.64,90.76 H 232.1 c -0.7,1.69 0.09,2.71 1.23,3.51 1.36,0.95 3.31,0.87 4.65,-0.06 1.88,-1.3 2.41,-1.39 5.24,-0.79 -0.89,2.52 -2.67,4.22 -5.13,4.7 -6.84,1.33 -11.83,-2.56 -10.74,-10.27 0.76,-5.36 5.93,-8.03 10.63,-6.59 3.29,1 5.16,3.35 5.66,7.78 0.05,0.46 0,0.93 0,1.72 z m -11.79,-3.01 h 7.04 c -0.52,-2.41 -1.21,-3.06 -3.19,-3.14 -2.29,-0.1 -3.06,0.48 -3.85,3.14 z"
       id="path22"
       style="fill:#1a1a1a;opacity:1" />
    <path
       class="cls-4"
       d="m 295.47,81.38 h 4.3 V 97.7 h -3.89 c -0.09,-0.45 -0.18,-0.95 -0.29,-1.52 -0.21,0.1 -0.45,0.14 -0.6,0.28 -1.83,1.64 -3.82,2.22 -6.29,1.5 -2.03,-0.59 -3.03,-1.91 -3.36,-3.79 -0.28,-1.61 -0.38,-3.27 -0.42,-4.91 -0.07,-2.51 -0.02,-5.03 -0.02,-7.75 h 4.66 c 0,2.13 0,4.24 0,6.34 0,1.34 -0.02,2.68 0.01,4.02 0.05,2.03 0.62,2.64 2.44,2.68 1.89,0.05 3.14,-0.86 3.23,-2.63 0.13,-2.59 0.06,-5.2 0.1,-7.8 0.01,-0.84 0.08,-1.68 0.13,-2.75 z"
       id="path23"
       style="fill:#1a1a1a;opacity:1" />
    <path
       class="cls-4"
       d="m 259.75,87.35 h -3.99 c -0.12,-0.23 -0.27,-0.49 -0.39,-0.76 -0.54,-1.29 -1.47,-2.03 -2.89,-1.97 -1.33,0.06 -2.75,1.15 -2.92,2.66 -0.19,1.68 -0.05,3.42 0.14,5.11 0.16,1.4 1.06,2.17 2.57,2.24 1.4,0.06 2.48,-0.23 2.93,-1.72 0.11,-0.36 0.35,-0.68 0.57,-1.08 h 3.92 c 0.08,2.53 -1.2,4.23 -3.05,5.46 -4.48,2.99 -10.33,0.51 -11.59,-4.72 -0.68,-2.82 -0.25,-5.37 0.91,-7.96 1.15,-2.58 5.27,-4.12 7.56,-3.57 1.13,0.27 2.31,0.48 3.35,0.96 2.17,1 2.89,2.88 2.87,5.36 z"
       id="path24"
       style="fill:#1a1a1a;opacity:1" />
    <path
       class="cls-4"
       d="m 263.55,84.75 c -0.85,-0.1 -1.52,-0.17 -2.26,-0.26 v -2.57 c 0.63,-0.16 1.28,-0.32 2.19,-0.54 v -4.23 h 4.2 v 4.21 c 0.92,0.2 1.64,0.36 2.46,0.55 v 2.46 c -0.71,0.14 -1.44,0.28 -2.24,0.43 v 9.57 c 0.73,0.28 1.44,0.54 2.23,0.85 v 2.65 c -1.36,0 -2.61,0.07 -3.84,-0.02 -1.75,-0.12 -2.69,-1.12 -2.72,-2.86 -0.04,-2.6 -0.01,-5.2 -0.01,-7.79 0,-0.77 0,-1.54 0,-2.45 z"
       id="path27"
       style="fill:#1a1a1a;opacity:1" />
    <path
       class="cls-4"
       d="m 277.32,97.74 h -4.13 v -16.3 h 3.9 c 0.1,0.64 0.2,1.3 0.33,2.11 0.76,-0.69 1.37,-1.44 2.15,-1.89 0.77,-0.45 1.71,-0.59 2.8,-0.95 v 4.52 c -0.19,0.08 -0.41,0.27 -0.6,0.24 -2.99,-0.41 -4.19,1.13 -4.43,4.68 -0.09,1.26 -0.01,2.52 -0.02,3.78 0,1.18 0,2.36 0,3.81 z"
       id="path28"
       style="fill:#1a1a1a;opacity:1" />
  </g>
  <g
     id="g41">
    <g
       id="g35"
       style="opacity:0.8">
      <path
         class="cls-3"
         d="m 53.37,0 c -0.13,0.48 -0.19,0.99 -0.4,1.44 -3.27,7.16 -6.56,14.31 -9.84,21.47 -2.83,6.19 -5.65,12.38 -8.46,18.57 -1.83,4.04 -3.63,8.1 -5.44,12.16 -3.46,1.33 -6.59,3.2 -9.29,5.89 -3.52,-1.61 -6.99,-3.19 -10.63,-4.86 0.5,-1.15 0.94,-2.22 1.42,-3.28 C 17.29,36.98 23.85,22.58 30.4,8.17 31.64,5.47 32.81,2.73 34.01,0 40.46,0 46.92,0 53.37,0 Z"
         id="path4"
         style="fill:#1a1a1a;opacity:1" />
      <path
         class="cls-3"
         d="m 17.33,80.1 h -4.88 c 0.64,2.33 1.21,4.41 1.78,6.49 -0.67,1.47 -1.32,2.95 -2.01,4.42 -1.23,2.63 -2.49,5.26 -3.73,7.88 C 5.77,95.64 4.02,91.86 2.84,87.85 0.65,80.46 0.81,73.07 3.23,65.6 c 0.49,0.2 0.95,0.34 1.37,0.56 1.55,0.78 3.08,1.29 4.36,-0.39 1.78,0.81 3.41,1.56 5.11,2.34 -0.5,2.1 -0.98,4.15 -1.54,6.5 2.43,0.04 4.65,0.08 6.87,0.12 -0.33,0.87 -0.66,1.74 -0.99,2.61 -0.36,0.92 -0.72,1.84 -1.08,2.76 z"
         id="path10"
         style="fill:#1a1a1a;opacity:1" />
      <path
         class="cls-3"
         d="m 24.26,64.45 c -0.45,0.97 -0.92,1.92 -1.33,2.9 -0.21,0.5 -0.32,1.05 -0.47,1.58 -1.96,-0.83 -3.94,-1.63 -5.89,-2.5 -2.93,-1.3 -5.83,-2.65 -8.8,-4 -0.38,0.64 -0.72,1.2 -1.1,1.84 -1.23,-0.56 -2.39,-1.09 -3.59,-1.64 0.28,-0.68 0.51,-1.24 0.8,-1.95 -1.26,-0.59 -2.46,-1.16 -3.89,-1.83 2.33,-0.8 4.47,-1.56 6.64,-2.25 0.32,-0.1 0.77,0 1.1,0.15 5.33,2.42 10.66,4.86 15.98,7.3 0.2,0.09 0.36,0.26 0.54,0.39 z"
         id="path17"
         style="fill:#1a1a1a;opacity:1" />
    </g>
    <g
       id="g38"
       style="opacity:0.5">
      <path
         class="cls-2"
         d="m 112.46,0 c -1.79,4 -3.56,8 -5.37,11.99 -8.72,19.19 -17.46,38.37 -26.19,57.55 -2.72,5.98 -5.44,11.97 -8.17,17.95 -0.25,0.56 -0.53,1.1 -0.79,1.64 Q 67.89,87.59 66.12,88.9 c -1.67,-0.77 -3.35,-1.54 -5.02,-2.3 0.51,-2.12 1.01,-4.17 1.58,-6.51 h -5.89 c 0.27,-0.65 0.56,-1.3 0.81,-1.96 0.42,-1.12 0.82,-2.24 1.22,-3.36 1.17,-0.06 2.33,-0.13 3.77,-0.21 -0.38,-1.8 -0.75,-3.51 -1.11,-5.21 1.09,-2.28 2.2,-4.55 3.25,-6.85 2.7,-5.93 5.36,-11.87 8.06,-17.8 1.37,-3.02 2.8,-6.01 4.17,-9.03 3.06,-6.75 6.08,-13.52 9.14,-20.26 2.02,-4.45 4.1,-8.87 6.11,-13.32 0.29,-0.65 0.38,-1.39 0.57,-2.08 6.57,0 13.13,0 19.7,0 z"
         id="path1"
         style="fill:#1a1a1a;opacity:1" />
      <path
         class="cls-2"
         d="m 41.83,113.4 c 0.23,-0.79 0.37,-1.62 0.71,-2.37 1.31,-2.95 2.7,-5.86 4.03,-8.8 0.2,-0.44 0.22,-0.95 0.32,-1.43 3.02,-1.51 5.96,-3.14 8.36,-5.63 3.54,1.61 7.01,3.19 10.63,4.84 -0.34,0.47 -0.61,0.93 -0.96,1.32 -5.75,6.34 -12.75,10.44 -21.25,11.82 -0.61,0.1 -1.22,0.17 -1.83,0.26 z"
         id="path11"
         style="fill:#1a1a1a;opacity:1" />
      <path
         class="cls-2"
         d="m 52.03,90.9 c 0.09,-1.8 1.12,-3.19 2.03,-4.64 3.9,1.75 7.8,3.5 11.69,5.25 0.51,0.23 1.03,0.45 1.66,0.72 0.35,-0.6 0.68,-1.16 1.06,-1.82 1.19,0.54 2.38,1.09 3.66,1.68 -0.29,0.67 -0.53,1.22 -0.82,1.91 1.22,0.59 2.41,1.17 3.85,1.87 -2.28,0.8 -4.29,1.55 -6.34,2.18 -0.47,0.15 -1.12,0 -1.6,-0.21 -5.08,-2.29 -10.14,-4.62 -15.2,-6.94 z"
         id="path18"
         style="fill:#1a1a1a;opacity:1" />
    </g>
    <g
       id="g36">
      <path
         class="cls-1"
         d="M 41.74,69.34 C 40.4,68.77 39.06,68.22 37.73,67.63 35.63,66.7 33.54,65.71 31.43,64.81 30.58,64.45 30.28,63.92 30.3,63 c 0.06,-2.59 0.02,-5.19 0.02,-7.78 v -1.71 c -0.43,0.05 -0.76,0.09 -1.08,0.13 1.81,-4.05 3.61,-8.11 5.44,-12.16 2.81,-6.2 5.63,-12.39 8.46,-18.57 3.27,-7.16 6.57,-14.31 9.84,-21.47 0.2,-0.45 0.27,-0.96 0.4,-1.44 6.68,0 13.36,0 20.04,0 -0.94,2.1 -1.86,4.21 -2.82,6.31 -1.94,4.25 -3.9,8.48 -5.84,12.73 -3.34,7.32 -6.67,14.63 -9.98,21.96 -2.07,4.56 -4.11,9.13 -6.16,13.69 -1.2,-0.43 -2.39,-0.85 -3.83,-1.36 v 10.58 c -0.29,0.29 -0.67,0.53 -0.85,0.88 -0.76,1.5 -1.46,3.04 -2.18,4.56 z"
         id="path2"
         style="fill:#1a1a1a" />
      <path
         class="cls-1"
         d="m 8.49,98.89 c 1.25,-2.63 2.5,-5.25 3.73,-7.88 0.69,-1.46 1.34,-2.94 2.01,-4.42 1.42,3.28 3.3,6.26 5.9,8.76 1.84,1.77 3.9,3.22 6.15,4.42 0.44,0.23 0.85,0.5 1.27,0.76 -1.52,3.33 -3.05,6.65 -4.57,9.98 -3.02,-1.04 -5.68,-2.73 -8.06,-4.8 -2.07,-1.8 -3.91,-3.86 -5.84,-5.83 -0.26,-0.27 -0.4,-0.65 -0.6,-0.99 z"
         id="path12"
         style="fill:#1a1a1a" />
      <path
         class="cls-1"
         d="m 35.59,83.29 c -3.91,-1.24 -5.24,-4.91 -3.36,-9.67 -2.37,-1.1 -4.77,-2.18 -7.14,-3.3 -0.9,-0.42 -1.76,-0.92 -2.64,-1.38 0.15,-0.53 0.26,-1.08 0.47,-1.58 0.41,-0.98 0.89,-1.94 1.33,-2.9 1.04,0.41 2.11,0.77 3.13,1.23 4.26,1.93 8.5,3.88 12.75,5.84 0.25,0.11 0.46,0.3 0.69,0.45 -0.61,1.17 -1.21,2.34 -1.82,3.51 -0.65,-0.09 -1.34,-0.36 -1.93,-0.22 -0.9,0.21 -1.64,0.86 -1.69,1.87 -0.06,1.19 0.5,2.04 1.7,2.4 -0.5,1.26 -1,2.51 -1.5,3.77 z"
         id="path14"
         style="fill:#1a1a1a" />
      <path
         class="cls-1"
         d="m 17.33,80.1 c 0.36,-0.92 0.72,-1.84 1.08,-2.76 0.34,-0.87 0.66,-1.74 0.99,-2.61 3.09,0 6.18,0 9.39,0 v 5.37 z"
         id="path26"
         style="fill:#1a1a1a" />
      <path
         class="cls-1"
         d="m 34.73,85.87 c -0.35,0.48 -0.77,0.92 -1.02,1.45 -0.88,1.86 -1.68,3.75 -2.55,5.62 -0.15,0.33 -0.46,0.59 -0.69,0.88 -0.05,-1.73 -0.12,-3.46 -0.14,-5.19 -0.02,-1.94 0,-3.88 0,-5.74 1.5,1.01 2.95,1.99 4.41,2.97 z"
         id="path29"
         style="fill:#1a1a1a" />
    </g>
    <g
       id="g37"
       style="opacity:0.8">
      <path
         class="cls-3"
         d="M 48.6,54.69 C 50.65,50.13 52.69,45.56 54.76,41 58.08,33.68 61.41,26.36 64.74,19.04 66.68,14.79 68.64,10.56 70.58,6.31 71.54,4.21 72.46,2.1 73.4,0 79.85,0 86.31,0 92.76,0 92.58,0.7 92.49,1.44 92.19,2.08 90.18,6.53 88.1,10.95 86.08,15.4 83.02,22.15 80,28.91 76.94,35.66 c -1.37,3.02 -2.8,6.01 -4.17,9.03 -2.69,5.93 -5.36,11.87 -8.06,17.8 -1.05,2.3 -2.17,4.57 -3.25,6.85 -1.24,-2.3 -2.33,-4.7 -3.75,-6.88 -1.87,-2.85 -4.47,-5.01 -7.41,-6.74 -0.57,-0.34 -1.14,-0.69 -1.71,-1.04 z"
         id="path3"
         style="fill:#1a1a1a;opacity:1" />
      <path
         class="cls-3"
         d="m 27.55,100.52 c 0.85,0.24 1.7,0.48 2.73,0.78 0.06,-2.56 0.13,-5.01 0.19,-7.47 0.23,-0.29 0.54,-0.55 0.69,-0.88 0.86,-1.87 1.67,-3.76 2.55,-5.62 0.25,-0.53 0.68,-0.97 1.02,-1.45 3.34,1.5 6.68,3 10.1,4.53 v 10.86 c 0.78,-0.17 1.42,-0.31 2.05,-0.45 -0.1,0.48 -0.12,0.99 -0.32,1.43 -1.33,2.94 -2.71,5.85 -4.03,8.8 -0.33,0.75 -0.48,1.57 -0.71,2.37 -0.23,0.02 -0.45,0.03 -0.68,0.05 -0.8,0.11 -1.59,0.22 -2.39,0.33 h -2.04 c -0.59,-0.08 -1.19,-0.17 -1.78,-0.25 -4.19,-0.23 -8.21,-1.11 -11.96,-3.03 1.52,-3.33 3.05,-6.65 4.57,-9.98 z"
         id="path6"
         style="fill:#1a1a1a;opacity:1" />
      <path
         class="cls-4"
         d="m 35.59,83.29 c 0.5,-1.26 1,-2.51 1.5,-3.77 2.15,-0.11 3.21,-1.37 2.53,-3.05 -0.14,-0.36 -0.41,-0.67 -0.61,-1 0.61,-1.17 1.21,-2.34 1.82,-3.51 3.19,2.04 3.91,5.09 2.06,9.08 3.72,1.74 7.45,3.47 11.17,5.21 -0.9,1.45 -1.93,2.84 -2.03,4.64 -5.3,-2.41 -10.6,-4.81 -15.9,-7.22 -0.2,-0.09 -0.36,-0.25 -0.54,-0.38 z"
         id="path16"
         style="fill:#1a1a1a;opacity:1" />
      <path
         class="cls-3"
         d="m 58.81,74.77 c -0.41,1.12 -0.8,2.25 -1.22,3.36 -0.25,0.66 -0.54,1.31 -0.81,1.96 -3.47,0.13 -6.94,0.04 -10.4,0.07 v -5.39 z"
         id="path25"
         style="fill:#1a1a1a;opacity:1" />
      <path
         class="cls-3"
         d="m 41.74,69.34 c 0.72,-1.52 1.42,-3.06 2.18,-4.56 0.18,-0.35 0.56,-0.59 0.85,-0.88 0,2.57 0,5.14 0.01,7.7 -0.09,0 -0.18,0.01 -0.26,0.06 -0.93,-0.78 -1.85,-1.56 -2.78,-2.33 z"
         id="path30"
         style="fill:#1a1a1a;opacity:1" />
    </g>
    <path
       class="cls-5"
       d="m 44.52,71.68 c 0.08,-0.05 0.17,-0.07 0.26,-0.06 v 0.25 C 44.69,71.81 44.6,71.74 44.52,71.68 Z"
       id="path31"
       style="fill:#1a1a1a" />
  </g>
</svg>
