<?xml version="1.0" encoding="UTF-8" standalone="no"?>
<svg
   id="Layer_2"
   viewBox="0 0 322.24 77.04"
   version="1.1"
   xmlns="http://www.w3.org/2000/svg"
   xmlns:svg="http://www.w3.org/2000/svg">
  <defs
     id="defs1">
    <style
       id="style1">.cls-1,.cls-2,.cls-3{fill:#fff;}.cls-2{opacity:.3;}.cls-3{opacity:.6;}</style>
  </defs>
  <g
     id="g25">
    <path
       class="cls-1"
       d="m 168.61,30.57 c 0.03,0.31 0.04,0.6 0.08,0.89 0.22,1.8 0.71,3.52 1.67,5.08 1.19,1.92 2.83,3.24 5.04,3.8 0.73,0.19 1.48,0.25 2.22,0.26 1.07,0.02 2.13,-0.11 3.15,-0.5 1.47,-0.56 2.61,-1.53 3.5,-2.81 0.53,-0.76 0.94,-1.58 1.28,-2.44 0.09,-0.21 0.18,-0.42 0.27,-0.63 0.13,-0.02 0.22,-0.05 0.3,-0.04 1.78,0.22 3.56,0.44 5.34,0.67 0.1,0.01 0.19,0.07 0.32,0.12 0,0.14 0.03,0.27 0,0.38 -0.68,2.47 -1.76,4.73 -3.6,6.57 -1.54,1.53 -3.39,2.52 -5.47,3.08 -1.05,0.28 -2.12,0.46 -3.22,0.55 -0.84,0.07 -1.67,0.1 -2.5,0.07 -2.24,-0.08 -4.42,-0.47 -6.46,-1.44 -2.99,-1.41 -5.12,-3.67 -6.48,-6.67 -0.78,-1.73 -1.21,-3.56 -1.43,-5.44 -0.2,-1.67 -0.21,-3.34 -0.09,-5 0.22,-3.07 0.96,-6 2.65,-8.62 2.05,-3.17 4.9,-5.2 8.61,-5.98 1.65,-0.35 3.31,-0.45 4.98,-0.33 2,0.15 3.92,0.63 5.7,1.58 2.32,1.24 4.02,3.08 5.32,5.34 0.89,1.56 1.41,3.25 1.77,5 0.26,1.26 0.41,2.53 0.39,3.82 0,0.66 0,1.33 0,1.99 0,0.17 -0.03,0.33 -0.06,0.52 -0.15,0.03 -0.27,0.07 -0.39,0.07 -0.19,0.01 -0.39,0 -0.58,0 -7.18,0 -14.35,0 -21.53,0 -0.25,0 -0.51,-0.04 -0.79,0.06 z m 0.36,-5.04 h 10.86 c 1.76,0 3.51,0 5.27,0 0.2,0 0.43,0.07 0.61,-0.1 -0.04,-1.17 -0.43,-2.59 -0.81,-3.49 -0.94,-2.22 -2.57,-3.7 -4.87,-4.42 -1.19,-0.37 -2.42,-0.45 -3.68,-0.3 -2.05,0.24 -3.74,1.12 -5.12,2.65 -1.33,1.48 -2.02,3.25 -2.26,5.21 -0.01,0.12 0,0.25 0,0.46 z"
       id="path6"
       style="fill:#1a1a1a" />
    <path
       class="cls-1"
       d="m 251.9,28.5 c 0.02,2.49 -0.25,4.84 -0.93,7.14 -0.65,2.17 -1.69,4.11 -3.32,5.71 -2.17,2.13 -4.75,3.48 -7.73,4.03 -1.27,0.23 -2.55,0.32 -3.83,0.25 -2.13,-0.11 -4.2,-0.49 -6.14,-1.43 -2.7,-1.3 -4.69,-3.34 -6.06,-5.98 -0.88,-1.69 -1.4,-3.49 -1.71,-5.36 -0.34,-2.04 -0.37,-4.1 -0.23,-6.15 0.14,-2.08 0.54,-4.11 1.33,-6.05 1.38,-3.38 3.81,-5.74 7.1,-7.25 1.45,-0.66 2.98,-1.02 4.57,-1.19 1.05,-0.11 2.1,-0.15 3.14,-0.08 2.62,0.18 5.09,0.86 7.32,2.31 1.01,0.66 1.89,1.46 2.68,2.38 1.76,2.07 2.9,4.43 3.42,7.09 0.3,1.54 0.44,3.09 0.41,4.56 z m -14.93,12.11 c 0.27,-0.02 0.66,-0.03 1.04,-0.07 1.53,-0.14 2.91,-0.66 4.1,-1.64 1.1,-0.91 1.85,-2.06 2.43,-3.35 0.84,-1.87 1.14,-3.85 1.24,-5.87 0.05,-1.07 0.03,-2.14 -0.09,-3.21 -0.18,-1.58 -0.54,-3.12 -1.25,-4.56 -0.58,-1.17 -1.32,-2.2 -2.33,-3.04 -1.46,-1.22 -3.19,-1.69 -5.05,-1.75 -0.49,-0.01 -0.98,0.05 -1.47,0.1 -1.44,0.14 -2.74,0.64 -3.88,1.54 -0.98,0.78 -1.65,1.78 -2.22,2.88 -0.98,1.92 -1.4,3.99 -1.5,6.12 -0.09,1.69 0,3.38 0.35,5.05 0.33,1.59 0.89,3.08 1.82,4.42 0.86,1.25 1.97,2.19 3.38,2.77 1.07,0.44 2.19,0.56 3.44,0.59 z"
       id="path7"
       style="fill:#1a1a1a" />
    <path
       class="cls-1"
       d="m 193.64,35.2 c 0.12,-0.24 0.26,-0.3 0.45,-0.32 0.78,-0.12 1.56,-0.25 2.34,-0.37 0.74,-0.12 1.48,-0.24 2.22,-0.35 0.23,-0.03 0.46,-0.03 0.73,-0.05 0.06,0.16 0.13,0.29 0.17,0.43 0.16,0.6 0.28,1.21 0.49,1.79 0.76,2.12 2.3,3.39 4.45,3.96 0.86,0.23 1.73,0.3 2.6,0.31 1.18,0.02 2.35,-0.04 3.5,-0.33 0.79,-0.2 1.54,-0.5 2.19,-1.02 0.55,-0.44 0.94,-0.99 1.18,-1.65 0.28,-0.76 0.32,-1.55 0.21,-2.34 -0.11,-0.83 -0.55,-1.49 -1.31,-1.87 -0.53,-0.27 -1.09,-0.5 -1.65,-0.71 -1.61,-0.59 -3.27,-0.97 -4.93,-1.41 -1.57,-0.41 -3.14,-0.83 -4.69,-1.3 -1.57,-0.48 -3,-1.25 -4.25,-2.32 -1.53,-1.3 -2.46,-2.93 -2.72,-4.94 -0.27,-2.05 0.11,-3.96 1.15,-5.74 0.48,-0.82 1.12,-1.52 1.85,-2.12 1.63,-1.33 3.49,-2.13 5.56,-2.47 1.62,-0.27 3.24,-0.31 4.87,-0.21 1.71,0.11 3.4,0.38 5.01,0.99 1.46,0.55 2.76,1.36 3.79,2.56 0.63,0.74 1.1,1.58 1.47,2.47 0.34,0.83 0.57,1.7 0.75,2.58 0.04,0.2 0.04,0.42 0.06,0.66 -0.16,0.07 -0.29,0.16 -0.42,0.18 -0.59,0.09 -1.18,0.17 -1.78,0.24 -0.95,0.13 -1.91,0.25 -2.86,0.38 -0.17,0.02 -0.34,0.02 -0.56,0.03 -0.07,-0.12 -0.16,-0.23 -0.2,-0.36 -0.11,-0.39 -0.17,-0.8 -0.3,-1.18 -0.58,-1.66 -1.74,-2.72 -3.42,-3.2 -1.22,-0.36 -2.48,-0.45 -3.75,-0.36 -0.64,0.05 -1.28,0.13 -1.91,0.22 -0.68,0.1 -1.33,0.31 -1.94,0.64 -1.4,0.75 -1.87,1.92 -1.66,3.38 0.14,0.98 0.77,1.65 1.62,2.12 0.35,0.19 0.75,0.32 1.13,0.44 2.07,0.67 4.18,1.23 6.28,1.79 1.36,0.36 2.72,0.73 4.07,1.15 1.59,0.49 3.05,1.25 4.29,2.38 1.44,1.3 2.28,2.92 2.53,4.84 0.21,1.58 0.03,3.12 -0.48,4.62 -0.53,1.52 -1.46,2.76 -2.69,3.77 -1.59,1.32 -3.42,2.16 -5.43,2.64 -1.76,0.42 -3.55,0.56 -5.35,0.47 -1.67,-0.08 -3.31,-0.32 -4.91,-0.85 -3.34,-1.1 -5.65,-3.28 -6.94,-6.56 -0.38,-0.98 -0.65,-1.99 -0.81,-3.02 z"
       id="path8"
       style="fill:#1a1a1a" />
    <path
       class="cls-1"
       d="m 259.89,16.55 c 0.44,-0.46 0.75,-0.81 1.08,-1.14 1.62,-1.63 3.58,-2.6 5.83,-3.04 1.31,-0.26 2.63,-0.31 3.96,-0.23 1.31,0.09 2.59,0.31 3.82,0.78 2.56,0.98 4.25,2.81 5.16,5.37 0.35,0.99 0.56,2.02 0.69,3.06 0.11,0.87 0.14,1.75 0.14,2.63 0,6.64 0,13.28 0,19.93 0,0.29 0.06,0.6 -0.11,0.89 -0.08,0.03 -0.16,0.07 -0.24,0.08 -1.78,0 -3.55,0 -5.3,0 -0.2,-0.11 -0.28,-0.25 -0.28,-0.43 0,-0.19 0,-0.39 0,-0.58 0,-6.26 0,-12.51 0,-18.77 0,-1.12 -0.12,-2.22 -0.4,-3.3 -0.17,-0.67 -0.42,-1.3 -0.78,-1.89 -0.77,-1.29 -1.9,-2.08 -3.36,-2.37 -1.43,-0.29 -2.86,-0.22 -4.26,0.15 -2.13,0.56 -3.59,1.92 -4.44,3.94 -0.43,1.01 -0.67,2.07 -0.81,3.16 -0.12,0.94 -0.14,1.88 -0.14,2.82 0,5.42 0,10.84 0,16.26 0,0.19 0.02,0.39 -0.01,0.58 -0.02,0.14 -0.1,0.27 -0.14,0.38 -0.53,0.08 -4.89,0.1 -5.62,0.03 -0.16,-0.1 -0.23,-0.24 -0.23,-0.43 0,-0.17 0,-0.34 0,-0.51 0,-10.05 0,-20.1 0,-30.15 0,-0.27 -0.08,-0.56 0.12,-0.81 0.18,-0.14 0.4,-0.13 0.61,-0.13 1.33,0 2.66,0 3.99,0 0.21,0 0.43,-0.02 0.64,0.16 0.13,0.34 0.05,0.73 0.06,1.11 0.01,0.39 0,0.77 0,1.16 0,0.38 0,0.76 0.01,1.28 z"
       id="path9"
       style="fill:#1a1a1a" />
    <path
       class="cls-1"
       d="m 316.53,32.85 c 0.08,-0.02 0.16,-0.06 0.24,-0.06 0.48,0 4.88,0.61 5.34,0.73 0.21,0.25 0.11,0.54 0.05,0.79 -0.2,0.85 -0.38,1.72 -0.67,2.54 -1.11,3.2 -3.11,5.68 -6.12,7.3 -1.2,0.64 -2.48,1.03 -3.82,1.26 -1.12,0.19 -2.25,0.27 -3.39,0.22 -2.49,-0.12 -4.87,-0.64 -7.03,-1.94 -2.25,-1.36 -3.87,-3.28 -5.02,-5.62 -0.85,-1.73 -1.32,-3.56 -1.59,-5.46 -0.25,-1.68 -0.29,-3.37 -0.21,-5.06 0.11,-2.4 0.48,-4.76 1.36,-7.02 1.35,-3.47 3.78,-5.85 7.21,-7.24 1.35,-0.55 2.76,-0.89 4.21,-1.05 2.17,-0.24 4.32,-0.1 6.43,0.47 3.58,0.96 6.04,3.2 7.38,6.64 0.31,0.79 0.52,1.63 0.74,2.45 0.07,0.24 0.15,0.5 0,0.8 -0.17,0.05 -0.37,0.13 -0.57,0.16 -1.54,0.24 -3.08,0.48 -4.62,0.71 -0.1,0.02 -0.2,0 -0.3,0 -0.2,-0.19 -0.22,-0.43 -0.29,-0.65 -0.28,-1.01 -0.66,-1.99 -1.24,-2.87 -1.06,-1.6 -2.53,-2.49 -4.44,-2.72 -1.43,-0.17 -2.82,-0.03 -4.18,0.4 -1.76,0.55 -3.06,1.68 -3.96,3.27 -0.69,1.2 -1.09,2.51 -1.32,3.87 -0.3,1.78 -0.36,3.57 -0.29,5.37 0.05,1.4 0.21,2.77 0.55,4.13 0.23,0.94 0.56,1.84 1.04,2.69 1.09,1.92 2.7,3.11 4.89,3.5 1.45,0.25 2.89,0.25 4.32,-0.14 1.77,-0.49 3.05,-1.58 3.93,-3.18 0.56,-1.02 0.9,-2.12 1.13,-3.26 0.07,-0.33 0.06,-0.68 0.24,-1 z"
       id="path10"
       style="fill:#1a1a1a" />
    <path
       class="cls-1"
       d="m 146.2,12.97 c 0.18,-0.06 0.28,-0.11 0.37,-0.11 1.54,0 3.08,0 4.63,0 0.1,0 0.2,0.06 0.28,0.08 0.18,0.24 0.13,0.48 0.13,0.71 0,0.94 0,1.88 0,2.92 0.13,-0.13 0.23,-0.19 0.29,-0.28 0.61,-0.91 1.28,-1.77 2.11,-2.49 0.93,-0.82 1.99,-1.42 3.23,-1.6 0.55,-0.08 1.11,-0.09 1.66,-0.03 1.69,0.17 3.23,0.77 4.67,1.67 0.07,0.04 0.13,0.11 0.22,0.19 -0.01,0.13 0,0.29 -0.05,0.42 -0.55,1.53 -1.11,3.05 -1.67,4.58 -0.07,0.19 -0.17,0.35 -0.44,0.39 -0.15,-0.08 -0.34,-0.17 -0.53,-0.28 -1.21,-0.67 -2.5,-0.97 -3.89,-0.86 -1.41,0.11 -2.53,0.73 -3.34,1.89 -0.38,0.55 -0.65,1.16 -0.86,1.79 -0.43,1.31 -0.66,2.65 -0.81,4.02 -0.12,1.13 -0.11,2.27 -0.11,3.4 0,4.86 0,9.73 0,14.59 0,0.27 0.06,0.56 -0.09,0.85 -0.08,0.03 -0.18,0.09 -0.28,0.09 -1.73,0 -3.47,0 -5.2,0 -0.06,0 -0.12,-0.03 -0.22,-0.06 -0.04,-0.1 -0.1,-0.22 -0.11,-0.33 -0.02,-0.21 0,-0.43 0,-0.64 0,-10 0,-20.01 0,-30.01 0,-0.28 0,-0.55 0.01,-0.88 z"
       id="path11"
       style="fill:#1a1a1a" />
    <path
       class="cls-1"
       d="m 290.92,44.86 c -0.89,0.07 -5.13,0.05 -5.65,-0.02 -0.04,-0.12 -0.1,-0.25 -0.12,-0.39 -0.02,-0.19 0,-0.38 0,-0.58 0,-10.03 0,-20.05 0,-30.08 0,-0.27 -0.05,-0.56 0.07,-0.8 0.2,-0.17 0.42,-0.15 0.63,-0.15 1.5,0 3,0 4.5,0 0.19,0 0.38,0.04 0.6,0.06 0.05,0.16 0.11,0.29 0.13,0.43 0.02,0.15 0,0.3 0,0.45 0,10.05 0,20.1 0,30.15 0,0.17 0.02,0.35 0,0.51 -0.02,0.14 -0.09,0.27 -0.14,0.42 z"
       id="path12"
       style="fill:#1a1a1a" />
  </g>
  <g
     id="g28"
     transform="translate(0,0.00280749)">
    <path
       class="cls-1"
       d="m 64.03,36.62 c 0.16,0.11 0.31,0.23 0.47,0.32 2.67,1.5 5.4,2.88 8.25,4.02 2.27,0.91 4.6,1.63 7,2.13 1.13,0.23 2.28,0.4 3.43,0.52 1.77,0.2 3.55,0.21 5.33,0.15 0.95,-0.03 1.9,-0.13 2.85,-0.25 1.15,-0.15 2.29,-0.34 3.42,-0.57 2.16,-0.44 4.28,-1.06 6.36,-1.79 3.27,-1.15 6.41,-2.58 9.48,-4.2 0.18,-0.1 0.35,-0.22 0.52,-0.33 0.22,-0.09 0.45,-0.17 0.65,-0.28 1.09,-0.62 2.19,-1.22 3.26,-1.87 1.28,-0.77 2.55,-1.54 3.8,-2.36 1.66,-1.09 3.29,-2.21 4.93,-3.34 0.84,-0.57 1.66,-1.17 2.48,-1.77 1.01,-0.74 2.01,-1.5 3.01,-2.25 0.06,-0.04 0.13,-0.07 0.22,-0.11 0.1,0.23 0.06,0.44 0.06,0.64 0,8.75 0,17.5 0,26.26 0,0.17 0,0.35 0,0.52 -0.16,0.03 -0.31,0.05 -0.47,0.09 -1.12,0.28 -2.25,0.57 -3.37,0.84 -1.76,0.43 -3.52,0.84 -5.3,1.16 -0.83,0.15 -1.66,0.28 -2.49,0.41 -0.52,0.08 -1.03,0.15 -1.55,0.21 -0.46,0.06 -0.91,0.12 -1.37,0.16 -0.36,0.03 -0.73,0.05 -1.09,0.08 -0.65,0.05 -1.3,0.09 -1.95,0.11 -1.81,0.03 -3.62,0.01 -5.44,0.01 -0.13,0 -0.26,0.01 -0.38,-0.02 -0.31,-0.09 -0.63,-0.07 -0.95,-0.08 -0.24,0 -0.48,0 -0.71,-0.02 -0.57,-0.05 -1.13,-0.11 -1.7,-0.17 -0.43,-0.04 -0.85,-0.07 -1.28,-0.12 -0.58,-0.07 -1.16,-0.16 -1.74,-0.25 -0.74,-0.11 -1.47,-0.22 -2.21,-0.35 -1.67,-0.32 -3.33,-0.67 -4.96,-1.14 -0.76,-0.22 -1.53,-0.43 -2.28,-0.67 -1.84,-0.6 -3.67,-1.24 -5.45,-2.01 -1.22,-0.53 -2.46,-1.04 -3.66,-1.61 -1.52,-0.73 -3,-1.52 -4.5,-2.29 -0.4,-0.2 -0.78,-0.42 -1.17,-0.64 -0.99,-0.57 -1.98,-1.14 -2.97,-1.71 -1.18,-0.69 -2.36,-1.38 -3.53,-2.08 -0.86,-0.51 -1.71,-1.03 -2.57,-1.54 -1.05,-0.62 -2.11,-1.23 -3.17,-1.84 -0.83,-0.48 -1.65,-0.95 -2.48,-1.42 -0.12,-0.07 -0.26,-0.1 -0.4,-0.15 -0.16,-0.1 -0.32,-0.21 -0.48,-0.3 -2.62,-1.4 -5.3,-2.66 -8.11,-3.65 -2.02,-0.72 -4.08,-1.28 -6.2,-1.66 -1.11,-0.2 -2.23,-0.33 -3.35,-0.43 -1.64,-0.14 -3.27,-0.12 -4.91,-0.06 -0.87,0.04 -1.74,0.16 -2.61,0.25 -1.26,0.14 -2.51,0.38 -3.75,0.65 -2.65,0.58 -5.23,1.4 -7.76,2.39 -1.89,0.74 -3.75,1.57 -5.57,2.46 -0.2,0.1 -0.38,0.22 -0.58,0.33 -0.1,0.04 -0.21,0.06 -0.31,0.11 -0.85,0.44 -1.7,0.86 -2.53,1.32 -1.01,0.56 -2.01,1.15 -3.01,1.73 C 9.48,41.18 7.78,42.28 6.08,43.39 5.1,44.03 4.14,44.71 3.18,45.38 2.31,45.99 1.45,46.62 0.59,47.23 0.41,47.36 0.21,47.46 0.02,47.58 0.02,47.41 0,47.23 0,47.06 0,38.86 0,30.65 0,22.45 0,22.28 0.02,22.1 0.02,21.93 c 0.53,-0.16 1.06,-0.33 1.6,-0.47 1.6,-0.4 3.19,-0.83 4.83,-1.09 0.72,-0.11 1.44,-0.24 2.16,-0.36 0.31,-0.05 0.63,-0.09 0.94,-0.13 0.49,-0.05 0.97,-0.11 1.46,-0.14 0.65,-0.04 1.29,-0.14 1.95,-0.11 0.06,0 0.12,-0.02 0.19,-0.03 0.2,-0.02 0.41,-0.05 0.61,-0.06 0.73,-0.03 1.46,0.06 2.18,-0.09 0.05,0 0.1,0 0.14,0 0.64,0 1.27,0 1.91,0 0.11,0 0.22,0.01 0.33,0.02 0.27,0.02 0.54,0.06 0.8,0.07 0.68,0.03 1.37,-0.06 2.04,0.09 0.09,0.02 0.19,0 0.29,0 0.59,0.03 1.17,0.06 1.75,0.11 0.46,0.04 0.91,0.11 1.37,0.17 0.71,0.09 1.41,0.18 2.12,0.28 1.46,0.2 2.91,0.47 4.35,0.81 1.89,0.44 3.76,0.94 5.6,1.55 0.84,0.28 1.68,0.6 2.51,0.9 1.58,0.57 3.13,1.24 4.66,1.93 1.01,0.46 2.01,0.96 3,1.45 0.5,0.24 1,0.49 1.49,0.75 0.94,0.5 1.87,1.02 2.8,1.53 0.61,0.34 1.22,0.68 1.82,1.03 0.6,0.35 1.2,0.71 1.81,1.06 1.01,0.59 2.03,1.19 3.04,1.78 0.87,0.52 1.74,1.05 2.61,1.57 0.87,0.52 1.74,1.04 2.63,1.54 0.33,0.18 0.62,0.45 1.01,0.52 z"
       id="path1"
       style="fill:#1a1a1a" />
    <g
       id="g27"
       style="opacity:0.6">
      <path
         class="cls-3"
         d="m 60.4,37 c 0.13,0.05 0.27,0.08 0.4,0.15 0.83,0.47 1.66,0.94 2.48,1.42 1.06,0.61 2.12,1.22 3.17,1.84 0.86,0.51 1.71,1.03 2.57,1.54 1.17,0.7 2.35,1.39 3.53,2.08 0.99,0.58 1.98,1.15 2.97,1.71 0.39,0.22 0.78,0.44 1.17,0.64 1.5,0.77 2.99,1.56 4.5,2.29 1.2,0.58 2.44,1.08 3.66,1.61 1.78,0.77 3.61,1.41 5.45,2.01 0.75,0.24 1.52,0.45 2.28,0.67 1.63,0.47 3.29,0.83 4.96,1.14 0.73,0.14 1.47,0.24 2.21,0.35 0.58,0.09 1.16,0.18 1.74,0.25 0.42,0.05 0.85,0.08 1.28,0.12 0.57,0.06 1.13,0.12 1.7,0.17 0.24,0.02 0.48,0.02 0.71,0.02 0.32,0 0.63,0 0.95,0.08 0.12,0.03 0.25,0.02 0.38,0.02 1.81,0 3.62,0.02 5.44,-0.01 0.65,-0.01 1.3,-0.06 1.95,-0.11 0.36,-0.03 0.73,-0.05 1.09,-0.08 0.46,-0.03 0.91,-0.1 1.37,-0.16 0.52,-0.07 1.04,-0.13 1.55,-0.21 0.83,-0.13 1.66,-0.26 2.49,-0.41 1.78,-0.32 3.54,-0.73 5.3,-1.16 1.13,-0.27 2.25,-0.56 3.37,-0.84 0.15,-0.04 0.31,-0.06 0.47,-0.09 0,0.17 0,0.35 0,0.52 0,3.1 0,6.19 0,9.29 -0.2,0.1 -0.39,0.21 -0.59,0.3 -1.3,0.54 -2.61,1.1 -3.92,1.61 -2.34,0.92 -4.7,1.75 -7.14,2.35 -0.82,0.2 -1.64,0.37 -2.47,0.51 -0.7,0.11 -1.42,0.16 -2.13,0.23 -0.66,0.06 -1.33,0.14 -1.99,0.16 -0.92,0.03 -1.84,0.02 -2.77,0.03 -0.99,0 -1.97,-0.03 -2.95,-0.13 -0.91,-0.09 -1.83,-0.23 -2.74,-0.36 -1.83,-0.26 -3.61,-0.7 -5.37,-1.24 -2.67,-0.82 -5.21,-1.92 -7.67,-3.23 -3.22,-1.72 -6.2,-3.79 -9.06,-6.06 -1.89,-1.5 -3.71,-3.09 -5.48,-4.73 -1.38,-1.27 -2.73,-2.57 -4.07,-3.88 -2.48,-2.42 -4.94,-4.86 -7.42,-7.28 -0.94,-0.92 -1.92,-1.8 -2.89,-2.7 C 60.8,37.36 60.7,37.3 60.61,37.24 60.54,37.15 60.47,37.07 60.4,36.98 Z"
         id="path2"
         style="opacity:1;fill:#1a1a1a" />
      <path
         class="cls-3"
         d="m 64.03,36.62 c -0.39,-0.07 -0.68,-0.33 -1.01,-0.52 -0.89,-0.49 -1.76,-1.02 -2.63,-1.54 -0.87,-0.52 -1.74,-1.05 -2.61,-1.57 -1.01,-0.6 -2.02,-1.19 -3.04,-1.78 -0.6,-0.35 -1.2,-0.71 -1.81,-1.06 -0.6,-0.35 -1.21,-0.7 -1.82,-1.03 -0.93,-0.52 -1.86,-1.03 -2.8,-1.53 -0.49,-0.26 -0.99,-0.51 -1.49,-0.75 -1,-0.49 -1.99,-0.99 -3,-1.45 -1.53,-0.69 -3.08,-1.36 -4.66,-1.93 -0.84,-0.3 -1.67,-0.62 -2.51,-0.9 -1.84,-0.61 -3.71,-1.11 -5.6,-1.55 -1.44,-0.33 -2.89,-0.6 -4.35,-0.81 -0.71,-0.1 -1.41,-0.19 -2.12,-0.28 -0.45,-0.06 -0.91,-0.13 -1.37,-0.17 -0.58,-0.05 -1.17,-0.07 -1.75,-0.11 -0.1,0 -0.19,0.01 -0.29,0 -0.68,-0.15 -1.36,-0.06 -2.04,-0.09 -0.27,-0.01 -0.54,-0.05 -0.8,-0.07 -0.11,0 -0.22,-0.02 -0.33,-0.02 -0.64,0 -1.27,0 -1.91,0 -0.05,0 -0.1,0 -0.14,0 -0.72,0.15 -1.46,0.06 -2.18,0.09 -0.21,0 -0.41,0.04 -0.61,0.06 -0.06,0 -0.13,0.03 -0.19,0.03 -0.65,-0.04 -1.3,0.07 -1.95,0.11 -0.49,0.03 -0.98,0.09 -1.46,0.14 -0.31,0.04 -0.63,0.08 -0.94,0.13 -0.72,0.12 -1.44,0.24 -2.16,0.36 -1.63,0.26 -3.23,0.69 -4.83,1.09 -0.54,0.13 -1.07,0.31 -1.6,0.47 0,-0.14 -0.02,-0.29 -0.02,-0.43 0,-2.94 0,-5.88 0,-8.82 0,-0.16 0.01,-0.32 0.02,-0.48 0.19,-0.08 0.38,-0.17 0.56,-0.25 2.4,-1.14 4.87,-2.09 7.45,-2.75 1.03,-0.26 2.07,-0.46 3.13,-0.6 0.74,-0.1 1.48,-0.16 2.22,-0.22 0.82,-0.07 1.65,-0.15 2.47,-0.16 1.16,-0.02 2.32,-0.03 3.48,0.05 0.92,0.06 1.84,0.13 2.75,0.24 0.91,0.11 1.82,0.28 2.72,0.45 2.68,0.5 5.26,1.32 7.77,2.37 3.67,1.53 7.06,3.55 10.27,5.89 2.1,1.52 4.11,3.15 6.04,4.87 1.31,1.18 2.63,2.35 3.9,3.57 1.72,1.64 3.41,3.33 5.12,4.99 1.73,1.69 3.45,3.38 5.18,5.06 0.13,0.13 0.29,0.24 0.44,0.36 0.17,0.18 0.33,0.37 0.5,0.55 z"
         id="path3"
         style="opacity:1;fill:#1a1a1a" />
      <path
         class="cls-3"
         d="m 129.62,61.88 c 0,0 -0.05,0 -0.07,0 0,-3.1 0,-6.19 0,-9.29 0,-0.17 0,-0.35 0,-0.52 0,-0.17 0,-0.35 0,-0.52 0,-8.75 0,-17.5 0,-26.26 0,-0.2 0.03,-0.41 -0.06,-0.64 -0.09,0.05 -0.16,0.07 -0.22,0.11 -1,0.75 -2,1.51 -3.01,2.25 -0.82,0.6 -1.64,1.2 -2.48,1.77 -1.63,1.12 -3.27,2.25 -4.93,3.34 -1.25,0.82 -2.52,1.59 -3.8,2.36 -1.07,0.64 -2.17,1.25 -3.26,1.87 -0.21,0.12 -0.43,0.19 -0.65,0.28 0.07,-0.09 0.14,-0.17 0.21,-0.26 0.09,-0.06 0.19,-0.12 0.27,-0.19 0.84,-0.78 1.69,-1.54 2.52,-2.33 1.74,-1.67 3.43,-3.4 5.08,-5.17 0.39,-0.42 0.78,-0.84 1.16,-1.26 0.88,-0.98 1.76,-1.97 2.62,-2.96 1,-1.15 1.99,-2.31 2.96,-3.49 1.13,-1.37 2.24,-2.77 3.36,-4.15 0.09,-0.11 0.21,-0.19 0.31,-0.29 0,0.13 0,0.25 0,0.38 0,11.56 0,23.12 0.01,34.69 0,3.26 0,6.51 -0.01,9.77 0,0.17 0,0.35 0,0.52 z"
         id="path13"
         style="opacity:1;fill:#1a1a1a" />
      <path
         class="cls-3"
         d="M 0.02,47.59 C 0.21,47.47 0.41,47.37 0.59,47.24 1.46,46.63 2.31,46 3.18,45.39 4.14,44.72 5.1,44.04 6.08,43.4 c 1.7,-1.11 3.4,-2.21 5.16,-3.23 1,-0.58 2,-1.17 3.01,-1.73 0.83,-0.46 1.69,-0.88 2.53,-1.32 0.1,-0.05 0.21,-0.08 0.31,-0.11 -0.16,0.16 -0.32,0.32 -0.47,0.48 -0.11,0.07 -0.22,0.12 -0.32,0.2 -0.32,0.27 -0.63,0.54 -0.93,0.81 -0.85,0.77 -1.69,1.54 -2.53,2.31 -1.62,1.48 -3.16,3.04 -4.66,4.63 C 6.71,47 5.28,48.6 3.85,50.2 2.92,51.24 2.03,52.32 1.12,53.38 0.76,53.8 0.4,54.22 0.04,54.64 c 0,-0.13 -0.03,-0.25 -0.03,-0.38 0,-2.13 0,-4.26 0,-6.38 0,-0.09 0.01,-0.19 0.02,-0.28 z"
         id="path14"
         style="opacity:1;fill:#1a1a1a" />
    </g>
    <g
       id="g26"
       style="opacity:0.3">
      <path
         class="cls-2"
         d="m 60.61,37.27 c 0.09,0.06 0.19,0.12 0.27,0.19 0.97,0.9 1.95,1.78 2.89,2.7 2.48,2.42 4.94,4.86 7.42,7.28 1.34,1.31 2.7,2.61 4.07,3.88 1.77,1.64 3.59,3.23 5.48,4.73 2.85,2.27 5.84,4.34 9.06,6.06 2.46,1.31 5.01,2.41 7.67,3.23 1.76,0.54 3.55,0.98 5.37,1.24 0.91,0.13 1.82,0.27 2.74,0.36 0.98,0.1 1.96,0.14 2.95,0.13 0.92,0 1.84,0 2.77,-0.03 0.67,-0.02 1.33,-0.1 1.99,-0.16 0.71,-0.07 1.42,-0.12 2.13,-0.23 0.83,-0.13 1.65,-0.3 2.47,-0.51 2.44,-0.6 4.81,-1.44 7.14,-2.35 1.31,-0.52 2.62,-1.07 3.92,-1.61 0.2,-0.08 0.4,-0.2 0.59,-0.3 0.02,0 0.05,0 0.07,0 0,0.21 0.01,0.41 0.01,0.62 0,1.99 0,3.97 0,5.96 0,0.19 -0.01,0.38 -0.02,0.58 -0.33,0.19 -0.64,0.38 -0.96,0.56 -1.64,0.91 -3.3,1.78 -4.99,2.59 -1.88,0.89 -3.79,1.71 -5.77,2.36 -1.19,0.39 -2.41,0.67 -3.66,0.82 -0.63,0.08 -1.26,0.17 -1.88,0.25 -0.02,0 -0.03,0 -0.05,0 -0.62,0.04 -1.23,0.09 -1.85,0.11 -0.71,0.02 -1.43,0.02 -2.14,0 -0.7,-0.02 -1.4,-0.04 -2.09,-0.11 -2.71,-0.27 -5.35,-0.87 -7.91,-1.81 -1.82,-0.67 -3.57,-1.51 -5.26,-2.45 -1.01,-0.56 -2,-1.18 -2.96,-1.83 -1.14,-0.78 -2.25,-1.6 -3.32,-2.47 C 85.83,66.3 84.91,65.51 84.02,64.7 82.64,63.46 81.35,62.11 80.04,60.79 79.45,60.19 78.87,59.58 78.31,58.95 77.54,58.09 76.78,57.21 76.03,56.33 75.11,55.26 74.19,54.18 73.3,53.09 72.34,51.92 71.42,50.74 70.48,49.56 69.57,48.42 68.66,47.27 67.76,46.13 66.89,45.02 66.02,43.9 65.14,42.8 64.52,42.02 63.88,41.25 63.24,40.48 62.73,39.85 62.22,39.23 61.7,38.6 c -0.28,-0.34 -0.58,-0.67 -0.87,-1.01 -0.08,-0.1 -0.15,-0.2 -0.22,-0.3 z"
         id="path4"
         style="opacity:1;fill:#1a1a1a" />
      <path
         class="cls-2"
         d="M 63.53,36.07 C 63.38,35.95 63.22,35.85 63.09,35.71 61.36,34.02 59.63,32.34 57.91,30.65 56.21,28.98 54.52,27.3 52.79,25.66 51.51,24.44 50.2,23.27 48.89,22.09 46.96,20.36 44.95,18.74 42.85,17.22 39.64,14.89 36.25,12.87 32.58,11.33 30.07,10.28 27.49,9.46 24.81,8.96 23.91,8.79 23,8.62 22.09,8.51 21.18,8.4 20.26,8.33 19.34,8.27 18.18,8.19 17.02,8.19 15.86,8.22 15.04,8.24 14.21,8.32 13.39,8.38 12.65,8.44 11.9,8.5 11.17,8.6 10.12,8.74 9.07,8.94 8.04,9.2 5.46,9.86 2.99,10.81 0.59,11.95 0.4,12.04 0.21,12.12 0.03,12.2 c 0,-2.22 0,-4.45 0,-6.67 C 0.03,5.44 0.04,5.34 0.05,5.21 0.23,5.09 0.42,4.94 0.62,4.82 2.55,3.64 4.55,2.61 6.66,1.79 8.17,1.2 9.73,0.74 11.33,0.5 c 0.89,-0.14 1.79,-0.26 2.69,-0.33 1.15,-0.1 2.3,-0.19 3.46,-0.17 0.86,0.02 1.71,0.07 2.56,0.17 0.35,0.04 0.69,0.07 1.04,0.11 1.44,0.16 2.85,0.45 4.24,0.83 1.39,0.38 2.76,0.85 4.09,1.41 1.8,0.76 3.53,1.67 5.2,2.69 1.45,0.89 2.83,1.88 4.18,2.92 0.63,0.49 1.23,1 1.84,1.51 2.11,1.74 4.01,3.7 5.92,5.66 0.53,0.54 1.03,1.13 1.54,1.69 0.31,0.34 0.62,0.68 0.92,1.03 1.09,1.22 2.15,2.46 3.18,3.73 1.13,1.41 2.29,2.8 3.42,4.22 0.76,0.95 1.51,1.93 2.26,2.88 1.02,1.3 2.05,2.59 3.08,3.88 0.73,0.92 1.47,1.83 2.2,2.75 0.08,0.1 0.18,0.18 0.25,0.29 0.06,0.09 0.09,0.2 0.13,0.29 z"
         id="path5"
         style="opacity:1;fill:#1a1a1a" />
      <path
         class="cls-2"
         d="m 129.62,16.52 c -0.1,0.09 -0.22,0.18 -0.31,0.29 -1.12,1.38 -2.22,2.78 -3.36,4.15 -0.97,1.18 -1.96,2.33 -2.96,3.49 -0.86,1 -1.74,1.98 -2.62,2.96 -0.38,0.43 -0.77,0.85 -1.16,1.26 -1.65,1.77 -3.34,3.49 -5.08,5.17 -0.83,0.79 -1.67,1.56 -2.52,2.33 -0.08,0.07 -0.18,0.13 -0.27,0.19 0.26,-0.32 0.51,-0.64 0.77,-0.96 0.56,-0.67 1.13,-1.33 1.68,-2.01 0.7,-0.86 1.39,-1.73 2.07,-2.6 0.71,-0.91 1.42,-1.83 2.1,-2.76 0.94,-1.28 1.86,-2.57 2.79,-3.86 0.33,-0.46 0.66,-0.94 0.98,-1.41 0.92,-1.35 1.85,-2.7 2.74,-4.07 1.46,-2.27 2.9,-4.55 4.34,-6.83 0.17,-0.27 0.33,-0.54 0.51,-0.81 0.07,-0.1 0.14,-0.19 0.22,-0.3 0.04,0.05 0.07,0.07 0.07,0.09 0,1.89 0,3.78 0,5.67 z"
         id="path17"
         style="opacity:1;fill:#1a1a1a" />
      <path
         class="cls-2"
         d="M 0.03,54.64 C 0.39,54.22 0.75,53.8 1.11,53.38 2.02,52.32 2.91,51.24 3.84,50.2 5.27,48.6 6.7,47 8.17,45.44 c 1.5,-1.59 3.05,-3.15 4.66,-4.63 0.84,-0.77 1.69,-1.54 2.53,-2.31 0.31,-0.28 0.62,-0.55 0.93,-0.81 0.1,-0.08 0.21,-0.14 0.32,-0.2 -0.01,0.18 -0.15,0.27 -0.25,0.39 -0.71,0.81 -1.45,1.6 -2.14,2.43 -1.13,1.33 -2.25,2.67 -3.33,4.04 C 9.82,45.71 8.78,47.09 7.76,48.49 6.63,50.04 5.51,51.61 4.42,53.18 3.48,54.54 2.57,55.91 1.65,57.29 1.17,58 0.72,58.73 0.25,59.45 0.21,59.51 0.16,59.57 0.07,59.69 0.04,59.57 0.02,59.52 0.02,59.47 c 0,-1.6 0,-3.21 0,-4.81 z"
         id="path19"
         style="opacity:1;fill:#1a1a1a" />
    </g>
  </g>
  <g
     id="g24"
     style="opacity:0.6">
    <path
       class="cls-3"
       d="m 293.16,69.47 c -0.16,0.45 -0.3,0.84 -0.45,1.25 -0.17,0.02 -0.32,0.04 -0.47,0.04 -0.38,0 -0.77,-0.01 -1.18,-0.02 -0.03,-0.18 -0.08,-0.32 -0.08,-0.46 0.01,-1.16 0.03,-2.31 0.05,-3.47 0.01,-0.98 0.02,-1.97 0.03,-2.95 0.02,-3.98 0.03,-7.96 0.05,-11.95 0,-0.38 -0.02,-0.77 0.11,-1.13 0.46,-0.1 1.39,-0.11 2.05,-0.02 0.17,0.17 0.12,0.4 0.12,0.6 0,1.78 -0.01,3.55 -0.02,5.33 0,0.49 0,0.98 0,1.48 0,0.12 0.02,0.25 0.04,0.44 0.17,-0.12 0.29,-0.2 0.4,-0.29 2.57,-2.03 6.96,-1.13 8.32,2.3 0.32,0.8 0.51,1.63 0.55,2.49 0.05,1.18 0.04,2.35 -0.29,3.5 -0.34,1.2 -0.9,2.26 -1.83,3.12 -0.97,0.9 -2.12,1.35 -3.43,1.41 -0.78,0.04 -1.54,-0.04 -2.26,-0.37 -0.49,-0.23 -0.94,-0.51 -1.31,-0.9 -0.11,-0.12 -0.24,-0.23 -0.41,-0.4 z m 0.14,-2.03 c 0.68,0.94 1.58,1.52 2.7,1.72 1.32,0.23 2.71,-0.25 3.49,-1.51 0.35,-0.57 0.58,-1.19 0.72,-1.84 0.2,-0.93 0.17,-1.87 0.11,-2.81 -0.05,-0.75 -0.28,-1.47 -0.67,-2.12 -0.45,-0.75 -1.08,-1.28 -1.93,-1.49 -1.69,-0.44 -3.11,0.1 -4.31,1.22 -0.14,0.64 -0.2,4.78 -0.11,6.85 z"
       id="path15"
       style="fill:#1a1a1a;opacity:1" />
    <path
       class="cls-3"
       d="m 276.53,76.97 c -0.65,0.11 -1.68,0.1 -2.2,0 -0.11,-0.23 -0.07,-0.49 -0.06,-0.74 0.02,-1.97 0.05,-3.94 0.08,-5.91 0,-0.21 -0.01,-0.42 -0.03,-0.71 -0.15,0.09 -0.24,0.14 -0.31,0.2 -1.19,0.99 -2.57,1.31 -4.09,1.09 -0.46,-0.07 -0.93,-0.16 -1.37,-0.33 -1.44,-0.55 -2.44,-1.55 -3.01,-2.98 -0.34,-0.86 -0.55,-1.75 -0.56,-2.69 -0.02,-1.07 0,-2.14 0.28,-3.19 0.34,-1.22 0.89,-2.31 1.83,-3.19 0.91,-0.85 1.98,-1.33 3.22,-1.42 0.66,-0.05 1.33,-0.03 1.97,0.16 0.69,0.21 1.3,0.55 1.8,1.07 0.13,0.13 0.26,0.26 0.44,0.44 0.16,-0.46 0.29,-0.86 0.43,-1.24 0.5,-0.16 0.98,-0.15 1.68,0.04 0.01,0.09 0.05,0.19 0.05,0.29 -0.05,6.36 -0.09,12.72 -0.14,19.11 z m -2.17,-16.18 c -0.85,-1.19 -2.07,-1.79 -3.48,-1.75 -1,0.03 -1.81,0.45 -2.45,1.21 -0.44,0.52 -0.69,1.13 -0.87,1.77 -0.27,1 -0.32,2.03 -0.22,3.06 0.08,0.88 0.31,1.72 0.81,2.48 0.39,0.59 0.92,1.02 1.59,1.23 0.9,0.29 1.82,0.29 2.72,0 0.73,-0.25 1.4,-0.64 1.9,-1.25 V 60.8 Z"
       id="path16"
       style="fill:#1a1a1a;opacity:1" />
    <path
       class="cls-3"
       d="m 315.86,64.83 h -8.75 c -0.04,0.14 -0.09,0.26 -0.09,0.38 0.05,1.55 0.77,3.26 2.91,3.85 0.91,0.25 1.85,0.32 2.8,0.21 0.81,-0.09 1.6,-0.25 2.38,-0.5 0.08,-0.02 0.16,-0.03 0.24,-0.05 0.18,0.45 0.18,1.2 0.02,1.87 -0.23,0.09 -0.48,0.21 -0.75,0.28 -0.84,0.25 -1.71,0.39 -2.59,0.4 -0.97,0 -1.92,-0.02 -2.87,-0.26 -2.33,-0.59 -3.75,-2.08 -4.27,-4.39 -0.34,-1.52 -0.3,-3.06 0.09,-4.58 0.26,-1.01 0.72,-1.92 1.4,-2.72 1.01,-1.18 2.33,-1.79 3.86,-1.93 0.71,-0.07 1.41,0.02 2.1,0.21 1.17,0.33 2.05,1.03 2.67,2.07 0.5,0.84 0.78,1.76 0.88,2.73 0.07,0.66 0.05,1.32 0.06,1.99 0,0.12 -0.04,0.25 -0.07,0.44 z m -8.66,-2.05 c 0.61,0.12 5.76,0.15 6.29,0.04 0.02,-0.04 0.05,-0.07 0.05,-0.11 0,-0.95 -0.26,-1.81 -0.91,-2.53 -0.56,-0.61 -1.27,-0.86 -2.07,-0.85 -1.76,0.03 -3.3,1.6 -3.36,3.45 z"
       id="path18"
       style="fill:#1a1a1a;opacity:1" />
    <path
       class="cls-3"
       d="m 278.31,57.59 c 0.52,-0.12 1.54,-0.12 2.17,-0.02 0.02,0.15 0.06,0.31 0.06,0.48 0,2.31 -0.02,4.63 -0.03,6.94 0,0.43 -0.01,0.86 0.03,1.28 0.03,0.36 0.1,0.73 0.22,1.06 0.37,1.02 1.14,1.58 2.2,1.73 0.38,0.05 0.77,0.04 1.15,0.02 1.35,-0.05 2.39,-1.05 2.6,-2.42 0.07,-0.46 0.1,-0.94 0.11,-1.41 0.02,-2.34 0.03,-4.67 0.04,-7.01 0,-0.21 0.02,-0.42 0.03,-0.61 0.57,-0.17 1.44,-0.17 2.17,0.01 0.02,0.13 0.07,0.27 0.07,0.41 -0.01,1.13 -0.04,2.27 -0.05,3.4 -0.01,1.2 -0.01,2.4 -0.03,3.6 0,0.71 0.02,1.41 -0.12,2.11 -0.35,1.74 -1.35,2.94 -3.02,3.53 -0.98,0.35 -2,0.46 -3.04,0.32 -0.58,-0.07 -1.14,-0.16 -1.69,-0.38 -1.56,-0.62 -2.47,-1.79 -2.81,-3.41 -0.09,-0.42 -0.13,-0.85 -0.13,-1.27 0,-2.64 0.01,-5.27 0.02,-7.91 0,-0.17 0.03,-0.33 0.05,-0.48 z"
       id="path20"
       style="fill:#1a1a1a;opacity:1" />
    <path
       class="cls-3"
       d="m 249.81,68.29 c 3.02,0.07 5.93,-0.02 8.84,0.14 0.21,0.34 0.11,0.69 0.12,1.02 0,0.32 -0.04,0.64 -0.06,0.92 -0.24,0.2 -0.49,0.14 -0.72,0.14 -1.86,0 -3.73,-0.01 -5.59,-0.02 -1.37,0 -2.74,-0.01 -4.11,-0.02 -0.25,0 -0.51,-0.02 -0.7,-0.02 -0.21,-0.18 -0.19,-0.36 -0.19,-0.52 0,-0.58 0,-1.16 0.01,-1.73 0.02,-1.93 0.06,-3.85 0.07,-5.78 0.02,-3.23 0.03,-6.47 0.04,-9.7 0,-0.25 -0.04,-0.51 0.1,-0.74 0.6,-0.14 1.78,-0.12 2.28,0.04 0.06,0.75 0.01,1.51 0.02,2.28 0,0.77 0,1.54 -0.01,2.31 -0.01,0.77 -0.03,1.54 -0.04,2.31 -0.01,0.79 -0.02,1.58 -0.03,2.38 0,0.77 0,1.54 -0.01,2.31 0,0.77 0,1.54 -0.01,2.31 0,0.77 0,1.53 0,2.37 z"
       id="path21"
       style="fill:#1a1a1a;opacity:1" />
    <path
       class="cls-3"
       d="m 262,70.5 c -0.51,0.12 -1.4,0.13 -2.08,0.02 -0.13,-0.2 -0.08,-0.44 -0.08,-0.67 0,-1.88 0.01,-3.76 0.02,-5.65 0,-1.77 0.02,-3.55 0.03,-5.32 0,-0.47 0.05,-0.93 0.07,-1.39 0.37,-0.18 0.72,-0.1 1.05,-0.11 0.34,-0.01 0.68,0 0.97,0 0.22,0.19 0.18,0.39 0.18,0.58 0,0.81 0,1.63 0,2.44 -0.01,2.54 -0.02,5.09 -0.04,7.63 0,0.73 -0.04,1.45 -0.06,2.18 0,0.1 -0.04,0.2 -0.06,0.29 z"
       id="path22"
       style="fill:#1a1a1a;opacity:1" />
    <path
       class="cls-3"
       d="m 230.45,59.59 c -0.11,0.17 -0.19,0.29 -0.27,0.42 h -0.44 c -0.04,-0.07 -0.09,-0.13 -0.09,-0.18 -0.01,-0.53 -0.02,-1.07 -0.01,-1.6 0,-1.71 0.01,-3.42 0.03,-5.13 0,-0.23 -0.05,-0.47 0.09,-0.69 0.23,-0.11 0.45,-0.09 0.7,0 0.17,0.45 0.05,0.92 0.06,1.38 0.02,0.47 0,0.94 0,1.47 0.17,-0.07 0.29,-0.09 0.38,-0.15 1.11,-0.67 2.78,-0.1 3.11,1.4 0.16,0.73 0.14,1.44 -0.1,2.15 -0.13,0.39 -0.36,0.73 -0.67,1 -0.71,0.63 -1.69,0.7 -2.48,0.16 -0.09,-0.06 -0.17,-0.13 -0.3,-0.23 z m -0.02,-0.92 c 0.23,0.35 0.44,0.51 0.7,0.63 0.76,0.34 1.54,0.07 1.87,-0.69 0.32,-0.72 0.32,-1.45 0.05,-2.18 -0.21,-0.57 -0.69,-0.87 -1.3,-0.86 -0.49,0 -0.91,0.18 -1.24,0.6 -0.03,0.84 -0.06,1.69 -0.08,2.49 z"
       id="path23"
       style="fill:#1a1a1a;opacity:1" />
    <path
       class="cls-3"
       d="m 235.85,54.97 h 0.75 c 0.2,0.19 0.26,0.44 0.35,0.68 0.35,0.9 0.69,1.8 1.04,2.7 0.05,0.13 0.13,0.26 0.22,0.47 0.1,-0.16 0.17,-0.26 0.22,-0.37 0.37,-0.89 0.73,-1.78 1.1,-2.67 0.1,-0.24 0.2,-0.47 0.3,-0.69 0.27,-0.15 0.51,-0.12 0.75,-0.08 0.14,0.21 0,0.35 -0.06,0.5 -0.79,1.85 -1.58,3.7 -2.37,5.55 -0.2,0.47 -0.4,0.94 -0.61,1.42 h -0.77 c 0.06,-0.19 0.09,-0.35 0.15,-0.5 0.22,-0.53 0.43,-1.07 0.68,-1.59 0.15,-0.32 0.14,-0.6 0.01,-0.92 -0.52,-1.27 -1.02,-2.54 -1.52,-3.82 -0.08,-0.2 -0.14,-0.4 -0.24,-0.68 z"
       id="path24"
       style="fill:#1a1a1a;opacity:1" />
  </g>
</svg>
