<?xml version="1.0" encoding="UTF-8" standalone="no"?>
<svg
   width="58"
   height="9"
   viewBox="0 0 58 9"
   version="1.1"
   xml:space="preserve"
   style="clip-rule:evenodd;fill-rule:evenodd;stroke-linejoin:round;stroke-miterlimit:2"
   id="svg20"
   xmlns="http://www.w3.org/2000/svg"
   xmlns:svg="http://www.w3.org/2000/svg"><defs
     id="defs20" /><rect
     id="background"
     x="-286.98599"
     y="-101.256"
     width="600"
     height="600"
     style="fill:#171717" /><g
     id="footer" /><g
     id="g20"
     transform="matrix(1,0,0,0.96982759,-1,-0.15517241)"><rect
       x="1.0386667"
       y="0.16"
       width="57.961334"
       height="9.2703333"
       style="fill:#0f194d;stroke-width:0.966667"
       id="rect1" /><path
       d="m 11.8924,7.0127 c -0.3625,0 -0.638,-0.1063333 -0.8265,-0.319 l 0.352833,-0.3132 c 0.120834,0.1305 0.3045,0.1981667 0.551,0.203 h 0.0048 c 0.193333,0 0.352833,-0.058 0.488166,-0.1788333 C 12.569067,6.308 12.6319,6.192 12.6464,6.0615 12.6754,5.8063 12.506233,5.6033 12.148567,5.4486334 l -0.02417,-0.00967 c -0.203,-0.086033 -0.343167,-0.1633667 -0.425333,-0.2407 -0.140167,-0.1305 -0.203,-0.2996667 -0.183667,-0.5017 0.0145,-0.1836667 0.09183,-0.348 0.232,-0.5026667 C 11.887564,4.04503 12.05673,3.9483634 12.24523,3.90003 c 0.386667,-0.087 0.705667,0 0.966667,0.2706667 L 12.873564,4.48873 C 12.70923,4.3195634 12.50623,4.2615634 12.27423,4.31473 c -0.07733,0.019333 -0.149833,0.058 -0.207833,0.116 -0.06767,0.067667 -0.106333,0.145 -0.116,0.2271667 -0.0048,0.087 0.02417,0.1585333 0.087,0.2165333 0.05317,0.0435 0.1595,0.1015 0.319,0.1691667 l 0.02417,0.00967 c 0.517166,0.2223333 0.749166,0.5452 0.700833,0.9802 C 13.0524,6.2886667 12.931567,6.511 12.7189,6.6985334 12.482067,6.9063667 12.206567,7.0127 11.8924,7.0127 Z"
       style="fill:#ffffff;fill-rule:nonzero;stroke-width:0.966667"
       id="path1" /><path
       d="m 13.898233,3.9145333 h 0.435 l -0.5365,3.0305001 h -0.435 z M 14.5372,3.1325 c 0.0145,-0.082167 -0.0058,-0.1498333 -0.05413,-0.2068667 -0.04833,-0.058 -0.111167,-0.087 -0.193334,-0.087 -0.08217,0 -0.1595,0.029 -0.227166,0.087 -0.06767,0.057033 -0.106334,0.1247 -0.120834,0.2068667 -0.0145,0.082167 0,0.1498333 0.04833,0.2078333 0.04833,0.058 0.116,0.082167 0.198166,0.082167 0.08217,0 0.154667,-0.029 0.222334,-0.082167 0.06767,-0.058 0.111166,-0.1305 0.126633,-0.2078333 z"
       style="fill:#ffffff;fill-rule:nonzero;stroke-width:0.966667"
       id="path2" /><path
       d="m 17.287367,3.9242 -0.667,3.7642 c -0.03867,0.2262 -0.1015,0.4050334 -0.183667,0.5258667 -0.116,0.1788333 -0.299667,0.3132 -0.555833,0.4098667 -0.149834,0.058 -0.3045,0.082167 -0.468834,0.082167 -0.1305,0 -0.251333,-0.0145 -0.3625,-0.048333 -0.241666,-0.0725 -0.401166,-0.2020333 -0.4785,-0.3857 -0.05897,-0.1353333 -0.07347,-0.319 -0.04447,-0.5500333 l 0.4408,-0.029 C 14.948033,7.8769 14.9577,8.0112667 15.0012,8.0886 c 0.03867,0.067667 0.120833,0.1208334 0.241667,0.1546667 0.183666,0.053167 0.367333,0.048333 0.546166,-0.019333 0.145,-0.053167 0.241667,-0.1208334 0.29,-0.1933334 0.03867,-0.062833 0.07733,-0.1730333 0.106334,-0.3422 l 0.145,-0.8158666 C 16.0887,6.9692 15.847033,7.0127 15.5957,7.0127 15.0302,7.0127 14.716033,6.7468667 14.6532,6.2113334 14.604867,5.7966334 14.672533,5.3336 14.861033,4.8212667 14.967367,4.5322333 15.141367,4.2954 15.368533,4.1175333 15.5957,3.9387 15.8422,3.8468667 16.112867,3.8468667 c 0.227166,0 0.439833,0.048333 0.642833,0.1401666 0.05317,0.024167 0.087,0.00483 0.09667,-0.062833 z m -1.614334,2.6641334 c 0.265834,0 0.512334,-0.067667 0.744334,-0.1981667 l 0.328666,-1.8724334 c -0.207833,-0.1595 -0.444666,-0.2416666 -0.7105,-0.2416666 -0.164333,0 -0.309333,0.058 -0.4495,0.1691666 -0.140166,0.116 -0.241666,0.2658334 -0.314166,0.4582 C 15.107533,5.3481 15.049533,5.7434667 15.0882,6.0905 c 0.0435,0.3335 0.236833,0.4978334 0.584833,0.4978334 z"
       style="fill:#ffffff;fill-rule:nonzero;stroke-width:0.966667"
       id="path3" /><path
       d="m 19.85,4.0643667 c 0.154667,0.1682 0.203,0.4437 0.135333,0.8149 L 19.622833,6.9402 h -0.435 l 0.3625,-2.0609333 c 0.0435,-0.2503667 0.02417,-0.4195334 -0.05317,-0.5065334 -0.06283,-0.0725 -0.1885,-0.1015 -0.367334,-0.096667 -0.280333,0.0145 -0.5655,0.1063333 -0.8613,0.2658333 L 17.8432,6.9402 h -0.435 l 0.5365,-3.0305 h 0.435 c -0.01933,0.091833 0.01933,0.1208333 0.112133,0.087 0.285167,-0.091833 0.512334,-0.1401667 0.686334,-0.1498333 0.309333,-0.00967 0.531666,0.058 0.671833,0.2175 z"
       style="fill:#ffffff;fill-rule:nonzero;stroke-width:0.966667"
       id="path4" /><path
       d="m 22.673633,3.9145333 h 0.435 l -0.5365,3.0305001 h -0.435966 z m 0.638,-0.7820333 c 0.0145,-0.082167 -0.0048,-0.1498333 -0.05317,-0.2068667 -0.04833,-0.058 -0.111167,-0.087 -0.193334,-0.087 -0.08217,0 -0.1595,0.029 -0.227166,0.087 -0.06767,0.057033 -0.106334,0.1247 -0.120834,0.2068667 -0.0145,0.082167 0,0.1498333 0.04833,0.2078333 0.04833,0.058 0.116,0.082167 0.198166,0.082167 0.08217,0 0.154667,-0.029 0.222334,-0.082167 0.0725,-0.058 0.116,-0.1305 0.125666,-0.2078333 z"
       style="fill:#ffffff;fill-rule:nonzero;stroke-width:0.966667"
       id="path5" /><path
       d="m 25.718633,4.0643667 c 0.154667,0.1682 0.203,0.4437 0.135334,0.8149 L 25.491467,6.9402 h -0.435 l 0.3625,-2.0609333 c 0.0435,-0.2503667 0.02417,-0.4195334 -0.05317,-0.5065334 -0.06283,-0.0725 -0.1885,-0.1015 -0.367333,-0.096667 -0.280334,0.0145 -0.5655,0.1063333 -0.860334,0.2658333 L 23.7128,6.9402 h -0.435 l 0.5365,-3.0305 h 0.435 c -0.01933,0.091833 0.01933,0.1208333 0.111167,0.087 0.285166,-0.091833 0.512333,-0.1401667 0.686333,-0.1498333 0.309333,-0.00967 0.531667,0.058 0.671833,0.2175 z"
       style="fill:#ffffff;fill-rule:nonzero;stroke-width:0.966667"
       id="path6" /><path
       d="M 29.001433,6.9450334 C 28.5616,5.4389667 28.382767,4.4307333 28.4746,3.9242 h 0.435 c -0.06767,0.3905333 0.04833,1.1870667 0.357667,2.3838 L 30.297733,4.1320333 H 30.7134 l 0.270667,2.1711334 c 0.725,-1.2015667 1.121333,-1.9932667 1.189,-2.3838 h 0.435 C 32.516233,4.4307333 31.994233,5.4341334 31.0324,6.9402 h -0.406 L 30.3654,4.9469333 29.407433,6.9402 h -0.406 z"
       style="fill:#ffffff;fill-rule:nonzero;stroke-width:0.966667"
       id="path7" /><path
       d="m 33.014067,3.9145333 h 0.435 l -0.5365,3.0305001 h -0.435 z m 0.638,-0.7820333 c 0.0145,-0.082167 -0.0048,-0.1498333 -0.05317,-0.2068667 -0.04833,-0.058 -0.111167,-0.087 -0.193333,-0.087 -0.08217,0 -0.1595,0.029 -0.227167,0.087 -0.06767,0.057033 -0.106333,0.1247 -0.120833,0.2068667 -0.0145,0.082167 0,0.1498333 0.04833,0.2078333 0.04833,0.058 0.116,0.082167 0.198167,0.082167 0.08217,0 0.154666,-0.029 0.222333,-0.082167 0.0725,-0.058 0.111167,-0.1305 0.125667,-0.2078333 z"
       style="fill:#ffffff;fill-rule:nonzero;stroke-width:0.966667"
       id="path8" /><path
       d="M 34.813033,4.3437333 34.4892,6.1823334 C 34.4602,6.3418334 34.4747,6.453 34.5327,6.511 c 0.06283,0.062833 0.183667,0.087 0.367333,0.067667 l -0.029,0.4243667 c -0.058,0.00483 -0.111166,0.00967 -0.164333,0.00967 -0.232,0 -0.406,-0.062833 -0.526833,-0.1836666 C 34.0397,6.6840334 33.9962,6.4675 34.049367,6.1775 L 34.3732,4.3389 h -0.5423 l 0.0783,-0.4292 h 0.541333 l 0.193334,-1.1049 h 0.435 l -0.193334,1.1049 h 0.584834 l -0.07733,0.4292 h -0.58 z"
       style="fill:#ffffff;fill-rule:nonzero;stroke-width:0.966667"
       id="path9" /><path
       d="m 37.123367,3.8517 c 0.294833,0 0.512333,0.096667 0.653466,0.2851667 0.145,0.1875333 0.1885,0.4437 0.1305,0.7617333 l -0.363466,2.0464334 h -0.435 L 37.471367,4.8986 c 0.0725,-0.4098667 -0.0725,-0.6177 -0.430167,-0.6177 -0.2755,0 -0.5655,0.0725 -0.87,0.2126667 l -0.435,2.4514667 h -0.435 l 0.836167,-4.7386001 h 0.435 l -0.319,1.8192667 c 0.309333,-0.116 0.599333,-0.174 0.87,-0.174 z"
       style="fill:#ffffff;fill-rule:nonzero;stroke-width:0.966667"
       id="path10" /><path
       d="m 40.691333,7.0127 c -0.3625,0 -0.638,-0.1063333 -0.8265,-0.319 l 0.352834,-0.3132 c 0.120833,0.1305 0.3045,0.1981667 0.551,0.203 h 0.0048 c 0.193333,0 0.352833,-0.058 0.488167,-0.1788333 C 41.368,6.308 41.430833,6.192 41.445333,6.0615 41.474333,5.8063 41.305167,5.6033 40.9475,5.4486334 l -0.02417,-0.00967 c -0.203,-0.086033 -0.343166,-0.1633667 -0.425333,-0.2407 -0.140167,-0.1305 -0.203,-0.2996667 -0.183667,-0.5017 0.0145,-0.1836667 0.09183,-0.348 0.232,-0.5026667 0.140167,-0.1488667 0.309334,-0.2455333 0.497834,-0.2938667 0.386666,-0.087 0.706633,0 0.967633,0.2706667 L 41.673464,4.48873 c -0.1653,-0.1691666 -0.3683,-0.2271666 -0.6003,-0.174 -0.07733,0.019333 -0.149834,0.058 -0.207834,0.116 -0.06767,0.067667 -0.106333,0.145 -0.116,0.2271667 -0.0048,0.087 0.02417,0.1585333 0.087,0.2165333 0.05317,0.0435 0.1595,0.1015 0.319,0.1691667 l 0.02417,0.00967 c 0.518133,0.2223333 0.750133,0.5452 0.7018,0.9802 C 41.8523,6.2886667 41.731467,6.511 41.517833,6.6985334 41.281,6.9063667 41.0055,7.0127 40.691333,7.0127 Z"
       style="fill:#ffffff;fill-rule:nonzero;stroke-width:0.966667"
       id="path11" /><path
       d="M 42.615967,6.7758667 C 42.4323,6.6173334 42.325967,6.4095 42.296967,6.1485 c -0.0435,-0.3857 0.029,-0.8390666 0.222333,-1.3552667 0.111167,-0.3045 0.280333,-0.5413333 0.5075,-0.6998666 0.227167,-0.1643334 0.493,-0.2465 0.802333,-0.2465 0.444667,0 0.754,0.174 0.923167,0.5162 l -0.406,0.232 c -0.1015,-0.2175 -0.299667,-0.3238334 -0.589667,-0.3238334 -0.401166,0 -0.676666,0.1981667 -0.821666,0.5935334 -0.164334,0.4543333 -0.232,0.8400333 -0.193334,1.1638667 0.01933,0.1682 0.087,0.3035333 0.198167,0.4050333 0.111167,0.096667 0.256167,0.1498333 0.430167,0.1498333 0.270666,0 0.493,-0.1063333 0.667,-0.3141666 l 0.319,0.2368333 C 44.0708,6.8435334 43.717967,7.0127 43.292633,7.0127 43.021967,7.0127 42.7948,6.930533 42.615967,6.7758667 Z"
       style="fill:#ffffff;fill-rule:nonzero;stroke-width:0.966667"
       id="path12" /><path
       d="m 45.138967,6.7710334 c -0.178834,-0.1585334 -0.2755,-0.3663667 -0.294834,-0.6322 -0.03867,-0.4872 0.03867,-0.9309 0.2175,-1.3224001 0.145,-0.3132 0.343167,-0.5597 0.5858,-0.7279 0.241667,-0.1691666 0.512334,-0.2561666 0.807167,-0.2561666 0.2755,0 0.488167,0.082167 0.642833,0.2416666 0.154667,0.1633667 0.227167,0.3905334 0.227167,0.6757 0,0.1633667 -0.01933,0.3035334 -0.058,0.4147001 L 47.21827,5.3191 45.28397,5.6564667 c -0.0097,0.1256667 -0.0097,0.2513333 0,0.3721667 0.0145,0.1682 0.07733,0.3035333 0.184633,0.4002 0.111167,0.096667 0.256167,0.1498333 0.430167,0.1498333 0.285166,0 0.531666,-0.096667 0.729833,-0.2851667 L 46.91377,6.569 c -0.299667,0.2890334 -0.662167,0.4340334 -1.0875,0.4340334 -0.2755,0.00967 -0.508467,-0.0725 -0.6873,-0.232 z M 45.4628,4.9324333 c -0.03867,0.087 -0.0725,0.1836667 -0.1015,0.2948334 L 46.879933,4.9566 c 0.0048,-0.0435 0.0097,-0.091833 0.0097,-0.1401667 0.0048,-0.3712 -0.164333,-0.5597 -0.497833,-0.5597 -0.415667,0 -0.720167,0.2271667 -0.928967,0.6757 z"
       style="fill:#ffffff;fill-rule:nonzero;stroke-width:0.966667"
       id="path13" /><path
       d="m 49.892067,4.0643667 c 0.154667,0.1682 0.203,0.4437 0.135333,0.8149 L 49.6649,6.9402 H 49.228933 L 49.5924,4.8792667 C 49.6359,4.6289 49.61657,4.4597333 49.53923,4.3727333 49.4764,4.3002333 49.35073,4.2712333 49.170929,4.2760663 48.8906,4.2905667 48.605433,4.3824 48.3106,4.5419 l -0.425333,2.3983 h -0.435 l 0.5365,-3.0305 h 0.435 c -0.01933,0.091833 0.01933,0.1208333 0.111166,0.087 0.285167,-0.091833 0.512334,-0.1401667 0.686334,-0.1498333 0.305467,-0.00967 0.5278,0.058 0.6728,0.2175 z"
       style="fill:#ffffff;fill-rule:nonzero;stroke-width:0.966667"
       id="path14" /><path
       d="m 50.762067,6.7710334 c -0.178833,-0.1585334 -0.2755,-0.3663667 -0.294833,-0.6322 -0.03867,-0.4872 0.03867,-0.9309 0.2175,-1.3224001 0.145,-0.3132 0.343166,-0.5597 0.584833,-0.7279 0.241667,-0.1691666 0.512333,-0.2561666 0.807167,-0.2561666 0.2755,0 0.488166,0.082167 0.642833,0.2416666 0.154667,0.1633667 0.227167,0.3905334 0.227167,0.6757 0,0.1633667 -0.01933,0.3035334 -0.058,0.4147001 L 52.8404,5.3191 50.907067,5.6564667 c -0.0097,0.1256667 -0.0097,0.2513333 0,0.3721667 0.0145,0.1682 0.07733,0.3035333 0.183667,0.4002 C 51.2019,6.5255 51.3469,6.5786667 51.5209,6.5786667 c 0.285167,0 0.531667,-0.096667 0.729834,-0.2851667 L 52.5359,6.569 c -0.299666,0.2890334 -0.662166,0.4340334 -1.0875,0.4340334 -0.2755,0.00967 -0.5075,-0.0725 -0.686333,-0.232 z M 51.0859,4.9324333 c -0.03867,0.087 -0.0725,0.1836667 -0.1015,0.2948334 L 52.502067,4.9566 c 0.0048,-0.0435 0.0097,-0.091833 0.0097,-0.1401667 0.0048,-0.3712 -0.164334,-0.5597 -0.497834,-0.5597 -0.410833,0 -0.720166,0.2271667 -0.928,0.6757 z"
       style="fill:#ffffff;fill-rule:nonzero;stroke-width:0.966667"
       id="path15" /><path
       d="m 53.8902,2.4133 h 0.435 l -0.7975,4.5317334 h -0.435966 z"
       style="fill:#ffffff;fill-rule:nonzero;stroke-width:0.966667"
       id="path16" /><path
       d="M 54.2817,6.9450334 55.0647,2.4133 h 1.193834 c 0.802333,0 1.2093,0.3141667 1.218966,0.9415333 0,0.145 -0.058,0.5790334 -0.178833,1.2934 -0.1305,0.7762334 -0.2378,1.2499001 -0.319967,1.4277667 -0.140166,0.3045 -0.3335,0.522 -0.570333,0.6612 -0.236833,0.1353334 -0.546167,0.2078334 -0.928,0.2078334 z m 0.512334,-0.4292 h 0.7685 c 0.3045,0 0.5365,-0.048333 0.691166,-0.1401667 C 56.379367,6.2983337 56.490534,6.163 56.5872,5.9609667 56.65003,5.8304667 56.741867,5.4061 56.867534,4.6869 56.988367,3.9967 57.046367,3.5762 57.046367,3.437 57.041567,3.2388333 56.988367,3.0938333 56.882034,3.002 56.751534,2.8966333 56.519534,2.8434667 56.1957,2.8434667 h -0.754 z"
       style="fill:#ffffff;fill-rule:nonzero;stroke-width:0.966667"
       id="path17" /><path
       d="M 7.2127667,9.4255 H 1 V 0.16 h 9.286767 v 6.2011667 c 0,1.6936 -1.3775003,3.0643333 -3.0740003,3.0643333 z"
       style="fill:#e63917;fill-rule:nonzero;stroke-width:0.966667"
       id="path18" /><path
       d="M 2.9343,1.3084 1.5026667,9.4061667 1.4978333,9.44 H 2.334 L 3.7704667,1.3084 Z"
       style="fill:#ffffff;fill-rule:nonzero;stroke-width:0.966667"
       id="path19" /><path
       d="M 7.0629334,1.3084 H 4.9063 L 3.4998,9.44 h 2.175 C 6.3563,9.44 6.9179334,9.3143334 7.3432667,9.0688 7.7686,8.8223 8.1117667,8.4221 8.3679334,7.8817334 8.5177667,7.5675667 8.7111,6.7082 8.9431,5.3287667 9.1654334,4.0353667 9.2669334,3.2775 9.2669334,3.0116667 9.2476,1.8826 8.5081,1.3084 7.0629334,1.3084 Z M 7.0291,8.3689334 C 6.7623,8.5323 6.3514667,8.6144667 5.8149667,8.6144667 H 4.4858 l 1.1213333,-6.4902 h 1.3253001 c 0.5703333,0 0.9763333,0.096667 1.2035,0.2793666 C 8.3196,2.5583 8.4162667,2.8096333 8.4211,3.1566667 8.4259334,3.408 8.3196,4.1562 8.1069334,5.3819334 7.8894334,6.6511667 7.7202667,7.4080667 7.6091,7.6400667 7.4447667,7.9919334 7.2466,8.2384334 7.0291,8.3689334 Z"
       style="fill:#ffffff;fill-rule:nonzero;stroke-width:0.966667"
       id="path20" /></g><g
     id="header" /><g
     id="home" /></svg>
